SplineFontDB: 3.0
FontName: Nicone-Regular
FullName: Nicone
FamilyName: Nicone
Weight: Regular
Copyright: Copyright (c) 2011 by vernon adams (vern@newtypography.co.uk), with Reserved Font Name Niconne.
Version: 001.002
ItalicAngle: 0
UnderlinePosition: -103
UnderlineWidth: 102
Ascent: 1638
Descent: 410
sfntRevision: 0x00010042
LayerCount: 2
Layer: 0 1 "Back"  1
Layer: 1 1 "Fore"  0
NeedsXUIDChange: 1
XUID: [1021 288 713564382 16446354]
FSType: 0
OS2Version: 2
OS2_WeightWidthSlopeOnly: 0
OS2_UseTypoMetrics: 1
CreationTime: 1321794123
ModificationTime: 1321822988
PfmFamily: 17
TTFWeight: 400
TTFWidth: 5
LineGap: 0
VLineGap: 0
Panose: 2 0 5 5 5 0 0 2 0 2
OS2TypoAscent: 260
OS2TypoAOffset: 1
OS2TypoDescent: -175
OS2TypoDOffset: 1
OS2TypoLinegap: 0
OS2WinAscent: 0
OS2WinAOffset: 1
OS2WinDescent: 0
OS2WinDOffset: 1
HheadAscent: 0
HheadAOffset: 1
HheadDescent: 0
HheadDOffset: 1
OS2SubXSize: 1434
OS2SubYSize: 1331
OS2SubXOff: 0
OS2SubYOff: 287
OS2SupXSize: 1434
OS2SupYSize: 1331
OS2SupXOff: 0
OS2SupYOff: 977
OS2StrikeYSize: 102
OS2StrikeYPos: 512
OS2Vendor: 'newt'
OS2CodePages: 00000001.00000000
OS2UnicodeRanges: 80000021.5000000b.00000000.00000000
Lookup: 258 0 0 "'kern' Horizontal Kerning in Latin lookup 0"  {"'kern' Horizontal Kerning in Latin lookup 0 per glyph data 0"  "'kern' Horizontal Kerning in Latin lookup 0 per glyph data 1"  "'kern' Horizontal Kerning in Latin lookup 0 kerning class 2"  } ['kern' ('latn' <'dflt' > ) ]
MarkAttachClasses: 1
DEI: 91125
KernClass2: 4+ 2 "'kern' Horizontal Kerning in Latin lookup 0 kerning class 2" 
 3 V W
 4 f ff
 3 w v
 1 P
 14 o e c a oslash
 0 {} -119 {} 0 {} -53 {} 0 {} -22 {} 0 {} -101 {}
TtTable: prep
PUSHW_1
 511
SCANCTRL
PUSHB_1
 4
SCANTYPE
EndTTInstrs

StartChar: B
Encoding: 66 66 4
Width: 1933
Flags: HW
LayerCount: 2
Fore
SplineSet
543 316 m 1,0,-1
 481 298 l 1,1,2
 464 342 464 342 447.5 416 c 128,-1,3
 431 490 431 490 431 508 c 1,4,5
 356.333333333 508 356.333333333 508 279.666666667 486 c 128,-1,6
 203 464 203 464 157.5 439 c 128,-1,7
 112 414 112 414 79.5 367.5 c 128,-1,8
 47 321 47 321 47 259.5 c 128,-1,9
 47 198 47 198 78.5 151 c 128,-1,10
 110 104 110 104 162.5 79.5 c 0,11,12
 262.142857143 33 262.142857143 33 371.571428571 33 c 128,-1,13
 481 33 481 33 560 56 c 128,-1,14
 639 79 639 79 693.5 117 c 128,-1,15
 748 155 748 155 793 213 c 128,-1,16
 838 271 838 271 866 331.5 c 128,-1,17
 894 392 894 392 921 470 c 128,-1,18
 948 548 948 548 966 615.5 c 0,19,20
 1014.51851852 797.444444444 1014.51851852 797.444444444 1064.25925926 919.222222222 c 128,-1,21
 1114 1041 1114 1041 1211 1159.5 c 128,-1,22
 1308 1278 1308 1278 1431 1354 c 1,23,24
 1371 1368 1371 1368 1278 1368 c 128,-1,25
 1185 1368 1185 1368 1066.5 1327.5 c 128,-1,26
 948 1287 948 1287 846 1214.5 c 128,-1,27
 744 1142 744 1142 663.5 1049 c 128,-1,28
 583 956 583 956 537 843.5 c 128,-1,29
 491 731 491 731 491 618 c 1,30,31
 711 573 711 573 809 455 c 1,32,-1
 767 411 l 1,33,34
 663.805721097 477.936829559 663.805721097 477.936829559 612.902860548 489.968414779 c 128,-1,35
 562 502 562 502 551.5 503.5 c 0,36,37
 506 510 506 510 489 510 c 1,38,39
 501 436 501 436 532.5 346 c 2,40,-1
 543 316 l 1,0,-1
1831 1499 m 1,41,-1
 1851 1452 l 1,42,43
 1758.76923077 1435.23076923 1758.76923077 1435.23076923 1680.5 1402.5 c 2,44,-1
 1653 1391 l 1,45,46
 1725 1355 1725 1355 1767.5 1293 c 128,-1,47
 1810 1231 1810 1231 1810 1179.5 c 128,-1,48
 1810 1128 1810 1128 1801 1093 c 128,-1,49
 1792 1058 1792 1058 1779 1030 c 128,-1,50
 1766 1002 1766 1002 1744.5 971.5 c 128,-1,51
 1723 941 1723 941 1705 920.5 c 128,-1,52
 1687 900 1687 900 1660.5 874.5 c 128,-1,53
 1634 849 1634 849 1619 836.5 c 0,54,55
 1592 814 1592 814 1552 782 c 1,56,57
 1695 723 1695 723 1770 642.5 c 128,-1,58
 1845 562 1845 562 1845 441.5 c 128,-1,59
 1845 321 1845 321 1772.5 208 c 128,-1,60
 1700 95 1700 95 1580.5 28 c 128,-1,61
 1461 -39 1461 -39 1327 -39 c 0,62,63
 1179.37362637 -39 1179.37362637 -39 1100.5 43.5 c 0,64,65
 1057 89 1057 89 1057 149 c 128,-1,66
 1057 209 1057 209 1093.5 246 c 128,-1,67
 1130 283 1130 283 1182 283 c 128,-1,68
 1234 283 1234 283 1264 257 c 128,-1,69
 1294 231 1294 231 1294 196.5 c 128,-1,70
 1294 162 1294 162 1282 142.5 c 128,-1,71
 1270 123 1270 123 1253.5 112 c 128,-1,72
 1237 101 1237 101 1219 94 c 0,73,74
 1188.14285714 82 1188.14285714 82 1177 82 c 1,75,76
 1177 38.1282051282 1177 38.1282051282 1285.5 27 c 0,77,78
 1305 25 1305 25 1321 25 c 0,79,80
 1460 25 1460 25 1554 130 c 128,-1,81
 1648 235 1648 235 1648 375 c 0,82,83
 1648 445 1648 445 1617 504.5 c 128,-1,84
 1586 564 1586 564 1541 600 c 128,-1,85
 1496 636 1496 636 1451.5 661.5 c 128,-1,86
 1407 687 1407 687 1376 701 c 128,-1,87
 1345 715 1345 715 1345 719.5 c 128,-1,88
 1345 724 1345 724 1375 744 c 128,-1,89
 1405 764 1405 764 1448.5 796.5 c 128,-1,90
 1492 829 1492 829 1535 871 c 128,-1,91
 1578 913 1578 913 1608 973.5 c 128,-1,92
 1638 1034 1638 1034 1638 1095 c 128,-1,93
 1638 1156 1638 1156 1604 1225.5 c 128,-1,94
 1570 1295 1570 1295 1505 1323 c 1,95,96
 1317.17378049 1207.41463415 1317.17378049 1207.41463415 1233.5 964 c 0,97,98
 1197.71604938 859.901234568 1197.71604938 859.901234568 1180.35802469 777.450617284 c 0,99,100
 1136.18918919 567.648648649 1136.18918919 567.648648649 1116.09459459 487.324324324 c 128,-1,101
 1096 407 1096 407 1036.5 309 c 128,-1,102
 977 211 977 211 889 133 c 128,-1,103
 801 55 801 55 675 10 c 128,-1,104
 549 -35 549 -35 401 -35 c 0,105,106
 197.584615385 -35 197.584615385 -35 71 58.5 c 0,107,108
 -29 132.363636364 -29 132.363636364 -29 264 c 0,109,110
 -29 353 -29 353 14 424 c 128,-1,111
 57 495 57 495 125.5 536 c 0,112,113
 265.841463415 620 265.841463415 620 431 620 c 1,114,115
 431 782 431 782 507 934.5 c 128,-1,116
 583 1087 583 1087 708.5 1197.5 c 128,-1,117
 834 1308 834 1308 1002.5 1375 c 128,-1,118
 1171 1442 1171 1442 1349 1442 c 0,119,120
 1411 1442 1411 1442 1550 1425 c 1,121,122
 1739 1493 1739 1493 1831 1499 c 1,41,-1
EndSplineSet
EndChar

StartChar: H
Encoding: 72 72 5
Width: 1703
Flags: HW
LayerCount: 2
Fore
SplineSet
1208 98 m 128,-1,1
 1196 145 1196 145 1196 214.5 c 128,-1,2
 1196 284 1196 284 1218 396.5 c 0,3,4
 1246.61404527 542.821822403 1246.61404527 542.821822403 1323 776 c 1,5,6
 1285 770 1285 770 1216.5 757.5 c 128,-1,7
 1148 745 1148 745 1120 741 c 1,8,9
 1034.77248104 348.953412784 1034.77248104 348.953412784 814.5 133 c 0,10,11
 738 58 738 58 633.5 12 c 128,-1,12
 529 -34 529 -34 405 -34 c 128,-1,13
 281 -34 281 -34 195 38 c 128,-1,14
 109 110 109 110 109 231 c 128,-1,15
 109 352 109 352 207 479 c 1,16,17
 45 630 45 630 45 836 c 0,18,19
 45 959 45 959 90.5 1061 c 128,-1,20
 136 1163 136 1163 211.5 1232 c 128,-1,21
 287 1301 287 1301 387 1349 c 0,22,23
 576.583333333 1440 576.583333333 1440 809 1440 c 2,24,-1
 1352 1440 l 2,25,26
 1370 1440 1370 1440 1378 1423 c 1,27,28
 1377 1416 1377 1416 1371.5 1410 c 128,-1,29
 1366 1404 1366 1404 1364 1399 c 1,30,31
 1238.41527446 1248.29832936 1238.41527446 1248.29832936 1167.5 971.5 c 0,32,33
 1152 911 1152 911 1130 811 c 1,34,-1
 1350 848 l 1,35,36
 1511.52951096 1194.98931984 1511.52951096 1194.98931984 1704 1306.5 c 0,37,38
 1767 1343 1767 1343 1824 1343 c 128,-1,39
 1881 1343 1881 1343 1919.5 1314.5 c 128,-1,40
 1958 1286 1958 1286 1958 1223.5 c 128,-1,41
 1958 1161 1958 1161 1913.5 1091 c 128,-1,42
 1869 1021 1869 1021 1799.5 968 c 0,43,44
 1661.66480447 862.888268156 1661.66480447 862.888268156 1518 815 c 1,45,46
 1471 707 1471 707 1418.5 492.5 c 128,-1,47
 1366 278 1366 278 1366 186 c 128,-1,48
 1366 94 1366 94 1405 94 c 0,49,50
 1462 94 1462 94 1556 225 c 1,51,-1
 1612 172 l 1,52,53
 1559 93 1559 93 1489.5 34 c 128,-1,54
 1420 -25 1420 -25 1355.5 -25 c 128,-1,55
 1291 -25 1291 -25 1255.5 13 c 128,-1,0
 1220 51 1220 51 1208 98 c 128,-1,1
162 791 m 0,56,57
 162 640 162 640 256 526 c 1,58,59
 381 641 381 641 564 706 c 128,-1,60
 747 771 747 771 936 786 c 1,61,62
 1030 1216 1030 1216 1155 1366 c 1,63,64
 1079 1378 1079 1378 974 1378 c 128,-1,65
 869 1378 869 1378 779 1364.5 c 128,-1,66
 689 1351 689 1351 598 1323 c 128,-1,67
 507 1295 507 1295 429.5 1247 c 128,-1,68
 352 1199 352 1199 291.5 1136.5 c 0,69,70
 162 1002.71900826 162 1002.71900826 162 791 c 0,56,57
262 440 m 1,71,72
 188 337 188 337 188 245.5 c 128,-1,73
 188 154 188 154 238.5 93 c 128,-1,74
 289 32 289 32 372.5 32 c 128,-1,75
 456 32 456 32 526 62.5 c 128,-1,76
 596 93 596 93 650 148.5 c 128,-1,77
 704 204 704 204 748 269.5 c 128,-1,78
 792 335 792 335 826.5 416.5 c 0,79,80
 888.46299639 562.876353791 888.46299639 562.876353791 926 715 c 1,81,82
 505 680 505 680 309 487 c 1,83,84
 393 442 393 442 463.5 442 c 128,-1,85
 534 442 534 442 559 444 c 1,86,-1
 582 391 l 1,87,88
 530 385 530 385 475 385 c 0,89,90
 358 385 358 385 262 440 c 1,71,72
1845 1280 m 0,91,92
 1803 1280 1803 1280 1754.5 1236 c 128,-1,93
 1706 1192 1706 1192 1664.5 1125 c 0,94,95
 1592.52751572 1008.80345912 1592.52751572 1008.80345912 1548 901 c 1,96,97
 1648.95027624 938.856353591 1648.95027624 938.856353591 1729.47513812 1003.4281768 c 0,98,99
 1880 1124.13207547 1880 1124.13207547 1880 1223 c 0,100,101
 1880 1280 1880 1280 1845 1280 c 0,91,92
EndSplineSet
EndChar

StartChar: m
Encoding: 109 109 6
Width: 1384
Flags: HW
LayerCount: 2
Fore
SplineSet
637 0 m 1,0,-1
 489 0 l 1,1,-1
 508 66 l 1,2,3
 518 105 518 105 544.5 180 c 0,4,5
 602 342.735849057 602 342.735849057 602 434 c 0,6,7
 602 473 602 473 569 473 c 0,8,9
 528 473 528 473 472.5 424.5 c 128,-1,10
 417 376 417 376 366.5 306.5 c 0,11,12
 280.806296692 188.565101387 280.806296692 188.565101387 198.5 48.5 c 2,13,-1
 170 0 l 1,14,-1
 29 0 l 1,15,16
 60.5 94.5 l 2,17,18
 147 354 147 354 147 402.5 c 128,-1,19
 147 451 147 451 131 451 c 0,20,21
 102.35483871 451 102.35483871 451 62 381.5 c 0,22,23
 53 366 53 366 47 356.5 c 128,-1,24
 41 347 41 347 33.5 333.5 c 128,-1,25
 26 320 26 320 24 317 c 1,26,-1
 -43 356 l 1,27,28
 35 483 35 483 100 543.5 c 128,-1,29
 165 604 165 604 233 604 c 0,30,31
 264 604 264 604 286.5 578 c 128,-1,32
 309 552 309 552 309 516.5 c 128,-1,33
 309 481 309 481 305 453.5 c 128,-1,34
 301 426 301 426 296 403 c 128,-1,35
 291 380 291 380 282 348 c 128,-1,36
 273 316 273 316 267.5 299 c 128,-1,37
 262 282 262 282 253 253 c 128,-1,38
 244 224 244 224 242 219 c 1,39,40
 261.642857143 254.357142857 261.642857143 254.357142857 306.821428571 324.178571429 c 128,-1,41
 352 394 352 394 366.5 412.5 c 128,-1,42
 381 431 381 431 405 460.5 c 128,-1,43
 429 490 429 490 447.5 507 c 128,-1,44
 466 524 466 524 492 545 c 128,-1,45
 518 566 518 566 541 577 c 0,46,47
 597.454545455 604 597.454545455 604 654.727272727 604 c 128,-1,48
 712 604 712 604 742 571.5 c 128,-1,49
 772 539 772 539 772 495.5 c 128,-1,50
 772 452 772 452 758.5 405 c 128,-1,51
 745 358 745 358 721 295.5 c 128,-1,52
 697 233 697 233 690 211 c 1,53,54
 785.996416473 366.994176768 785.996416473 366.994176768 837.179092411 430.682174121 c 0,55,56
 976.465464803 604 976.465464803 604 1112 604 c 0,57,58
 1179 604 1179 604 1208 572 c 128,-1,59
 1237 540 1237 540 1237 485 c 128,-1,60
 1237 430 1237 430 1190 302.5 c 128,-1,61
 1143 175 1143 175 1143 146 c 128,-1,62
 1143 117 1143 117 1161 117 c 0,63,64
 1201 117 1201 117 1288 244 c 1,65,-1
 1331 204 l 1,66,67
 1272 99 1272 99 1201 41.5 c 128,-1,68
 1130 -16 1130 -16 1079.5 -16 c 128,-1,69
 1029 -16 1029 -16 1009 17 c 128,-1,70
 989 50 989 50 989 95.5 c 128,-1,71
 989 141 989 141 1029 256.5 c 128,-1,72
 1069 372 1069 372 1069 434 c 0,73,74
 1069 473 1069 473 1034 473 c 0,75,76
 934.149878976 473 934.149878976 473 744.798088591 180.494438223 c 0,77,78
 667.689853445 61.3797068906 667.689853445 61.3797068906 637 0 c 1,0,-1
EndSplineSet
EndChar

StartChar: r
Encoding: 114 114 7
Width: 764
Flags: HW
LayerCount: 2
Fore
SplineSet
549 473 m 0,0,1
 511 473 511 473 459 424.5 c 128,-1,2
 407 376 407 376 358.5 306.5 c 0,3,4
 280.028376248 194.050972149 280.028376248 194.050972149 199 48.5 c 2,5,-1
 172 0 l 1,6,-1
 31 0 l 1,7,8
 62.5 94.5 l 2,9,10
 149 354 149 354 149 402.5 c 128,-1,11
 149 451 149 451 133 451 c 0,12,13
 104.35483871 451 104.35483871 451 64 381.5 c 0,14,15
 55 366 55 366 49 356.5 c 128,-1,16
 43 347 43 347 35.5 333.5 c 128,-1,17
 28 320 28 320 26 317 c 1,18,-1
 -41 356 l 1,19,20
 37 483 37 483 102 543.5 c 128,-1,21
 167 604 167 604 235 604 c 0,22,23
 266 604 266 604 288.5 578 c 128,-1,24
 311 552 311 552 311 516.5 c 128,-1,25
 311 481 311 481 307 453.5 c 128,-1,26
 303 426 303 426 298 403 c 128,-1,27
 293 380 293 380 284 348 c 128,-1,28
 275 316 275 316 269.5 299 c 128,-1,29
 264 282 264 282 255 253 c 128,-1,30
 246 224 246 224 244 219 c 1,31,32
 262 255 262 255 305 325 c 128,-1,33
 348 395 348 395 361 413 c 128,-1,34
 374 431 374 431 397 461 c 128,-1,35
 420 491 420 491 437.5 507.5 c 128,-1,36
 455 524 455 524 479.5 545.5 c 128,-1,37
 504 567 504 567 526 577.5 c 0,38,39
 581.523809524 604 581.523809524 604 633.761904762 604 c 128,-1,40
 686 604 686 604 717.5 573.5 c 128,-1,41
 749 543 749 543 749 502.5 c 128,-1,42
 749 462 749 462 723.5 431.5 c 128,-1,43
 698 401 698 401 664.5 401 c 128,-1,44
 631 401 631 401 612 412.5 c 128,-1,45
 593 424 593 424 585.5 437 c 0,46,47
 564.730769231 473 564.730769231 473 549 473 c 0,0,1
EndSplineSet
EndChar

StartChar: o
Encoding: 111 111 8
Width: 775
Flags: HW
LayerCount: 2
Fore
SplineSet
-1 238 m 0,0,1
 -1 313 -1 313 35.5 382.5 c 128,-1,2
 72 452 72 452 130 499.5 c 0,3,4
 257.6 604 257.6 604 390.8 604 c 128,-1,5
 524 604 524 604 609 533 c 128,-1,6
 694 462 694 462 694 355.5 c 128,-1,7
 694 249 694 249 635.5 164 c 128,-1,8
 577 79 577 79 481 31.5 c 128,-1,9
 385 -16 385 -16 271.5 -16 c 128,-1,10
 158 -16 158 -16 78.5 55.5 c 128,-1,11
 -1 127 -1 127 -1 238 c 0,0,1
326.5 46 m 0,12,13
 372 46 372 46 412.5 76 c 128,-1,14
 453 106 453 106 474 153.5 c 0,15,16
 515 246.238095238 515 246.238095238 515 344.119047619 c 128,-1,17
 515 442 515 442 479 492.5 c 128,-1,18
 443 543 443 543 377 543 c 128,-1,19
 311 543 311 543 246.5 457 c 128,-1,20
 182 371 182 371 182 238.2 c 0,21,22
 182 46 182 46 326.5 46 c 0,12,13
EndSplineSet
EndChar

StartChar: f
Encoding: 102 102 9
Width: 567
Flags: HW
LayerCount: 2
Fore
SplineSet
354 516 m 1,0,-1
 330 414 l 2,1,2
 262.896283007 130.930297283 262.896283007 130.930297283 218.769543228 16.4429893308 c 0,3,4
 134.31565723 -202.673539615 134.31565723 -202.673539615 0.697285470147 -260.936272529 c 0,5,6
 -54.4898971833 -285 -54.4898971833 -285 -110.744948592 -285 c 128,-1,7
 -167 -285 -167 -285 -190 -263.5 c 128,-1,8
 -213 -242 -213 -242 -213 -211.5 c 128,-1,9
 -213 -181 -213 -181 -193 -159 c 128,-1,10
 -173 -137 -173 -137 -142.5 -137 c 128,-1,11
 -112 -137 -112 -137 -92 -151 c 128,-1,12
 -72 -165 -72 -165 -72 -189.5 c 128,-1,13
 -72 -214 -72 -214 -86 -236 c 1,14,15
 17.430125068 -219.839042958 17.430125068 -219.839042958 99 153.5 c 0,16,17
 112 213 112 213 128.5 294.5 c 128,-1,18
 145 376 145 376 154 414 c 2,19,-1
 178 516 l 1,20,-1
 -10 516 l 1,21,-1
 6 582 l 1,22,-1
 192 582 l 1,23,24
 311.140058226 1065.00023605 311.140058226 1065.00023605 471 1255.5 c 0,25,26
 603.167832168 1413 603.167832168 1413 790 1413 c 0,27,28
 874 1413 874 1413 931.5 1379 c 128,-1,29
 989 1345 989 1345 989 1266 c 0,30,31
 989 1220 989 1220 957.5 1193.5 c 128,-1,32
 926 1167 926 1167 883.5 1167 c 128,-1,33
 841 1167 841 1167 811.5 1191.5 c 128,-1,34
 782 1216 782 1216 782 1255 c 128,-1,35
 782 1294 782 1294 809 1331 c 1,36,37
 760 1348 760 1348 732 1348 c 128,-1,38
 704 1348 704 1348 665.5 1320.5 c 128,-1,39
 627 1293 627 1293 597 1247 c 0,40,41
 479.616906475 1067.01258993 479.616906475 1067.01258993 369 582 c 1,42,-1
 608 582 l 1,43,-1
 592 516 l 1,44,-1
 354 516 l 1,0,-1
EndSplineSet
EndChar

StartChar: e
Encoding: 101 101 10
Width: 706
Flags: HW
LayerCount: 2
Fore
SplineSet
184 197 m 1,0,1
 190.388888889 82 190.388888889 82 339 82 c 0,2,3
 394 82 394 82 453.5 113.5 c 128,-1,4
 513 145 513 145 550 188 c 1,5,-1
 593 160 l 1,6,7
 510.39012987 20.5958441558 510.39012987 20.5958441558 327.5 -9.5 c 0,8,9
 288 -16 288 -16 251 -16 c 0,10,11
 143 -16 143 -16 71 55.5 c 128,-1,12
 -1 127 -1 127 -1 230 c 128,-1,13
 -1 333 -1 333 62 420.5 c 128,-1,14
 125 508 125 508 219.5 556 c 128,-1,15
 314 604 314 604 406 604 c 128,-1,16
 498 604 498 604 565.5 562 c 128,-1,17
 633 520 633 520 634.5 449 c 128,-1,18
 636 378 636 378 593 326.5 c 128,-1,19
 550 275 550 275 483.5 248 c 0,20,21
 352.962962963 195 352.962962963 195 227 195 c 1,22,-1
 184 197 l 1,0,1
178 252 m 1,23,24
 288.982796648 255.894133216 288.982796648 255.894133216 356.491398324 287.447066608 c 128,-1,25
 424 319 424 319 450.5 359.5 c 128,-1,26
 477 400 477 400 477 444.5 c 128,-1,27
 477 489 477 489 454 510.5 c 128,-1,28
 431 532 431 532 405 532 c 0,29,30
 341 532 341 532 287.5 487.5 c 128,-1,31
 234 443 234 443 206 379.5 c 128,-1,32
 178 316 178 316 178 252 c 1,23,24
EndSplineSet
EndChar

StartChar: d
Encoding: 100 100 11
Width: 880
Flags: HW
LayerCount: 2
Fore
SplineSet
485 123 m 1,0,1
 379.810810811 -16 379.810810811 -16 234 -16 c 0,2,3
 136 -16 136 -16 68 55.5 c 128,-1,4
 0 127 0 127 0 238 c 0,5,6
 0 387 0 387 112 495.5 c 128,-1,7
 224 604 224 604 363 604 c 0,8,9
 435 604 435 604 486.5 575.5 c 128,-1,10
 538 547 538 547 553 498 c 1,11,12
 599 687 599 687 685.5 936.5 c 128,-1,13
 772 1186 772 1186 845 1329 c 1,14,-1
 1005 1329 l 1,15,16
 912 1145 912 1145 776 705.5 c 128,-1,17
 640 266 640 266 640 156 c 0,18,19
 640 117 640 117 656 117 c 0,20,21
 696 117 696 117 784 244 c 1,22,-1
 827 204 l 1,23,24
 764 92 764 92 692 38 c 128,-1,25
 620 -16 620 -16 576.5 -16 c 128,-1,26
 533 -16 533 -16 508.5 15.5 c 128,-1,27
 484 47 484 47 484 107 c 0,28,29
 484 109 484 109 484.5 114.5 c 128,-1,30
 485 120 485 120 485 123 c 1,0,1
181 244 m 0,31,32
 181 83 181 83 305 83 c 0,33,34
 421.202531646 83 421.202531646 83 496 238.5 c 0,35,36
 531 311.263157895 531 311.263157895 531 356 c 0,37,38
 531 518 531 518 408 518 c 0,39,40
 326 518 326 518 253.5 442.5 c 128,-1,41
 181 367 181 367 181 244 c 0,31,32
EndSplineSet
EndChar

StartChar: n
Encoding: 110 110 12
Width: 904
Flags: HW
LayerCount: 2
Fore
SplineSet
272 281 m 1,0,1
 481.351851852 604 481.351851852 604 647 604 c 0,2,3
 703 604 703 604 731 570 c 128,-1,4
 759 536 759 536 759 484 c 128,-1,5
 759 432 759 432 712.5 304 c 128,-1,6
 666 176 666 176 666 145.5 c 128,-1,7
 666 115 666 115 681 115 c 0,8,9
 701 115 701 115 740 156.5 c 128,-1,10
 779 198 779 198 809 244 c 1,11,-1
 851 204 l 1,12,13
 791 95 791 95 719.5 39.5 c 128,-1,14
 648 -16 648 -16 603.5 -16 c 128,-1,15
 559 -16 559 -16 534 13.5 c 128,-1,16
 509 43 509 43 509 94 c 128,-1,17
 509 145 509 145 549.5 260.5 c 128,-1,18
 590 376 590 376 590 424.5 c 128,-1,19
 590 473 590 473 557 473 c 0,20,21
 519 473 519 473 467 424.5 c 128,-1,22
 415 376 415 376 366.5 306.5 c 0,23,24
 288.028376248 194.050972149 288.028376248 194.050972149 207 48.5 c 2,25,-1
 180 0 l 1,26,-1
 39 0 l 1,27,-1
 70.5 94.5 l 2,28,29
 157 354 157 354 157 402.5 c 128,-1,30
 157 451 157 451 141 451 c 0,31,32
 112.35483871 451 112.35483871 451 72 381.5 c 0,33,34
 63 366 63 366 57 356.5 c 128,-1,35
 51 347 51 347 43.5 333.5 c 128,-1,36
 36 320 36 320 34 317 c 1,37,-1
 -33 356 l 1,38,39
 45 483 45 483 110 543.5 c 128,-1,40
 175 604 175 604 243 604 c 0,41,42
 274 604 274 604 296.5 578 c 128,-1,43
 319 552 319 552 319 515 c 128,-1,44
 319 478 319 478 313 442.5 c 128,-1,45
 307 407 307 407 300.5 383.5 c 128,-1,46
 294 360 294 360 283.5 323 c 128,-1,47
 273 286 273 286 272 281 c 1,0,1
EndSplineSet
EndChar

StartChar: l
Encoding: 108 108 13
Width: 406
Flags: HW
LayerCount: 2
Fore
SplineSet
372 1330 m 1,0,-1
 534 1330 l 1,1,2
 491 1256 491 1256 402 1001.5 c 128,-1,3
 313 747 313 747 239.5 489.5 c 128,-1,4
 166 232 166 232 166 174.5 c 128,-1,5
 166 117 166 117 180 117 c 0,6,7
 222 117 222 117 311 244 c 1,8,-1
 353 204 l 1,9,10
 309 128 309 128 257.5 75.5 c 0,11,12
 167.742857143 -16 167.742857143 -16 112.371428571 -16 c 0,13,14
 10 -16 10 -16 10 107 c 0,15,16
 10 290 10 290 131.5 684 c 128,-1,17
 253 1078 253 1078 372 1330 c 1,0,-1
EndSplineSet
EndChar

StartChar: b
Encoding: 98 98 14
Width: 766
Flags: HW
LayerCount: 2
Fore
SplineSet
452 21 m 128,-1,1
 371 -16 371 -16 265 -16 c 128,-1,2
 159 -16 159 -16 85.5 47 c 128,-1,3
 12 110 12 110 12 207 c 0,4,5
 12 218 12 218 16 248 c 0,6,7
 57 523 57 523 165 850.5 c 128,-1,8
 273 1178 273 1178 397 1339 c 1,9,-1
 567 1339 l 1,10,11
 492 1255 492 1255 387.5 982 c 128,-1,12
 283 709 283 709 219 444 c 1,13,14
 340 604 340 604 491 604 c 0,15,16
 585 604 585 604 635.5 540.5 c 128,-1,17
 686 477 686 477 686 395 c 128,-1,18
 686 313 686 313 659 244.5 c 128,-1,19
 632 176 632 176 582.5 117 c 128,-1,0
 533 58 533 58 452 21 c 128,-1,1
188 248 m 1,20,21
 180 206 180 206 180 166.5 c 128,-1,22
 180 127 180 127 209 86.5 c 128,-1,23
 238 46 238 46 298 46 c 128,-1,24
 358 46 358 46 407.5 98 c 0,25,26
 504 199.373737374 504 199.373737374 504 365 c 0,27,28
 504 433 504 433 481 476.5 c 128,-1,29
 458 520 458 520 410 520 c 128,-1,30
 362 520 362 520 290.5 443 c 128,-1,31
 219 366 219 366 188 248 c 1,20,21
EndSplineSet
EndChar

StartChar: g
Encoding: 103 103 15
Width: 714
Flags: HW
LayerCount: 2
Fore
SplineSet
4 -147 m 1,0,1
 -38 -112 -38 -112 -38 -82 c 128,-1,2
 -38 -52 -38 -52 -14 -37 c 1,3,-1
 107 82 l 1,4,5
 1 171 1 171 1 295.5 c 128,-1,6
 1 420 1 420 110.5 515 c 128,-1,7
 220 610 220 610 357 610 c 0,8,9
 388 610 388 610 404 608 c 1,10,11
 412 684 412 684 478.5 751.5 c 128,-1,12
 545 819 545 819 645.5 819 c 128,-1,13
 746 819 746 819 746 729 c 0,14,15
 746 690 746 690 723.5 667.5 c 128,-1,16
 701 645 701 645 670 645 c 128,-1,17
 639 645 639 645 615 664 c 128,-1,18
 591 683 591 683 582 717 c 1,19,20
 522 701 522 701 485.5 665.5 c 128,-1,21
 449 630 449 630 449 602 c 1,22,23
 529 573 529 573 581 502.5 c 128,-1,24
 633 432 633 432 633 356 c 0,25,26
 633 225 633 225 528 131 c 128,-1,27
 423 37 423 37 291 37 c 0,28,29
 204 37 204 37 148 59 c 1,30,31
 89 10 89 10 89 -8 c 0,32,33
 89 -36 89 -36 138 -39 c 1,34,-1
 336 -47 l 2,35,36
 437 -51 437 -51 494 -80.5 c 128,-1,37
 551 -110 551 -110 551 -164 c 128,-1,38
 551 -218 551 -218 520 -259 c 128,-1,39
 489 -300 489 -300 435 -323 c 0,40,41
 331.695652174 -367 331.695652174 -367 175 -367 c 0,42,43
 97.1666666667 -367 97.1666666667 -367 30.5833333333 -350 c 0,44,45
 -98 -317.170212766 -98 -317.170212766 -98 -248 c 0,46,47
 -98 -192.625 -98 -192.625 -17 -155.5 c 0,48,49
 -5 -150 -5 -150 4 -147 c 1,0,1
193.5 399.5 m 128,-1,51
 175 343 175 343 175 298.5 c 128,-1,52
 175 254 175 254 180 223.5 c 128,-1,53
 185 193 185 193 197 162.5 c 0,54,55
 223.163934426 96 223.163934426 96 289.081967213 96 c 128,-1,56
 355 96 355 96 396.5 142 c 0,57,58
 468 221.253012048 468 221.253012048 468 369 c 0,59,60
 468 426 468 426 438 484.5 c 128,-1,61
 408 543 408 543 353 543 c 128,-1,62
 298 543 298 543 255 499.5 c 128,-1,50
 212 456 212 456 193.5 399.5 c 128,-1,51
191 -309 m 0,63,64
 414 -309 414 -309 414 -231 c 0,65,66
 414 -164 414 -164 70 -164 c 0,67,68
 45 -164 45 -164 27 -192 c 128,-1,69
 9 -220 9 -220 9 -244 c 0,70,71
 9 -282 9 -282 56 -295.5 c 128,-1,72
 103 -309 103 -309 191 -309 c 0,63,64
EndSplineSet
EndChar

StartChar: i
Encoding: 105 105 16
Width: 484
Flags: HW
LayerCount: 2
Fore
SplineSet
112 10 m 128,-1,1
 88 36 88 36 88 81.5 c 128,-1,2
 88 127 88 127 111.5 205.5 c 128,-1,3
 135 284 135 284 158.5 348 c 128,-1,4
 182 412 182 412 182 433.5 c 128,-1,5
 182 455 182 455 168 455 c 0,6,7
 133 455 133 455 55 317 c 1,8,-1
 -12 356 l 1,9,10
 135 604 135 604 258 604 c 0,11,12
 342 604 342 604 342 498 c 0,13,14
 342 467 342 467 322 399 c 1,15,-1
 250 193 l 2,16,17
 239 164 239 164 239 140.5 c 128,-1,18
 239 117 239 117 257 117 c 0,19,20
 291 117 291 117 382 243 c 1,21,-1
 424 204 l 1,22,23
 370 104 370 104 295.5 44 c 128,-1,24
 221 -16 221 -16 178.5 -16 c 128,-1,0
 136 -16 136 -16 112 10 c 128,-1,1
436 826 m 128,-1,26
 409 793 409 793 363 793 c 128,-1,27
 317 793 317 793 294 820.5 c 128,-1,28
 271 848 271 848 271 890 c 128,-1,29
 271 932 271 932 299.5 964.5 c 128,-1,30
 328 997 328 997 373 997 c 128,-1,31
 418 997 418 997 440.5 968.5 c 128,-1,32
 463 940 463 940 463 899.5 c 128,-1,25
 463 859 463 859 436 826 c 128,-1,26
EndSplineSet
EndChar

StartChar: s
Encoding: 115 115 17
Width: 657
Flags: HW
LayerCount: 2
Fore
SplineSet
0 61.5 m 128,-1,1
 -28 93 -28 93 -28 131 c 128,-1,2
 -28 169 -28 169 -7 194 c 128,-1,3
 14 219 14 219 48.5 219 c 128,-1,4
 83 219 83 219 109.5 198.5 c 128,-1,5
 136 178 136 178 136 140.5 c 128,-1,6
 136 103 136 103 90 78 c 1,7,8
 128 45 128 45 206 45 c 0,9,10
 375 45 375 45 375 141 c 0,11,12
 375 201.101123596 375 201.101123596 268.5 237 c 0,13,14
 224 252 224 252 179.5 269 c 128,-1,15
 135 286 135 286 102 319 c 128,-1,16
 69 352 69 352 66 399 c 1,17,18
 66 467 66 467 111 514.5 c 0,19,20
 195.789473684 604 195.789473684 604 365 604 c 0,21,22
 448 604 448 604 512 572.5 c 128,-1,23
 576 541 576 541 576 491 c 128,-1,24
 576 441 576 441 550.5 419 c 128,-1,25
 525 397 525 397 491 397 c 128,-1,26
 457 397 457 397 433.5 415.5 c 128,-1,27
 410 434 410 434 410 467 c 128,-1,28
 410 500 410 500 449 524 c 1,29,30
 425 541 425 541 366 541 c 128,-1,31
 307 541 307 541 260 523.5 c 128,-1,32
 213 506 213 506 213 476 c 128,-1,33
 213 446 213 446 247.5 426 c 128,-1,34
 282 406 282 406 331 389 c 128,-1,35
 380 372 380 372 429 350 c 128,-1,36
 478 328 478 328 512.5 287 c 128,-1,37
 547 246 547 246 547 186 c 128,-1,38
 547 126 547 126 498 77 c 0,39,40
 405 -16 405 -16 244 -16 c 0,41,42
 158.580645161 -16 158.580645161 -16 93.2903225806 7 c 128,-1,0
 28 30 28 30 0 61.5 c 128,-1,1
EndSplineSet
EndChar

StartChar: h
Encoding: 104 104 18
Width: 824
Flags: HW
LayerCount: 2
Fore
SplineSet
473 259 m 128,-1,1
 515 374 515 374 515 423.5 c 128,-1,2
 515 473 515 473 480.5 473 c 128,-1,3
 446 473 446 473 397 424.5 c 128,-1,4
 348 376 348 376 303 306.5 c 0,5,6
 229.316270567 192.699573431 229.316270567 192.699573431 153.5 48.5 c 2,7,-1
 128 0 l 1,8,-1
 -16 0 l 1,9,10
 33.0115559224 361.931489889 33.0115559224 361.931489889 78.0057779612 535.965744944 c 128,-1,11
 123 710 123 710 164 833 c 128,-1,12
 205 956 205 956 251.5 1051 c 0,13,14
 358.359943316 1269.31601323 358.359943316 1269.31601323 496 1374 c 1,15,-1
 572 1339 l 1,16,17
 465 1232 465 1232 375.5 962.5 c 128,-1,18
 286 693 286 693 177 219 c 1,19,20
 183 229 183 229 201.5 261.5 c 128,-1,21
 220 294 220 294 230 310.5 c 128,-1,22
 240 327 240 327 260.5 360 c 128,-1,23
 281 393 281 393 295 412.5 c 128,-1,24
 309 432 309 432 331.5 461 c 128,-1,25
 354 490 354 490 371.5 507.5 c 128,-1,26
 389 525 389 525 413 545.5 c 128,-1,27
 437 566 437 566 459 577.5 c 0,28,29
 509.695652174 604 509.695652174 604 567.847826087 604 c 128,-1,30
 626 604 626 604 655.5 572 c 128,-1,31
 685 540 685 540 685 486 c 128,-1,32
 685 432 685 432 635 304.5 c 128,-1,33
 585 177 585 177 585 147 c 128,-1,34
 585 117 585 117 601 117 c 0,35,36
 643.333333333 117 643.333333333 117 728 244 c 1,37,-1
 771 204 l 1,38,39
 707 94 707 94 637.5 39 c 128,-1,40
 568 -16 568 -16 523.5 -16 c 128,-1,41
 479 -16 479 -16 455 12 c 128,-1,42
 431 40 431 40 431 92 c 128,-1,0
 431 144 431 144 473 259 c 128,-1,1
EndSplineSet
EndChar

StartChar: t
Encoding: 116 116 19
Width: 449
Flags: HW
LayerCount: 2
Fore
SplineSet
136 582 m 1,0,1
 239.273330175 902.412126954 239.273330175 902.412126954 346 1118 c 1,2,-1
 470 1108 l 1,3,4
 459 1076 459 1076 416.5 953.5 c 0,5,6
 323.4 685.152941176 323.4 685.152941176 296 582 c 1,7,-1
 453 582 l 1,8,-1
 437 516 l 1,9,-1
 275 516 l 1,10,11
 183 232 183 232 183 170.5 c 128,-1,12
 183 109 183 109 195.5 109 c 128,-1,13
 208 109 208 109 218 114.5 c 0,14,15
 245.010428737 129.355735805 245.010428737 129.355735805 334 260 c 1,16,-1
 375 223 l 1,17,18
 308 101 308 101 237 42.5 c 128,-1,19
 166 -16 166 -16 120 -16 c 128,-1,20
 74 -16 74 -16 50.5 16 c 128,-1,21
 27 48 27 48 27 98 c 0,22,23
 27 225 27 225 116 516 c 1,24,-1
 11 516 l 1,25,-1
 27 582 l 1,26,-1
 136 582 l 1,0,1
EndSplineSet
EndChar

StartChar: c
Encoding: 99 99 20
Width: 671
Flags: HW
LayerCount: 2
Fore
SplineSet
520 207 m 1,0,-1
 561 178 l 1,1,2
 517 89 517 89 425.5 36.5 c 128,-1,3
 334 -16 334 -16 234 -16 c 128,-1,4
 134 -16 134 -16 65.5 45 c 128,-1,5
 -3 106 -3 106 -3 217.5 c 128,-1,6
 -3 329 -3 329 65.5 419 c 128,-1,7
 134 509 134 509 234 556.5 c 128,-1,8
 334 604 334 604 436 604 c 0,9,10
 560.75 604 560.75 604 604.5 544 c 0,11,12
 622 520 622 520 622 483.5 c 128,-1,13
 622 447 622 447 597 422 c 128,-1,14
 572 397 572 397 537 397 c 128,-1,15
 502 397 502 397 478 419.5 c 128,-1,16
 454 442 454 442 454 477 c 128,-1,17
 454 512 454 512 497 541 c 1,18,19
 459 553 459 553 427 553 c 0,20,21
 358 553 358 553 300 502 c 128,-1,22
 242 451 242 451 212 378.5 c 128,-1,23
 182 306 182 306 182 236 c 128,-1,24
 182 166 182 166 215.5 123.5 c 128,-1,25
 249 81 249 81 312 81 c 128,-1,26
 375 81 375 81 433 116.5 c 128,-1,27
 491 152 491 152 520 207 c 1,0,-1
EndSplineSet
EndChar

StartChar: a
Encoding: 97 97 21
Width: 851
Flags: HW
LayerCount: 2
Fore
SplineSet
553 582 m 1,0,-1
 709 582 l 1,1,-1
 630 283 l 1,2,3
 611 219.666666667 611 219.666666667 611 168.333333333 c 128,-1,4
 611 117 611 117 629 117 c 128,-1,5
 647 117 647 117 678.5 148.5 c 128,-1,6
 710 180 710 180 732.5 212 c 2,7,-1
 755 244 l 1,8,-1
 798 204 l 1,9,10
 765.064516129 140.48156682 765.064516129 140.48156682 713.532258065 86.7407834101 c 0,11,12
 615.01369863 -16 615.01369863 -16 542 -16 c 0,13,14
 456 -16 456 -16 456 117 c 0,15,16
 456 139 456 139 458 150 c 1,17,18
 442.546891465 99.2255005269 442.546891465 99.2255005269 400.773445732 59.6127502634 c 0,19,20
 321.036363636 -16 321.036363636 -16 220.518181818 -16 c 128,-1,21
 120 -16 120 -16 59.5 52.5 c 128,-1,22
 -1 121 -1 121 -1 224 c 0,23,24
 -1 384 -1 384 103 494 c 128,-1,25
 207 604 207 604 347 604 c 0,26,27
 417 604 417 604 463 565.5 c 128,-1,28
 509 527 509 527 523 465 c 1,29,-1
 553 582 l 1,0,-1
386 518 m 0,30,31
 328 518 328 518 277.5 469.5 c 128,-1,32
 227 421 227 421 200 352.5 c 128,-1,33
 173 284 173 284 173 219 c 128,-1,34
 173 154 173 154 201.5 114 c 128,-1,35
 230 74 230 74 289.5 74 c 128,-1,36
 349 74 349 74 397 128.5 c 0,37,38
 488 231.822916667 488 231.822916667 488 374.911458333 c 128,-1,39
 488 518 488 518 386 518 c 0,30,31
EndSplineSet
EndChar

StartChar: p
Encoding: 112 112 22
Width: 815
Flags: HW
LayerCount: 2
Fore
SplineSet
561.5 43 m 128,-1,1
 479 -16 479 -16 371.775 -16 c 128,-1,2
 264.55 -16 264.55 -16 201 66 c 1,3,4
 153.570854988 -118.670926322 153.570854988 -118.670926322 120.615412835 -197.810873103 c 0,5,6
 16.991352549 -442.993378881 16.991352549 -442.993378881 -164 -444 c 0,7,8
 -208 -444 -208 -444 -238 -414 c 128,-1,9
 -268 -384 -268 -384 -268 -344.5 c 128,-1,10
 -268 -305 -268 -305 -248 -282.5 c 128,-1,11
 -228 -260 -228 -260 -195 -260 c 128,-1,12
 -162 -260 -162 -260 -140 -275.5 c 128,-1,13
 -118 -291 -118 -291 -118 -323.5 c 128,-1,14
 -118 -356 -118 -356 -153 -393 c 1,15,-1
 -147 -401 l 1,16,17
 -85.32 -401 -85.32 -401 -34.5 -219.5 c 0,18,19
 -14.3076923077 -147.384615385 -14.3076923077 -147.384615385 -5.15384615385 -106.192307692 c 128,-1,20
 4 -65 4 -65 6 -57 c 2,21,-1
 111 356 l 1,22,23
 62 324 62 324 -14 232 c 1,24,-1
 -53 277 l 1,25,26
 -9.41900647948 337.529157667 -9.41900647948 337.529157667 50.7904967603 395.764578834 c 128,-1,27
 111 454 111 454 127 470 c 1,28,29
 205.201852755 701.347147733 205.201852755 701.347147733 278.5 815.5 c 0,30,31
 353.61550509 932.483163665 353.61550509 932.483163665 446 999 c 1,32,-1
 473 975 l 1,33,34
 410 900 410 900 366 784 c 128,-1,35
 322 668 322 668 309 561 c 1,36,37
 416 604 416 604 512.5 604 c 128,-1,38
 609 604 609 604 672 543 c 128,-1,39
 735 482 735 482 735 382 c 128,-1,40
 735 282 735 282 689.5 192 c 128,-1,0
 644 102 644 102 561.5 43 c 128,-1,1
299 471 m 1,41,-1
 223 135 l 1,42,43
 241 96 241 96 283 76 c 128,-1,44
 325 56 325 56 380 56 c 128,-1,45
 435 56 435 56 481 103 c 0,46,47
 567 190.869565217 567 190.869565217 567 332 c 0,48,49
 567 458.425925926 567 458.425925926 499 502.5 c 0,50,51
 472 520 472 520 427.5 520 c 128,-1,52
 383 520 383 520 299 471 c 1,41,-1
EndSplineSet
EndChar

StartChar: S
Encoding: 83 83 23
Width: 1326
Flags: HW
LayerCount: 2
Fore
SplineSet
708.5 -14.5 m 128,-1,1
 608 -33 608 -33 518.5 -33 c 128,-1,2
 429 -33 429 -33 357.5 -23.5 c 128,-1,3
 286 -14 286 -14 215.5 9.5 c 128,-1,4
 145 33 145 33 94 69.5 c 0,5,6
 -20 151.088235294 -20 151.088235294 -20 299 c 0,7,8
 -20 387 -20 387 21 463.5 c 128,-1,9
 62 540 62 540 128 590.5 c 0,10,11
 268.495049505 698 268.495049505 698 434 698 c 0,12,13
 633.322033898 698 633.322033898 698 729.5 581 c 0,14,15
 778 522 778 522 778 438 c 128,-1,16
 778 354 778 354 698.5 292.5 c 128,-1,17
 619 231 619 231 531 231 c 0,18,19
 510 231 510 231 510 252.5 c 128,-1,20
 510 274 510 274 530 283.5 c 128,-1,21
 550 293 550 293 578 301.5 c 128,-1,22
 606 310 606 310 634.5 322.5 c 0,23,24
 703 352.543859649 703 352.543859649 703 422.271929825 c 128,-1,25
 703 492 703 492 639.5 527.5 c 128,-1,26
 576 563 576 563 419 563 c 128,-1,27
 262 563 262 563 176 483.5 c 128,-1,28
 90 404 90 404 90 294 c 0,29,30
 90 148.775 90 148.775 219 87.5 c 0,31,32
 333.736842105 33 333.736842105 33 494 33 c 0,33,34
 768.554455446 33 768.554455446 33 939 189.5 c 0,35,36
 1059 299.681818182 1059 299.681818182 1059 467 c 0,37,38
 1059 567 1059 567 988.5 661 c 0,39,40
 957 703 957 703 919 744 c 128,-1,41
 881 785 881 785 843 826 c 128,-1,42
 805 867 805 867 773.5 907.5 c 0,43,44
 703 998.142857143 703 998.142857143 703 1076.07142857 c 128,-1,45
 703 1154 703 1154 728.5 1210.5 c 128,-1,46
 754 1267 754 1267 796.5 1308.5 c 128,-1,47
 839 1350 839 1350 894 1380.5 c 0,48,49
 1004.90163934 1442 1004.90163934 1442 1129 1442 c 0,50,51
 1237.09803922 1442 1237.09803922 1442 1330 1390.5 c 0,52,53
 1432 1333.95652174 1432 1333.95652174 1432 1219 c 0,54,55
 1432 1174 1432 1174 1400 1140 c 128,-1,56
 1368 1106 1368 1106 1328 1106 c 128,-1,57
 1288 1106 1288 1106 1262.5 1129 c 128,-1,58
 1237 1152 1237 1152 1237 1180.5 c 128,-1,59
 1237 1209 1237 1209 1261.5 1241.5 c 128,-1,60
 1286 1274 1286 1274 1286 1295.5 c 128,-1,61
 1286 1317 1286 1317 1268 1335 c 128,-1,62
 1250 1353 1250 1353 1222.5 1361.5 c 0,63,64
 1165.88235294 1379 1165.88235294 1379 1120 1379 c 0,65,66
 1014 1379 1014 1379 938 1316 c 128,-1,67
 862 1253 862 1253 862 1141 c 0,68,69
 862 1080.08823529 862 1080.08823529 938 998.5 c 0,70,71
 972 962 972 962 1012.5 921.5 c 128,-1,72
 1053 881 1053 881 1094 835 c 128,-1,73
 1135 789 1135 789 1169 740.5 c 0,74,75
 1245 632.088235294 1245 632.088235294 1245 516.044117647 c 128,-1,76
 1245 400 1245 400 1199 306 c 128,-1,77
 1153 212 1153 212 1078.5 150.5 c 128,-1,78
 1004 89 1004 89 906.5 46.5 c 128,-1,0
 809 4 809 4 708.5 -14.5 c 128,-1,1
EndSplineSet
EndChar

StartChar: L
Encoding: 76 76 24
Width: 1591
Flags: HW
LayerCount: 2
Fore
SplineSet
1597 1153 m 0,0,1
 1597 1368 1597 1368 1394 1368 c 0,2,3
 1306 1368 1306 1368 1242 1314 c 128,-1,4
 1178 1260 1178 1260 1143 1175 c 128,-1,5
 1108 1090 1108 1090 1074.5 970 c 128,-1,6
 1041 850 1041 850 1015 732.5 c 0,7,8
 950.476869489 440.90508327 950.476869489 440.90508327 831 247 c 1,9,10
 867 231 867 231 941 195.5 c 128,-1,11
 1015 160 1015 160 1060.5 139.5 c 0,12,13
 1185.90243902 83 1185.90243902 83 1281 83 c 0,14,15
 1323 83 1323 83 1360 104 c 128,-1,16
 1397 125 1397 125 1416.5 149.5 c 128,-1,17
 1436 174 1436 174 1450.5 195 c 128,-1,18
 1465 216 1465 216 1468 216 c 1,19,-1
 1513 190 l 1,20,21
 1424.95734597 24.0734597156 1424.95734597 24.0734597156 1327 -16 c 0,22,23
 1283 -34 1283 -34 1214 -34 c 128,-1,24
 1145 -34 1145 -34 1062.5 -9.5 c 128,-1,25
 980 15 980 15 877.5 61 c 128,-1,26
 775 107 775 107 733 122 c 1,27,28
 653 53 653 53 528.5 9.5 c 128,-1,29
 404 -34 404 -34 243 -34 c 0,30,31
 162.414634146 -34 162.414634146 -34 96.2073170732 -3.5 c 0,32,33
 -29 54.1797752809 -29 54.1797752809 -29 143.08988764 c 128,-1,34
 -29 232 -29 232 26 293 c 0,35,36
 130.590163934 409 130.590163934 409 317 409 c 0,37,38
 449.951219512 409 449.951219512 409 597.5 353.5 c 0,39,40
 652 333 652 333 739 296 c 1,41,42
 781.778258518 415.035154137 781.778258518 415.035154137 811.889129259 570.017577069 c 128,-1,43
 842 725 842 725 868 826.5 c 128,-1,44
 894 928 894 928 921.5 1013.5 c 128,-1,45
 949 1099 949 1099 993.5 1180 c 128,-1,46
 1038 1261 1038 1261 1092 1317.5 c 0,47,48
 1210.99115044 1442 1210.99115044 1442 1402 1442 c 0,49,50
 1547 1442 1547 1442 1638.5 1358 c 128,-1,51
 1730 1274 1730 1274 1730 1122 c 0,52,53
 1730 1009 1730 1009 1684.5 902.5 c 128,-1,54
 1639 796 1639 796 1564 715 c 128,-1,55
 1489 634 1489 634 1390.5 578 c 128,-1,56
 1292 522 1292 522 1187 504 c 1,57,-1
 1173 559 l 1,58,59
 1295 589 1295 589 1393 681.5 c 128,-1,60
 1491 774 1491 774 1544 898.5 c 128,-1,61
 1597 1023 1597 1023 1597 1153 c 0,0,1
34 155 m 0,62,63
 34 75.8965517241 34 75.8965517241 131.5 49 c 0,64,65
 334.974446868 -7.13088189467 334.974446868 -7.13088189467 535.5 84.5 c 0,66,67
 611 119 611 119 651 171 c 1,68,69
 451 306 451 306 288 306 c 0,70,71
 34 306 34 306 34 155 c 0,62,63
EndSplineSet
EndChar

StartChar: F
Encoding: 70 70 25
Width: 1420
Flags: HW
LayerCount: 2
Fore
SplineSet
1695 1423 m 1,0,-1
 1740 1382 l 1,1,2
 1659 1231 1659 1231 1462 1231 c 0,3,4
 1438 1231 1438 1231 1392 1235 c 1,5,6
 1274.90517821 1099.69042816 1274.90517821 1099.69042816 1246 827.5 c 0,7,8
 1240 771 1240 771 1239 719 c 1,9,-1
 1499 729 l 1,10,-1
 1429 643 l 1,11,-1
 1235 643 l 1,12,13
 1206.38414549 239.516451479 1206.38414549 239.516451479 854 60 c 0,14,15
 651.814814815 -43 651.814814815 -43 393 -43 c 0,16,17
 234.5 -43 234.5 -43 107.5 19 c 0,18,19
 44 50 44 50 5.5 104 c 128,-1,20
 -33 158 -33 158 -33 233 c 128,-1,21
 -33 308 -33 308 -2 367 c 128,-1,22
 29 426 29 426 76 458.5 c 128,-1,23
 123 491 123 491 194.5 510.5 c 0,24,25
 306.333333333 541 306.333333333 541 479 541 c 1,26,27
 366 689 366 689 366 848 c 0,28,29
 366 964 366 964 423 1074 c 128,-1,30
 480 1184 480 1184 573.5 1264.5 c 128,-1,31
 667 1345 667 1345 793.5 1393.5 c 128,-1,32
 920 1442 920 1442 1029.5 1442 c 128,-1,33
 1139 1442 1139 1442 1305.5 1399 c 128,-1,34
 1472 1356 1472 1356 1550 1356 c 128,-1,35
 1628 1356 1628 1356 1695 1423 c 1,0,-1
108.5 337 m 0,36,37
 86 290 86 290 86 232 c 128,-1,38
 86 174 86 174 118 132.5 c 128,-1,39
 150 91 150 91 200.5 68 c 0,40,41
 299.304347826 23 299.304347826 23 418.152173913 23 c 128,-1,42
 537 23 537 23 644 56.5 c 128,-1,43
 751 90 751 90 836.5 162 c 0,44,45
 1012.11619718 309.887323944 1012.11619718 309.887323944 1056 645 c 1,46,-1
 841 645 l 1,47,-1
 881 709 l 1,48,-1
 1063 719 l 1,49,50
 1076.72600186 846.455731594 1076.72600186 846.455731594 1112.86300093 930.227865797 c 128,-1,51
 1149 1014 1149 1014 1173.5 1060 c 128,-1,52
 1198 1106 1198 1106 1221.5 1139.5 c 0,53,54
 1262.45220588 1197.87867647 1262.45220588 1197.87867647 1306 1249 c 1,55,56
 1153 1313 1153 1313 1014.5 1313 c 128,-1,57
 876 1313 876 1313 780 1284 c 128,-1,58
 684 1255 684 1255 607 1199.5 c 128,-1,59
 530 1144 530 1144 485 1053 c 128,-1,60
 440 962 440 962 440 846 c 0,61,62
 440 732.25 440 732.25 475 668.5 c 0,63,64
 489 643 489 643 499 625 c 128,-1,65
 509 607 509 607 532.5 584.5 c 128,-1,66
 556 562 556 562 569.5 549 c 128,-1,67
 583 536 583 536 614.5 513 c 0,68,69
 654.543874828 483.761615205 654.543874828 483.761615205 687.771937414 461.880807602 c 128,-1,70
 721 440 721 440 723 438.5 c 128,-1,71
 725 437 725 437 727 436 c 1,72,-1
 698 399 l 1,73,74
 535 479 535 479 417 479 c 0,75,76
 176.478723404 479 176.478723404 479 108.5 337 c 0,36,37
EndSplineSet
EndChar

StartChar: P
Encoding: 80 80 26
Width: 1501
Flags: HW
LayerCount: 2
Fore
SplineSet
38.5 107.5 m 0,0,1
 -18 177 -18 177 -18 258 c 128,-1,2
 -18 339 -18 339 9.5 398 c 128,-1,3
 37 457 37 457 83 497 c 128,-1,4
 129 537 129 537 189 565 c 0,5,6
 300.102272727 616.847727273 300.102272727 616.847727273 440 619 c 1,7,8
 449 784 449 784 515.5 933.5 c 128,-1,9
 582 1083 582 1083 690 1195.5 c 128,-1,10
 798 1308 798 1308 953.5 1375 c 128,-1,11
 1109 1442 1109 1442 1285 1442 c 0,12,13
 1449.7875 1442 1449.7875 1442 1588.5 1361 c 0,14,15
 1657 1321 1657 1321 1699.5 1252.5 c 128,-1,16
 1742 1184 1742 1184 1742 1082 c 128,-1,17
 1742 980 1742 980 1691.5 873.5 c 128,-1,18
 1641 767 1641 767 1558 692.5 c 0,19,20
 1382.17327532 534.67962664 1382.17327532 534.67962664 1158 510 c 1,21,22
 1070 253 1070 253 864 111 c 128,-1,23
 658 -31 658 -31 373 -31 c 0,24,25
 151.09352518 -31 151.09352518 -31 38.5 107.5 c 0,0,1
91 370.5 m 128,-1,27
 51 318 51 318 51 257 c 128,-1,28
 51 196 51 196 84.5 151.5 c 128,-1,29
 118 107 118 107 170 82 c 0,30,31
 276.08 31 276.08 31 389 31 c 0,32,33
 570 31 570 31 719.5 145.5 c 128,-1,34
 869 260 869 260 945 436 c 0,35,36
 975 506 975 506 1009 651.5 c 128,-1,37
 1043 797 1043 797 1062 852 c 0,38,39
 1175 1190 1175 1190 1377 1319 c 1,40,41
 1364.28169014 1331.71830986 1364.28169014 1331.71830986 1314.14084507 1341.85915493 c 128,-1,42
 1264 1352 1264 1352 1203 1352 c 0,43,44
 1071 1352 1071 1352 942.5 1288 c 128,-1,45
 814 1224 814 1224 718 1122 c 128,-1,46
 622 1020 622 1020 563 885.5 c 128,-1,47
 504 751 504 751 504 617 c 1,48,49
 652 594 652 594 793 500 c 1,50,-1
 750 434 l 1,51,52
 615 511 615 511 513 511 c 1,53,54
 513 489 513 489 529 421 c 128,-1,55
 545 353 545 353 566 296 c 1,56,-1
 507 278 l 1,57,58
 483 316 483 316 465.5 392.5 c 128,-1,59
 448 469 448 469 443 511 c 1,60,61
 319.137931034 511 319.137931034 511 193 452 c 0,62,26
 131 423 131 423 91 370.5 c 128,-1,27
1451 1282 m 1,63,64
 1342 1170 1342 1170 1271.5 982.5 c 128,-1,65
 1201 795 1201 795 1172 569 c 1,66,67
 1250 569 1250 569 1327 614.5 c 128,-1,68
 1404 660 1404 660 1459 729.5 c 128,-1,69
 1514 799 1514 799 1548 883 c 128,-1,70
 1582 967 1582 967 1582 1019.5 c 128,-1,71
 1582 1072 1582 1072 1577 1102 c 128,-1,72
 1572 1132 1572 1132 1559.5 1168.5 c 0,73,74
 1531.68253968 1249.72698413 1531.68253968 1249.72698413 1451 1282 c 1,63,64
EndSplineSet
EndChar

StartChar: C
Encoding: 67 67 27
Width: 1214
Flags: HW
LayerCount: 2
Fore
SplineSet
1034 301 m 1,0,-1
 1082 256 l 1,1,2
 855 -39 855 -39 535 -39 c 0,3,4
 325.846153846 -39 325.846153846 -39 181.5 96 c 0,5,6
 112 161 112 161 71.5 262 c 128,-1,7
 31 363 31 363 31 493 c 128,-1,8
 31 623 31 623 80 763.5 c 128,-1,9
 129 904 129 904 216 1024 c 128,-1,10
 303 1144 303 1144 415 1238.5 c 128,-1,11
 527 1333 527 1333 662 1387.5 c 128,-1,12
 797 1442 797 1442 946 1442 c 128,-1,13
 1095 1442 1095 1442 1204 1347 c 128,-1,14
 1313 1252 1313 1252 1313 1081 c 0,15,16
 1313 980 1313 980 1266.5 868.5 c 128,-1,17
 1220 757 1220 757 1146.5 666.5 c 128,-1,18
 1073 576 1073 576 973 517 c 128,-1,19
 873 458 873 458 774 458 c 128,-1,20
 675 458 675 458 617 522 c 128,-1,21
 559 586 559 586 559 671 c 0,22,23
 559 817 559 817 680.5 953.5 c 128,-1,24
 802 1090 802 1090 993 1155 c 1,25,-1
 1016 1102 l 1,26,27
 920 1070 920 1070 835 995 c 128,-1,28
 750 920 750 920 702.5 834.5 c 128,-1,29
 655 749 655 749 655 685.5 c 0,30,31
 655 555 655 555 801 555 c 0,32,33
 903 555 903 555 1005.5 645 c 128,-1,34
 1108 735 1108 735 1169.5 856.5 c 128,-1,35
 1231 978 1231 978 1231 1090.5 c 128,-1,36
 1231 1203 1231 1203 1155 1274.5 c 128,-1,37
 1079 1346 1079 1346 953 1346 c 128,-1,38
 827 1346 827 1346 694 1270 c 128,-1,39
 561 1194 561 1194 458.5 1075 c 128,-1,40
 356 956 356 956 290.5 801.5 c 128,-1,41
 225 647 225 647 225 498 c 0,42,43
 225 256.515463918 225 256.515463918 385.5 144 c 0,44,45
 479.647058824 78 479.647058824 78 599.323529412 78 c 128,-1,46
 719 78 719 78 835 136.5 c 128,-1,47
 951 195 951 195 1034 301 c 1,0,-1
EndSplineSet
EndChar

StartChar: ampersand
Encoding: 38 38 28
Width: 1661
Flags: HW
LayerCount: 2
Fore
SplineSet
866 1245 m 0,0,1
 928.035714286 1245 928.035714286 1245 952 1184 c 1,2,3
 967 1214 967 1214 967 1247.5 c 128,-1,4
 967 1281 967 1281 947.5 1307 c 128,-1,5
 928 1333 928 1333 896.5 1346.5 c 0,6,7
 837 1372 837 1372 768 1372 c 0,8,9
 611 1372 611 1372 519.5 1279.5 c 128,-1,10
 428 1187 428 1187 428 1049 c 0,11,12
 428 982 428 982 445 928 c 1,13,14
 527 948 527 948 604 948 c 0,15,16
 801 948 801 948 801 819 c 0,17,18
 801 763 801 763 752 727.5 c 128,-1,19
 703 692 703 692 645 692 c 0,20,21
 538 692 538 692 400 784 c 1,22,23
 268 636 268 636 268 463 c 0,24,25
 268 337 268 337 338 230.5 c 128,-1,26
 408 124 408 124 524 63 c 128,-1,27
 640 2 640 2 774 2 c 0,28,29
 1019.85 2 1019.85 2 1180.5 155 c 0,30,31
 1297 265.952380952 1297 265.952380952 1297 438 c 0,32,33
 1297 531 1297 531 1225 600.5 c 128,-1,34
 1153 670 1153 670 1073 670 c 128,-1,35
 993 670 993 670 941 624.5 c 128,-1,36
 889 579 889 579 889 526 c 128,-1,37
 889 473 889 473 920 437.5 c 128,-1,38
 951 402 951 402 998 391 c 1,39,40
 975 422 975 422 975 460 c 128,-1,41
 975 498 975 498 998 524.5 c 128,-1,42
 1021 551 1021 551 1063 551 c 128,-1,43
 1105 551 1105 551 1130 523.5 c 128,-1,44
 1155 496 1155 496 1155 453 c 128,-1,45
 1155 410 1155 410 1117.5 375 c 128,-1,46
 1080 340 1080 340 1008 340 c 128,-1,47
 936 340 936 340 876.5 398 c 128,-1,48
 817 456 817 456 817 533 c 128,-1,49
 817 610 817 610 844 664 c 128,-1,50
 871 718 871 718 917 748.5 c 128,-1,51
 963 779 963 779 1023 799 c 128,-1,52
 1083 819 1083 819 1148.5 829 c 128,-1,53
 1214 839 1214 839 1280 848 c 128,-1,54
 1346 857 1346 857 1406 870 c 128,-1,55
 1466 883 1466 883 1512 903.5 c 0,56,57
 1612 948.065217391 1612 948.065217391 1612 1059 c 0,58,59
 1612 1142 1612 1142 1558.5 1193.5 c 128,-1,60
 1505 1245 1505 1245 1435.5 1245 c 128,-1,61
 1366 1245 1366 1245 1346 1194 c 1,62,63
 1450 1179.65517241 1450 1179.65517241 1450 1110 c 0,64,65
 1450 1070 1450 1070 1419.5 1042 c 128,-1,66
 1389 1014 1389 1014 1346.5 1014 c 128,-1,67
 1304 1014 1304 1014 1273.5 1051 c 128,-1,68
 1243 1088 1243 1088 1243 1130 c 0,69,70
 1243 1207 1243 1207 1299 1258 c 128,-1,71
 1355 1309 1355 1309 1434 1309 c 0,72,73
 1554 1309 1554 1309 1620 1225.5 c 128,-1,74
 1686 1142 1686 1142 1686 1022 c 0,75,76
 1686 826.539823009 1686 826.539823009 1513.5 738 c 0,77,78
 1418.05649718 689.011299435 1418.05649718 689.011299435 1268 659 c 1,79,80
 1315 600 1315 600 1339.5 548 c 128,-1,81
 1364 496 1364 496 1364 413.5 c 128,-1,82
 1364 331 1364 331 1327 245 c 128,-1,83
 1290 159 1290 159 1229 102.5 c 128,-1,84
 1168 46 1168 46 1088 7 c 0,85,86
 938.256410256 -66 938.256410256 -66 756 -66 c 0,87,88
 596.869565217 -66 596.869565217 -66 477.434782609 -32.5 c 128,-1,89
 358 1 358 1 288.5 42 c 128,-1,90
 219 83 219 83 163.5 138 c 0,91,92
 45 255.432432432 45 255.432432432 45 451 c 0,93,94
 45 658.071428571 45 658.071428571 222 814 c 0,95,96
 264 851 264 851 309 877 c 1,97,98
 289 906 289 906 271.5 957.5 c 128,-1,99
 254 1009 254 1009 254 1055 c 0,100,101
 254 1170 254 1170 324.5 1260 c 128,-1,102
 395 1350 395 1350 502 1396 c 128,-1,103
 609 1442 609 1442 729 1442 c 0,104,105
 837.52173913 1442 837.52173913 1442 913.260869565 1408.5 c 0,106,107
 1055 1345.80769231 1055 1345.80769231 1055 1225 c 0,108,109
 1055 1154 1055 1154 1014 1101.5 c 128,-1,110
 973 1049 973 1049 912.5 1049 c 128,-1,111
 852 1049 852 1049 818.5 1076 c 128,-1,112
 785 1103 785 1103 785 1153 c 0,113,114
 785 1245 785 1245 866 1245 c 0,0,1
467 848 m 1,115,116
 568.75 774 568.75 774 645.875 774 c 128,-1,117
 723 774 723 774 723 817 c 0,118,119
 723 872 723 872 632 872 c 0,120,121
 587 872 587 872 507 856 c 2,122,-1
 467 848 l 1,115,116
EndSplineSet
EndChar

StartChar: k
Encoding: 107 107 29
Width: 859
Flags: HW
LayerCount: 2
Fore
SplineSet
277 1081 m 0,0,1
 348 1234 348 1234 467 1327.5 c 128,-1,2
 586 1421 586 1421 720 1421 c 0,3,4
 799 1421 799 1421 856.5 1381 c 128,-1,5
 914 1341 914 1341 914 1260 c 0,6,7
 914 1213 914 1213 882.5 1187 c 128,-1,8
 851 1161 851 1161 808.5 1161 c 128,-1,9
 766 1161 766 1161 736.5 1185.5 c 128,-1,10
 707 1210 707 1210 707 1247 c 128,-1,11
 707 1284 707 1284 734 1325 c 1,12,13
 700 1341 700 1341 667.5 1341 c 128,-1,14
 635 1341 635 1341 594.5 1315 c 128,-1,15
 554 1289 554 1289 520.5 1246.5 c 0,16,17
 460.306537102 1170.13515901 460.306537102 1170.13515901 409.653268551 1060.06757951 c 128,-1,18
 359 950 359 950 250.5 529 c 128,-1,19
 142 108 142 108 142 0 c 1,20,-1
 -16 0 l 1,21,22
 -16 171 -16 171 80.5 517 c 128,-1,23
 177 863 177 863 277 1081 c 0,0,1
667.5 42 m 128,-1,25
 600 -16 600 -16 533.287878788 -16 c 128,-1,26
 466.575757576 -16 466.575757576 -16 432.787878788 41 c 128,-1,27
 399 98 399 98 371.5 144.5 c 128,-1,28
 344 191 344 191 327.5 218.5 c 128,-1,29
 311 246 311 246 297 269 c 128,-1,30
 283 292 283 292 276.5 303.5 c 128,-1,31
 270 315 270 315 264.5 324 c 0,32,33
 257.730769231 335.076923077 257.730769231 335.076923077 255 346 c 1,34,-1
 284.5 377.5 l 2,35,36
 567.793650794 680 567.793650794 680 730 680 c 0,37,38
 792.47826087 680 792.47826087 680 825.739130435 650 c 128,-1,39
 859 620 859 620 859 583 c 128,-1,40
 859 546 859 546 835.5 517.5 c 128,-1,41
 812 489 812 489 770 489 c 128,-1,42
 728 489 728 489 705.5 509 c 128,-1,43
 683 529 683 529 679 549 c 2,44,-1
 675 569 l 1,45,46
 522.02308627 486.392466586 522.02308627 486.392466586 404.5 385 c 0,47,48
 379 363 379 363 374 358 c 1,49,50
 402 338 402 338 574 121 c 0,51,52
 591 98 591 98 610.5 98 c 128,-1,53
 630 98 630 98 657 123 c 128,-1,54
 684 148 684 148 738 211 c 1,55,-1
 779 176 l 1,56,24
 735 100 735 100 667.5 42 c 128,-1,25
EndSplineSet
EndChar

StartChar: w
Encoding: 119 119 30
Width: 1057
Flags: HW
LayerCount: 2
Fore
SplineSet
627 436 m 1,0,-1
 621 252 l 1,1,2
 621 70 621 70 664 70 c 128,-1,3
 707 70 707 70 760.5 131.5 c 128,-1,4
 814 193 814 193 851.5 281 c 128,-1,5
 889 369 889 369 889 440 c 1,6,7
 879 432 879 432 842.5 432 c 128,-1,8
 806 432 806 432 782 455 c 128,-1,9
 758 478 758 478 758 513 c 128,-1,10
 758 548 758 548 784.5 576 c 128,-1,11
 811 604 811 604 864 604 c 128,-1,12
 917 604 917 604 950 570 c 128,-1,13
 983 536 983 536 983 476.5 c 128,-1,14
 983 417 983 417 957.5 334 c 128,-1,15
 932 251 932 251 888 172 c 128,-1,16
 844 93 844 93 773.5 38.5 c 128,-1,17
 703 -16 703 -16 623 -16 c 0,18,19
 552.37037037 -16 552.37037037 -16 522 66 c 0,20,21
 496.898648649 133.773648649 496.898648649 133.773648649 493.949324324 185.386824324 c 128,-1,22
 491 237 491 237 489 266 c 1,23,24
 352.136690647 55.6978417266 352.136690647 55.6978417266 255 6 c 0,25,26
 212 -16 212 -16 168 -16 c 0,27,28
 70 -16 70 -16 70 99 c 0,29,30
 70 164 70 164 107.5 275.5 c 128,-1,31
 145 387 145 387 145 418 c 128,-1,32
 145 449 145 449 127 449 c 0,33,34
 100 449 100 449 20 319 c 1,35,-1
 -45 356 l 1,36,37
 102 604 102 604 225 604 c 0,38,39
 258 604 258 604 282.5 579.5 c 128,-1,40
 307 555 307 555 307 499.5 c 128,-1,41
 307 444 307 444 267 295 c 128,-1,42
 227 146 227 146 227 137 c 0,43,44
 227 96 227 96 253 96 c 128,-1,45
 279 96 279 96 330.5 162 c 128,-1,46
 382 228 382 228 429.5 308 c 0,47,48
 555.375 520 555.375 520 598 520 c 0,49,50
 627 520 627 520 627 436 c 1,0,-1
EndSplineSet
EndChar

StartChar: y
Encoding: 121 121 31
Width: 799
Flags: HW
LayerCount: 2
Fore
SplineSet
47 346 m 1,0,-1
 -18 385 l 1,1,2
 32 472 32 472 106.5 538 c 128,-1,3
 181 604 181 604 240 604 c 0,4,5
 336 604 336 604 336 518 c 0,6,7
 336 482 336 482 286.5 343 c 128,-1,8
 237 204 237 204 237 167 c 128,-1,9
 237 130 237 130 242 119.5 c 128,-1,10
 247 109 247 109 264 109 c 0,11,12
 355 109 355 109 451.5 177.5 c 128,-1,13
 548 246 548 246 577 329 c 2,14,-1
 647 533 l 2,15,16
 658 564 658 564 681 582 c 128,-1,17
 704 600 704 600 725.5 600 c 128,-1,18
 747 600 747 600 760.5 586 c 128,-1,19
 774 572 774 572 774 549.25 c 128,-1,20
 774 526.5 774 526.5 765 501 c 2,21,-1
 689 279 l 1,22,23
 626 83 626 83 494 -107 c 1,24,25
 609 -119 609 -119 699 -148 c 1,26,-1
 691 -204 l 1,27,28
 553 -176 553 -176 447 -171 c 1,29,30
 350 -296 350 -296 248.5 -370.5 c 128,-1,31
 147 -445 147 -445 71.5 -445 c 128,-1,32
 -4 -445 -4 -445 -41.5 -414.5 c 128,-1,33
 -79 -384 -79 -384 -79 -331 c 128,-1,34
 -79 -278 -79 -278 -39 -234.5 c 128,-1,35
 1 -191 1 -191 68.5 -163.5 c 0,36,37
 204.30548926 -108.171837709 204.30548926 -108.171837709 380 -100 c 1,38,39
 394 -84 394 -84 447 12.5 c 128,-1,40
 500 109 500 109 504 134 c 1,41,42
 327 -16 327 -16 192 -16 c 0,43,44
 137 -16 137 -16 112 21.5 c 128,-1,45
 87 59 87 59 87 114 c 128,-1,46
 87 169 87 169 128.5 302.5 c 128,-1,47
 170 436 170 436 170 454.5 c 128,-1,48
 170 473 170 473 161.5 473 c 128,-1,49
 153 473 153 473 143 468.5 c 128,-1,50
 133 464 133 464 123.5 454.5 c 128,-1,51
 114 445 114 445 106 436.5 c 128,-1,52
 98 428 98 428 88.5 413 c 128,-1,53
 79 398 79 398 73.5 389.5 c 0,54,55
 52.6 357.2 52.6 357.2 47 346 c 1,0,-1
336 -171 m 1,56,57
 254.736080178 -175.643652561 254.736080178 -175.643652561 170.868040089 -199.821826281 c 0,58,59
 9 -246.486486486 9 -246.486486486 9 -308 c 0,60,61
 9 -345 9 -345 55 -345 c 128,-1,62
 101 -345 101 -345 205 -278.5 c 128,-1,63
 309 -212 309 -212 336 -171 c 1,56,57
EndSplineSet
EndChar

StartChar: u
Encoding: 117 117 32
Width: 896
Flags: HW
LayerCount: 2
Fore
SplineSet
790 582 m 1,0,1
 656 224.666666667 656 224.666666667 656 149 c 0,2,3
 656 117 656 117 672 117 c 0,4,5
 716 117 716 117 800 245 c 1,6,-1
 843 204 l 1,7,8
 790 109 790 109 717.5 46.5 c 128,-1,9
 645 -16 645 -16 600.5 -16 c 0,10,11
 507 -16 507 -16 507 78 c 0,12,13
 507 151 507 151 541 256 c 128,-1,14
 575 361 575 361 575 362 c 1,15,16
 570 353 570 353 551 320.5 c 128,-1,17
 532 288 532 288 523 272 c 128,-1,18
 514 256 514 256 493.5 223.5 c 128,-1,19
 473 191 473 191 459.5 172.5 c 128,-1,20
 446 154 446 154 423.5 125 c 128,-1,21
 401 96 401 96 383.5 79 c 128,-1,22
 366 62 366 62 342 41.5 c 128,-1,23
 318 21 318 21 296.5 10 c 0,24,25
 245.681818182 -16 245.681818182 -16 198 -16 c 0,26,27
 79 -16 79 -16 79 115 c 0,28,29
 79 175 79 175 122 301.5 c 128,-1,30
 165 428 165 428 165 450.5 c 128,-1,31
 165 473 165 473 151 473 c 0,32,33
 111 473 111 473 40 346 c 1,34,-1
 -25 385 l 1,35,36
 112 604 112 604 239 604 c 0,37,38
 281 604 281 604 306 580.5 c 128,-1,39
 331 557 331 557 329.5 508.5 c 128,-1,40
 328 460 328 460 280.5 335.5 c 128,-1,41
 233 211 233 211 233 145 c 0,42,43
 233 109 233 109 266 109 c 0,44,45
 304 109 304 109 356.5 157.5 c 128,-1,46
 409 206 409 206 458 275.5 c 0,47,48
 535.699623858 385.70660935 535.699623858 385.70660935 619.5 533.5 c 2,49,-1
 647 582 l 1,50,-1
 790 582 l 1,0,1
EndSplineSet
EndChar

StartChar: R
Encoding: 82 82 33
Width: 1831
Flags: HW
LayerCount: 2
Fore
SplineSet
1752 213 m 1,0,-1
 1815 182 l 1,1,2
 1784.83193277 103.56302521 1784.83193277 103.56302521 1740.41596639 56.281512605 c 0,3,4
 1660.3030303 -29 1660.3030303 -29 1559 -29 c 0,5,6
 1465.65346535 -29 1465.65346535 -29 1396.5 85.5 c 0,7,8
 1342.25632911 175.313291139 1342.25632911 175.313291139 1306.12816456 278.65664557 c 128,-1,9
 1270 382 1270 382 1250 432.5 c 0,10,11
 1204.65346535 547 1204.65346535 547 1162 547 c 1,12,13
 1066 255 1066 255 877.5 110.5 c 128,-1,14
 689 -34 689 -34 423 -34 c 0,15,16
 263.405797101 -34 263.405797101 -34 137.5 35.5 c 0,17,18
 75 70 75 70 37 128.5 c 128,-1,19
 -1 187 -1 187 -1 267 c 128,-1,20
 -1 347 -1 347 40 417 c 128,-1,21
 81 487 81 487 147.5 530.5 c 0,22,23
 285.850574713 621 285.850574713 621 459 621 c 1,24,25
 465.173057147 886.441457323 465.173057147 886.441457323 637.5 1100 c 0,26,27
 813.423763125 1318.01595185 813.423763125 1318.01595185 1055 1399.5 c 0,28,29
 1181 1442 1181 1442 1286 1442 c 128,-1,30
 1391 1442 1391 1442 1467 1421.5 c 128,-1,31
 1543 1401 1543 1401 1608 1361 c 128,-1,32
 1673 1321 1673 1321 1712.5 1252 c 128,-1,33
 1752 1183 1752 1183 1752 1094.5 c 128,-1,34
 1752 1006 1752 1006 1718.5 924.5 c 128,-1,35
 1685 843 1685 843 1625 778 c 0,36,37
 1512.74193548 656.387096774 1512.74193548 656.387096774 1340 569 c 1,38,39
 1407.70833333 513.444444444 1407.70833333 513.444444444 1488.5 298 c 0,40,41
 1517 222 1517 222 1556 162 c 128,-1,42
 1595 102 1595 102 1635 102 c 0,43,44
 1674.37777778 102 1674.37777778 102 1699.68888889 135.5 c 0,45,46
 1732.62068966 179.086206897 1732.62068966 179.086206897 1752 213 c 1,0,-1
572 313 m 1,47,-1
 511 299 l 1,48,49
 487.269230769 346.461538462 487.269230769 346.461538462 466 468 c 2,50,-1
 459 508 l 1,51,52
 293.358490566 508 293.358490566 508 164.5 429.5 c 0,53,54
 121 403 121 403 92.5 360 c 128,-1,55
 64 317 64 317 64 261 c 128,-1,56
 64 205 64 205 95 158.5 c 128,-1,57
 126 112 126 112 177.5 85.5 c 0,58,59
 279.528301887 33 279.528301887 33 405 33 c 0,60,61
 619 33 619 33 749 147 c 128,-1,62
 879 261 879 261 951 473 c 0,63,64
 966 517 966 517 990.5 593.5 c 128,-1,65
 1015 670 1015 670 1030 715.5 c 128,-1,66
 1045 761 1045 761 1071 829.5 c 128,-1,67
 1097 898 1097 898 1119 944 c 128,-1,68
 1141 990 1141 990 1175.5 1048 c 128,-1,69
 1210 1106 1210 1106 1247 1149.5 c 0,70,71
 1335.56826722 1253.62755741 1335.56826722 1253.62755741 1443 1321 c 1,72,73
 1419.22683706 1334.58466454 1419.22683706 1334.58466454 1355.11341853 1346.29233227 c 128,-1,74
 1291 1358 1291 1358 1221 1358 c 0,75,76
 1102 1358 1102 1358 975.5 1294 c 128,-1,77
 849 1230 849 1230 749 1128 c 128,-1,78
 649 1026 649 1026 583.5 889 c 128,-1,79
 518 752 518 752 517 616 c 1,80,81
 737 585 737 585 863 424 c 1,82,-1
 830 389 l 1,83,84
 824 392 824 392 797 410.5 c 128,-1,85
 770 429 770 429 744.5 443 c 128,-1,86
 719 457 719 457 683 474 c 0,87,88
 606.764705882 510 606.764705882 510 517 510 c 1,89,90
 521.619246862 445.330543933 521.619246862 445.330543933 546.309623431 380.665271967 c 128,-1,91
 571 316 571 316 572 313 c 1,47,-1
1166 567 m 1,92,93
 1345 623 1345 623 1462.5 754 c 128,-1,94
 1580 885 1580 885 1580 1063 c 0,95,96
 1580 1124 1580 1124 1556 1186.5 c 128,-1,97
 1532 1249 1532 1249 1490 1284 c 1,98,99
 1378.98876404 1205.01123596 1378.98876404 1205.01123596 1325 1104 c 0,100,101
 1294 1046 1294 1046 1275 1006.5 c 128,-1,102
 1256 967 1256 967 1235.5 887.5 c 0,103,104
 1210.54680114 790.730277572 1210.54680114 790.730277572 1190.77340057 691.365138786 c 128,-1,105
 1171 592 1171 592 1166 567 c 1,92,93
EndSplineSet
EndChar

StartChar: M
Encoding: 77 77 34
Width: 2225
Flags: HW
LayerCount: 2
Fore
SplineSet
2120 283 m 1,0,-1
 2171 240 l 1,1,2
 2125 125 2125 125 2049 51 c 128,-1,3
 1973 -23 1973 -23 1897 -23 c 128,-1,4
 1821 -23 1821 -23 1788.5 26 c 128,-1,5
 1756 75 1756 75 1756 150 c 128,-1,6
 1756 225 1756 225 1802.5 391 c 128,-1,7
 1849 557 1849 557 1904.5 709.5 c 0,8,9
 2053 1117.54054054 2053 1117.54054054 2053 1234 c 0,10,11
 2053 1301 2053 1301 2010 1301 c 0,12,13
 1838.6097561 1301 1838.6097561 1301 1583.5 750.5 c 0,14,15
 1480.52797203 528.297202797 1480.52797203 528.297202797 1422.26398601 377.148601399 c 0,16,17
 1300.30769231 60.7692307692 1300.30769231 60.7692307692 1276 0 c 1,18,-1
 1053 0 l 1,19,-1
 1145 240 l 1,20,21
 1308.87537313 657.137313433 1308.87537313 657.137313433 1386.5 1015 c 0,22,23
 1416 1151 1416 1151 1416 1233 c 0,24,25
 1416 1358 1416 1358 1350 1358 c 128,-1,26
 1284 1358 1284 1358 1201 1257.5 c 128,-1,27
 1118 1157 1118 1157 1042 1006 c 128,-1,28
 966 855 966 855 890 679 c 128,-1,29
 814 503 814 503 758.5 352 c 0,30,31
 629.122516556 8.52651282912e-14 629.122516556 8.52651282912e-14 625 0 c 2,32,-1
 429 0 l 1,33,-1
 541 313 l 1,34,35
 691.332385413 700.025928404 691.332385413 700.025928404 724.5 921.5 c 0,36,37
 740 1025 740 1025 740 1132 c 128,-1,38
 740 1239 740 1239 685 1311.5 c 128,-1,39
 630 1384 630 1384 534 1384 c 128,-1,40
 438 1384 438 1384 368.5 1343.5 c 128,-1,41
 299 1303 299 1303 254 1241 c 128,-1,42
 209 1179 209 1179 177.5 1102 c 0,43,44
 119 959 119 959 119 823 c 0,45,46
 119 532 119 532 252 311 c 1,47,-1
 209 279 l 1,48,49
 137 394 137 394 99.5 537.5 c 128,-1,50
 62 681 62 681 62 788 c 128,-1,51
 62 895 62 895 78 977.5 c 128,-1,52
 94 1060 94 1060 131 1144 c 128,-1,53
 168 1228 168 1228 222.5 1293.5 c 128,-1,54
 277 1359 277 1359 362.5 1400.5 c 128,-1,55
 448 1442 448 1442 542 1442 c 128,-1,56
 636 1442 636 1442 700.5 1406 c 128,-1,57
 765 1370 765 1370 802 1309 c 0,58,59
 875 1188.64864865 875 1188.64864865 875 1017.82432432 c 128,-1,60
 875 847 875 847 768 520 c 1,61,62
 805 618 805 618 822.5 657 c 128,-1,63
 840 696 840 696 864.5 753 c 128,-1,64
 889 810 889 810 903 842.5 c 128,-1,65
 917 875 917 875 946 937.5 c 128,-1,66
 975 1000 975 1000 996.5 1040.5 c 128,-1,67
 1018 1081 1018 1081 1051.5 1139.5 c 128,-1,68
 1085 1198 1085 1198 1113 1236 c 128,-1,69
 1141 1274 1141 1274 1177.5 1316.5 c 128,-1,70
 1214 1359 1214 1359 1247.5 1384 c 0,71,72
 1325.22 1442 1325.22 1442 1397 1442 c 0,73,74
 1567 1442 1567 1442 1567 1214 c 0,75,76
 1567 1070 1567 1070 1510 857 c 0,77,78
 1491 786 1491 786 1457.5 673.5 c 128,-1,79
 1424 561 1424 561 1420 545 c 1,80,81
 1463.78723404 626.319148936 1463.78723404 626.319148936 1534.89361702 798.159574468 c 128,-1,82
 1606 970 1606 970 1660 1069 c 128,-1,83
 1714 1168 1714 1168 1768 1238 c 128,-1,84
 1822 1308 1822 1308 1897.5 1355 c 128,-1,85
 1973 1402 1973 1402 2047.5 1402 c 128,-1,86
 2122 1402 2122 1402 2165.5 1354 c 128,-1,87
 2209 1306 2209 1306 2209 1226 c 128,-1,88
 2209 1146 2209 1146 2181 1031.5 c 128,-1,89
 2153 917 2153 917 2112 804 c 128,-1,90
 2071 691 2071 691 2029.5 579 c 0,91,92
 1929.25045887 308.447021525 1929.25045887 308.447021525 1922 158 c 1,93,94
 1922 94 1922 94 1955.5 94 c 128,-1,95
 1989 94 1989 94 2035 152 c 128,-1,96
 2081 210 2081 210 2120 283 c 1,0,-1
EndSplineSet
EndChar

StartChar: T
Encoding: 84 84 35
Width: 1386
Flags: HW
LayerCount: 2
Fore
SplineSet
700 406 m 1,0,1
 553 483 553 483 420 483 c 128,-1,2
 287 483 287 483 204 414.5 c 128,-1,3
 121 346 121 346 121 254 c 128,-1,4
 121 162 121 162 202.5 96.5 c 128,-1,5
 284 31 284 31 416.5 31 c 128,-1,6
 549 31 549 31 640.5 62 c 128,-1,7
 732 93 732 93 792.5 148.5 c 128,-1,8
 853 204 853 204 897.5 277 c 128,-1,9
 942 350 942 350 971.5 437 c 128,-1,10
 1001 524 1001 524 1025 614.5 c 128,-1,11
 1049 705 1049 705 1074.5 799.5 c 128,-1,12
 1100 894 1100 894 1129 978 c 0,13,14
 1194.16639209 1166.75782537 1194.16639209 1166.75782537 1315 1272 c 1,15,16
 1123 1321 1123 1321 911 1321 c 0,17,18
 791 1321 791 1321 685 1255.5 c 128,-1,19
 579 1190 579 1190 515.5 1079 c 128,-1,20
 452 968 452 968 452 834 c 128,-1,21
 452 700 452 700 527.5 608 c 128,-1,22
 603 516 603 516 743 446 c 1,23,-1
 729 395 l 1,24,-1
 700 406 l 1,0,1
12 122.5 m 128,-1,26
 -33 180 -33 180 -33 254.5 c 128,-1,27
 -33 329 -33 329 4 388 c 128,-1,28
 41 447 41 447 100.5 481 c 0,29,30
 223 551 223 551 368 551 c 0,31,32
 443 551 443 551 506 530 c 1,33,34
 370 701 370 701 370 844 c 0,35,36
 370 1051.17910448 370 1051.17910448 515 1207 c 0,37,38
 655.519026025 1358.0055205 655.519026025 1358.0055205 848.5 1414 c 0,39,40
 945 1442 945 1442 1038 1442 c 128,-1,41
 1131 1442 1131 1442 1307 1402 c 128,-1,42
 1483 1362 1483 1362 1540 1362 c 128,-1,43
 1597 1362 1597 1362 1620.5 1375 c 0,44,45
 1650.78350515 1391.75257732 1650.78350515 1391.75257732 1693 1440 c 1,46,-1
 1769 1440 l 1,47,48
 1756 1386 1756 1386 1716 1347 c 128,-1,49
 1676 1308 1676 1308 1623.5 1290 c 0,50,51
 1527.25 1257 1527.25 1257 1440 1257 c 0,52,53
 1315.49538177 1257 1315.49538177 1257 1272.10812833 957.295615235 c 0,54,55
 1260.67027896 877.841050925 1260.67027896 877.841050925 1249.83513948 731.920525462 c 128,-1,56
 1239 586 1239 586 1199.5 473 c 128,-1,57
 1160 360 1160 360 1098.5 280 c 128,-1,58
 1037 200 1037 200 959.5 139.5 c 128,-1,59
 882 79 882 79 791 43 c 0,60,61
 614.055555556 -27 614.055555556 -27 416 -27 c 0,62,63
 266.225806452 -27 266.225806452 -27 127.5 34 c 0,64,25
 57 65 57 65 12 122.5 c 128,-1,26
EndSplineSet
EndChar

StartChar: A
Encoding: 65 65 36
Width: 1786
Flags: HW
LayerCount: 2
Fore
SplineSet
1110 20 m 1,0,-1
 1139 70 l 1,1,2
 1179 47 1179 47 1220 47 c 0,3,4
 1299 47 1299 47 1364 132 c 128,-1,5
 1429 217 1429 217 1473 358 c 1,6,-1
 817 358 l 1,7,-1
 735 236 l 2,8,9
 644 101 644 101 527 39 c 128,-1,10
 410 -23 410 -23 266 -23 c 128,-1,11
 122 -23 122 -23 55.5 32 c 128,-1,12
 -11 87 -11 87 -11 148.5 c 128,-1,13
 -11 210 -11 210 25.5 247.5 c 128,-1,14
 62 285 62 285 116.5 285 c 128,-1,15
 171 285 171 285 197 250.5 c 128,-1,16
 223 216 223 216 223 158.5 c 128,-1,17
 223 101 223 101 169 72 c 1,18,19
 172.43373494 61.6987951807 172.43373494 61.6987951807 191.71686747 52.3493975904 c 128,-1,20
 211 43 211 43 245.5 43 c 128,-1,21
 280 43 280 43 312 51.5 c 128,-1,22
 344 60 344 60 386 89 c 128,-1,23
 428 118 428 118 473.5 175.5 c 0,24,25
 572.57029703 300.698727016 572.57029703 300.698727016 720.785148515 557.349363508 c 128,-1,26
 869 814 869 814 1009.5 984.5 c 128,-1,27
 1150 1155 1150 1155 1345 1290 c 1,28,29
 1287 1328 1287 1328 1203 1351 c 128,-1,30
 1119 1374 1119 1374 1014.5 1374 c 128,-1,31
 910 1374 910 1374 796.5 1336.5 c 128,-1,32
 683 1299 683 1299 604.5 1235 c 128,-1,33
 526 1171 526 1171 471.5 1084 c 0,34,35
 367 917.183486239 367 917.183486239 367 694 c 0,36,37
 367 541 367 541 419 393 c 1,38,-1
 354 362 l 1,39,40
 242 543 242 543 242 746 c 0,41,42
 242 883 242 883 296 1008 c 128,-1,43
 350 1133 350 1133 447.5 1230 c 128,-1,44
 545 1327 545 1327 695 1384.5 c 128,-1,45
 845 1442 845 1442 1024 1442 c 0,46,47
 1154 1442 1154 1442 1210 1424.5 c 2,48,-1
 1282 1402 l 2,49,50
 1318.17391304 1390.69565217 1318.17391304 1390.69565217 1367.08695652 1361.34782609 c 128,-1,51
 1416 1332 1416 1332 1417 1331 c 1,52,53
 1513 1376 1513 1376 1582 1389.5 c 128,-1,54
 1651 1403 1651 1403 1742 1403 c 1,55,-1
 1767 1356 l 1,56,57
 1608.35555556 1356 1608.35555556 1356 1480 1280 c 1,58,59
 1599 1176 1599 1176 1657 1014 c 128,-1,60
 1715 852 1715 852 1715 658.5 c 128,-1,61
 1715 465 1715 465 1660 290.5 c 128,-1,62
 1605 116 1605 116 1513.5 14 c 128,-1,63
 1422 -88 1422 -88 1315 -88 c 128,-1,64
 1208 -88 1208 -88 1110 20 c 1,0,-1
1417 1234 m 1,65,66
 1249.3928382 1108.7994695 1249.3928382 1108.7994695 1142 943 c 0,67,68
 1049.24563902 799.800284799 1049.24563902 799.800284799 969.622819509 643.900142399 c 128,-1,69
 890 488 890 488 853 422 c 1,70,-1
 1491 422 l 1,71,72
 1538 610 1538 610 1538 796 c 0,73,74
 1538 1104 1538 1104 1417 1234 c 1,65,66
EndSplineSet
EndChar

StartChar: K
Encoding: 75 75 37
Width: 1793
Flags: HW
LayerCount: 2
Fore
SplineSet
1684 213 m 1,0,-1
 1733 170 l 1,1,2
 1698.33926129 26.024623803 1698.33926129 26.024623803 1575 -8 c 0,3,4
 1546 -16 1546 -16 1518 -16 c 0,5,6
 1441 -16 1441 -16 1391.5 22.5 c 128,-1,7
 1342 61 1342 61 1320 124 c 128,-1,8
 1298 187 1298 187 1286.5 252.5 c 128,-1,9
 1275 318 1275 318 1261 387.5 c 128,-1,10
 1247 457 1247 457 1225 492 c 1,11,12
 1179 475 1179 475 1141.5 475 c 128,-1,13
 1104 475 1104 475 1063 498 c 1,14,15
 991 359 991 359 896 254.5 c 128,-1,16
 801 150 801 150 701.5 91.5 c 0,17,18
 506.752136752 -23 506.752136752 -23 326 -23 c 0,19,20
 209 -23 209 -23 131 19.5 c 128,-1,21
 53 62 53 62 53 117.5 c 128,-1,22
 53 173 53 173 84.5 201 c 128,-1,23
 116 229 116 229 155 229 c 128,-1,24
 194 229 194 229 219 207.5 c 128,-1,25
 244 186 244 186 244 148 c 128,-1,26
 244 110 244 110 213 80 c 1,27,28
 274 49 274 49 348 49 c 0,29,30
 468 49 468 49 588.5 141.5 c 128,-1,31
 709 234 709 234 795.5 372 c 128,-1,32
 882 510 882 510 936.5 672.5 c 128,-1,33
 991 835 991 835 991 944.5 c 128,-1,34
 991 1054 991 1054 975.5 1123.5 c 128,-1,35
 960 1193 960 1193 928.5 1249.5 c 0,36,37
 861.318584071 1370 861.318584071 1370 719 1370 c 0,38,39
 615 1370 615 1370 515 1323.5 c 128,-1,40
 415 1277 415 1277 340 1200.5 c 128,-1,41
 265 1124 265 1124 219.5 1017.5 c 128,-1,42
 174 911 174 911 174 797 c 0,43,44
 174 694.5 174 694.5 207 625.75 c 128,-1,45
 240 557 240 557 277 520 c 0,46,47
 363 434 363 434 516 434 c 0,48,49
 532 434 532 434 574 438 c 1,50,-1
 594 391 l 1,51,52
 567 387 567 387 492 387 c 128,-1,53
 417 387 417 387 337.5 417.5 c 128,-1,54
 258 448 258 448 208.5 495.5 c 128,-1,55
 159 543 159 543 126 605.5 c 0,56,57
 66 719.136363636 66 719.136363636 66 842.068181818 c 128,-1,58
 66 965 66 965 113 1074.5 c 128,-1,59
 160 1184 160 1184 243.5 1265 c 128,-1,60
 327 1346 327 1346 450.5 1394 c 128,-1,61
 574 1442 574 1442 707 1442 c 128,-1,62
 840 1442 840 1442 930.5 1403.5 c 128,-1,63
 1021 1365 1021 1365 1073.5 1296.5 c 0,64,65
 1176 1162.76190476 1176 1162.76190476 1176 954 c 0,66,67
 1176 807 1176 807 1124 645 c 1,68,69
 1177 645 1177 645 1205.5 637 c 128,-1,70
 1234 629 1234 629 1268 604 c 1,71,72
 1344.77477477 662.495066495 1344.77477477 662.495066495 1395 833.5 c 0,73,74
 1416 905 1416 905 1439 985 c 128,-1,75
 1462 1065 1462 1065 1493 1137 c 128,-1,76
 1524 1209 1524 1209 1567.5 1268 c 0,77,78
 1662.61016949 1397 1662.61016949 1397 1847 1397 c 0,79,80
 1895 1397 1895 1397 1939 1376 c 128,-1,81
 1983 1355 1983 1355 1983 1314 c 128,-1,82
 1983 1273 1983 1273 1956 1239.5 c 128,-1,83
 1929 1206 1929 1206 1895 1206 c 1,84,85
 1862 1227 1862 1227 1803.5 1227 c 128,-1,86
 1745 1227 1745 1227 1706 1200 c 128,-1,87
 1667 1173 1667 1173 1647 1126 c 128,-1,88
 1627 1079 1627 1079 1614 1020.5 c 128,-1,89
 1601 962 1601 962 1583.5 894.5 c 128,-1,90
 1566 827 1566 827 1540 764 c 128,-1,91
 1514 701 1514 701 1459.5 640 c 128,-1,92
 1405 579 1405 579 1327 537 c 1,93,94
 1377 487 1377 487 1429 398 c 128,-1,95
 1481 309 1481 309 1507.5 212 c 128,-1,96
 1534 115 1534 115 1579 115 c 0,97,98
 1600.51851852 115 1600.51851852 115 1684 213 c 1,0,-1
1112 594 m 1,99,-1
 1094 555 l 1,100,101
 1131 535 1131 535 1152 535 c 128,-1,102
 1173 535 1173 535 1200 545 c 1,103,104
 1175.5 594 1175.5 594 1112 594 c 1,99,-1
EndSplineSet
EndChar

StartChar: D
Encoding: 68 68 38
Width: 1618
Flags: HW
LayerCount: 2
Fore
SplineSet
288 391 m 1,0,-1
 219 361 l 1,1,2
 110 572 110 572 110 768 c 0,3,4
 110 1010.84137931 110 1010.84137931 265.5 1183.5 c 0,5,6
 416.856376135 1351.55776936 416.856376135 1351.55776936 641.5 1412 c 0,7,8
 753 1442 753 1442 875 1442 c 128,-1,9
 997 1442 997 1442 1097 1417 c 128,-1,10
 1197 1392 1197 1392 1283 1321 c 1,11,12
 1376 1397 1376 1397 1545 1397 c 1,13,-1
 1565 1335 l 1,14,15
 1403.65384615 1302.73076923 1403.65384615 1302.73076923 1350 1261 c 1,16,17
 1455 1164 1455 1164 1509 1007.5 c 128,-1,18
 1563 851 1563 851 1563 705.5 c 128,-1,19
 1563 560 1563 560 1546 462 c 128,-1,20
 1529 364 1529 364 1490.5 277.5 c 128,-1,21
 1452 191 1452 191 1394.5 129.5 c 0,22,23
 1270.61788618 -3 1270.61788618 -3 1075.80894309 -3 c 128,-1,24
 881 -3 881 -3 656 94 c 1,25,26
 603 54 603 54 505.5 22 c 128,-1,27
 408 -10 408 -10 323 -10 c 0,28,29
 152 -10 152 -10 152 123 c 0,30,31
 152 201 152 201 239 253.5 c 128,-1,32
 326 306 326 306 456.5 306 c 128,-1,33
 587 306 587 306 714 244 c 1,34,35
 825.903409091 388.613636364 825.903409091 388.613636364 890.5 647 c 0,36,37
 916 749 916 749 948 854.5 c 0,38,39
 1021.68910679 1097.44377396 1021.68910679 1097.44377396 1217 1270 c 1,40,41
 1164 1319 1164 1319 1077.5 1345.5 c 128,-1,42
 991 1372 991 1372 909 1372 c 0,43,44
 718 1372 718 1372 566.5 1297.5 c 128,-1,45
 415 1223 415 1223 324 1073 c 128,-1,46
 233 923 233 923 233 720 c 0,47,48
 233 573 233 573 288 391 c 1,0,-1
1401.5 982 m 128,-1,50
 1357 1116 1357 1116 1287 1188 c 1,51,52
 1226.64766839 1095.58549223 1226.64766839 1095.58549223 1188.5 911 c 0,53,54
 1121.24796524 585.586928585 1121.24796524 585.586928585 963 383.5 c 0,55,56
 889 289 889 289 788 210 c 1,57,58
 981 110 981 110 1117 110 c 0,59,60
 1254.66666667 110 1254.66666667 110 1327 203 c 0,61,62
 1400.53185956 297.540962289 1400.53185956 297.540962289 1423.5 428 c 0,63,64
 1446 555.8 1446 555.8 1446 701.9 c 128,-1,49
 1446 848 1446 848 1401.5 982 c 128,-1,50
589 141 m 1,65,66
 451.681818182 198 451.681818182 198 333.340909091 198 c 128,-1,67
 215 198 215 198 215 125 c 0,68,69
 215 63 215 63 325 63 c 0,70,71
 387 63 387 63 460.5 84.5 c 128,-1,72
 534 106 534 106 589 141 c 1,65,66
EndSplineSet
EndChar

StartChar: comma
Encoding: 44 44 39
Width: 403
Flags: HW
LayerCount: 2
Fore
SplineSet
77 -229 m 1,0,-1
 45 -229 l 1,1,2
 100 0 100 0 114 92 c 1,3,-1
 284 147 l 1,4,5
 284 100 284 100 205 -38 c 128,-1,6
 126 -176 126 -176 77 -229 c 1,0,-1
EndSplineSet
EndChar

StartChar: O
Encoding: 79 79 40
Width: 1442
Flags: HW
LayerCount: 2
Fore
SplineSet
429.5 613.5 m 128,-1,1
 362 697 362 697 362 816 c 128,-1,2
 362 935 362 935 412.5 1048.5 c 128,-1,3
 463 1162 463 1162 545 1248.5 c 128,-1,4
 627 1335 627 1335 739 1388.5 c 128,-1,5
 851 1442 851 1442 962 1442 c 128,-1,6
 1073 1442 1073 1442 1167 1408.5 c 128,-1,7
 1261 1375 1261 1375 1333.5 1313 c 128,-1,8
 1406 1251 1406 1251 1449 1155.5 c 128,-1,9
 1492 1060 1492 1060 1492 930 c 128,-1,10
 1492 800 1492 800 1445.5 657.5 c 128,-1,11
 1399 515 1399 515 1312.5 393.5 c 128,-1,12
 1226 272 1226 272 1111 178 c 128,-1,13
 996 84 996 84 849 30.5 c 128,-1,14
 702 -23 702 -23 546 -23 c 0,15,16
 294 -23 294 -23 157 106.5 c 128,-1,17
 20 236 20 236 20 475 c 0,18,19
 20 738.21656051 20 738.21656051 176.5 962.5 c 0,20,21
 255 1075 255 1075 362 1148 c 1,22,-1
 392 1111 l 1,23,24
 304 1005 304 1005 253 846 c 128,-1,25
 202 687 202 687 202 557.5 c 128,-1,26
 202 428 202 428 224.5 341.5 c 128,-1,27
 247 255 247 255 292.5 185.5 c 0,28,29
 389.71942446 37 389.71942446 37 587 37 c 0,30,31
 868.011235955 37 868.011235955 37 1077 337 c 0,32,33
 1195.16651625 506.626128159 1195.16651625 506.626128159 1244 728.5 c 0,34,35
 1267 833 1267 833 1267 928 c 128,-1,36
 1267 1023 1267 1023 1247.5 1100.5 c 128,-1,37
 1228 1178 1228 1178 1188.5 1239 c 0,38,39
 1104.96721311 1368 1104.96721311 1368 929 1368 c 0,40,41
 797 1368 797 1368 688 1286 c 128,-1,42
 579 1204 579 1204 520.5 1077.5 c 128,-1,43
 462 951 462 951 462 827 c 128,-1,44
 462 703 462 703 504 649.5 c 128,-1,45
 546 596 546 596 613.5 596 c 128,-1,46
 681 596 681 596 750.5 639.5 c 128,-1,47
 820 683 820 683 869 759 c 128,-1,48
 918 835 918 835 921 918 c 1,49,-1
 1017 934 l 1,50,51
 1017 830 1017 830 962.5 736.5 c 128,-1,52
 908 643 908 643 815.5 586.5 c 128,-1,53
 723 530 723 530 610 530 c 128,-1,0
 497 530 497 530 429.5 613.5 c 128,-1,1
EndSplineSet
EndChar

StartChar: ff
Encoding: 64256 64256 41
Width: 998
Flags: HW
LayerCount: 2
Fore
SplineSet
-10 516 m 1,0,-1
 6 582 l 1,1,-1
 193 582 l 1,2,3
 296.366812227 995.467248908 296.366812227 995.467248908 411.5 1172.5 c 0,4,5
 516.233465971 1333.54178101 516.233465971 1333.54178101 640.5 1384.5 c 0,6,7
 710 1413 710 1413 791 1413 c 0,8,9
 918 1413 918 1413 981 1331 c 1,10,11
 1086 1413 1086 1413 1221 1413 c 0,12,13
 1336 1413 1336 1413 1388.5 1355.5 c 0,14,15
 1420 1321 1420 1321 1420 1270.5 c 128,-1,16
 1420 1220 1420 1220 1388 1193.5 c 128,-1,17
 1356 1167 1356 1167 1314 1167 c 128,-1,18
 1272 1167 1272 1167 1242.5 1191.5 c 128,-1,19
 1213 1216 1213 1216 1213 1254.5 c 128,-1,20
 1213 1293 1213 1293 1239 1331 c 1,21,22
 1192 1348 1192 1348 1163.5 1348 c 128,-1,23
 1135 1348 1135 1348 1096 1320.5 c 128,-1,24
 1057 1293 1057 1293 1027 1247 c 0,25,26
 914.793706294 1074.95034965 914.793706294 1074.95034965 799 582 c 1,27,-1
 1039 582 l 1,28,-1
 1022 516 l 1,29,-1
 785 516 l 1,30,31
 721.717685976 244.474722384 721.717685976 244.474722384 693.442740636 157.34983518 c 0,32,33
 622.060975052 -62.6020763123 622.060975052 -62.6020763123 511.497971854 -136.234571462 c 0,34,35
 442.778811765 -182 442.778811765 -182 373.889405882 -182 c 128,-1,36
 305 -182 305 -182 281.5 -160.5 c 128,-1,37
 258 -139 258 -139 258 -109 c 128,-1,38
 258 -79 258 -79 278 -57 c 128,-1,39
 298 -35 298 -35 329 -35 c 128,-1,40
 360 -35 360 -35 380 -48.5 c 128,-1,41
 400 -62 400 -62 400 -78 c 0,42,43
 400 -112 400 -112 385 -133 c 1,44,45
 443.43627451 -124.651960784 443.43627451 -124.651960784 482.5 -31.5 c 0,46,47
 525.191096634 70.3018458198 525.191096634 70.3018458198 543.595548317 159.15092291 c 128,-1,48
 562 248 562 248 571 295 c 128,-1,49
 580 342 580 342 592 415 c 128,-1,50
 604 488 604 488 609 516 c 1,51,-1
 355 516 l 1,52,53
 291.737219859 244.55853637 291.737219859 244.55853637 263.400546455 157.34983518 c 0,54,55
 191.82461817 -62.9316231786 191.82461817 -62.9316231786 80.6570710903 -136.480655998 c 0,56,57
 11.8557065666 -182 11.8557065666 -182 -80 -182 c 0,58,59
 -125 -182 -125 -182 -148.5 -160.5 c 128,-1,60
 -172 -139 -172 -139 -172 -109 c 128,-1,61
 -172 -79 -172 -79 -152 -57 c 128,-1,62
 -132 -35 -132 -35 -101 -35 c 128,-1,63
 -70 -35 -70 -35 -50 -48.5 c 128,-1,64
 -30 -62 -30 -62 -30 -85 c 128,-1,65
 -30 -108 -30 -108 -45 -133 c 1,66,67
 0.321100917431 -126.819849875 0.321100917431 -126.819849875 33.5 -67.5 c 0,68,69
 71.1580928482 -0.171894604768 71.1580928482 -0.171894604768 87.5790464241 60.9140526976 c 128,-1,70
 104 122 104 122 114 163 c 128,-1,71
 124 204 124 204 134 257.5 c 128,-1,72
 144 311 144 311 150.5 349.5 c 128,-1,73
 157 388 157 388 165.5 438.5 c 128,-1,74
 174 489 174 489 179 516 c 1,75,-1
 -10 516 l 1,0,-1
623 582 m 1,76,77
 684 833 684 833 758 1010.5 c 128,-1,78
 832 1188 832 1188 934 1290 c 1,79,80
 884 1346 884 1346 822.5 1346 c 128,-1,81
 761 1346 761 1346 711 1320.5 c 128,-1,82
 661 1295 661 1295 623.5 1255.5 c 128,-1,83
 586 1216 586 1216 552 1153.5 c 128,-1,84
 518 1091 518 1091 494.5 1031.5 c 128,-1,85
 471 972 471 972 447.5 892 c 0,86,87
 404.724719101 746.382022472 404.724719101 746.382022472 387.862359551 667.691011236 c 128,-1,88
 371 589 371 589 369 582 c 1,89,-1
 623 582 l 1,76,77
EndSplineSet
EndChar

StartChar: st
Encoding: 64262 64262 42
Width: 1106
Flags: HW
LayerCount: 2
Fore
SplineSet
881 862 m 0,0,1
 881 1090 881 1090 678 1090 c 0,2,3
 608 1090 608 1090 537.5 1052.5 c 128,-1,4
 467 1015 467 1015 419 946 c 128,-1,5
 371 877 371 877 371 806.5 c 0,6,7
 371 660.253731343 371 660.253731343 502 584 c 0,8,9
 576 541 576 541 576 494 c 128,-1,10
 576 447 576 447 552.5 422 c 128,-1,11
 529 397 529 397 493.5 397 c 128,-1,12
 458 397 458 397 433 416 c 128,-1,13
 408 435 408 435 408 469.5 c 128,-1,14
 408 504 408 504 447 539 c 1,15,16
 422 555 422 555 367 555 c 128,-1,17
 312 555 312 555 262.5 531 c 128,-1,18
 213 507 213 507 213 476.5 c 128,-1,19
 213 446 213 446 247.5 426 c 128,-1,20
 282 406 282 406 331 389 c 128,-1,21
 380 372 380 372 429 350 c 128,-1,22
 478 328 478 328 512.5 287 c 128,-1,23
 547 246 547 246 547 184.5 c 128,-1,24
 547 123 547 123 498 72.5 c 0,25,26
 405.336633663 -23 405.336633663 -23 244 -23 c 0,27,28
 157.25 -23 157.25 -23 92.625 0.5 c 0,29,30
 -28 44.3636363636 -28 44.3636363636 -28 135 c 0,31,32
 -28 169 -28 169 -7.5 194 c 128,-1,33
 13 219 13 219 47.5 219 c 128,-1,34
 82 219 82 219 108.5 198.5 c 128,-1,35
 135 178 135 178 135 141.5 c 128,-1,36
 135 105 135 105 94 84 c 1,37,38
 144 53 144 53 223 53 c 0,39,40
 375 53 375 53 375 141 c 0,41,42
 375 201.101123596 375 201.101123596 268.5 237 c 0,43,44
 224 252 224 252 179.5 269 c 128,-1,45
 135 286 135 286 102 319 c 128,-1,46
 69 352 69 352 66 399 c 1,47,48
 66 467 66 467 111 514.5 c 0,49,50
 195.789473684 604 195.789473684 604 365 604 c 2,51,-1
 387 604 l 1,52,53
 295 673 295 673 295 782 c 128,-1,54
 295 891 295 891 360 980 c 128,-1,55
 425 1069 425 1069 521.5 1116 c 128,-1,56
 618 1163 618 1163 719 1163 c 0,57,58
 877 1163 877 1163 952.5 1069.5 c 128,-1,59
 1028 976 1028 976 1028 842 c 128,-1,60
 1028 708 1028 708 979 582 c 1,61,-1
 1127 582 l 1,62,-1
 1110 516 l 1,63,-1
 959 516 l 1,64,65
 877 232 877 232 877 170.5 c 128,-1,66
 877 109 877 109 889.5 109 c 128,-1,67
 902 109 902 109 911.5 114.5 c 0,68,69
 943.257142857 132.885714286 943.257142857 132.885714286 1028 260 c 1,70,-1
 1069 223 l 1,71,72
 1003 97 1003 97 931.5 36 c 128,-1,73
 860 -25 860 -25 814 -25 c 128,-1,74
 768 -25 768 -25 744.5 9 c 128,-1,75
 721 43 721 43 721 98 c 0,76,77
 721 229 721 229 797 516 c 1,78,-1
 684 516 l 1,79,-1
 701 582 l 1,80,-1
 817 582 l 1,81,82
 881 741 881 741 881 862 c 0,0,1
EndSplineSet
EndChar

StartChar: ct
Encoding: 65537 -1 43
Width: 1111
Flags: HW
LayerCount: 2
Fore
SplineSet
886 862 m 0,0,1
 886 1090 886 1090 683 1090 c 0,2,3
 588 1090 588 1090 502.5 1003.5 c 128,-1,4
 417 917 417 917 417 791 c 128,-1,5
 417 665 417 665 548 584 c 1,6,7
 622 553 622 553 622 487 c 0,8,9
 622 447 622 447 597 422 c 128,-1,10
 572 397 572 397 537 397 c 128,-1,11
 502 397 502 397 478 419.5 c 128,-1,12
 454 442 454 442 454 477 c 128,-1,13
 454 512 454 512 497 541 c 1,14,15
 459 553 459 553 427 553 c 0,16,17
 358 553 358 553 300 502 c 128,-1,18
 242 451 242 451 212 378.5 c 128,-1,19
 182 306 182 306 182 234 c 128,-1,20
 182 162 182 162 215.5 118 c 128,-1,21
 249 74 249 74 312 74 c 128,-1,22
 375 74 375 74 433 111 c 128,-1,23
 491 148 491 148 520 207 c 1,24,-1
 561 178 l 1,25,26
 518 85 518 85 426.5 31 c 128,-1,27
 335 -23 335 -23 234.5 -23 c 128,-1,28
 134 -23 134 -23 65.5 39 c 128,-1,29
 -3 101 -3 101 -3 215 c 128,-1,30
 -3 329 -3 329 65 418.5 c 128,-1,31
 133 508 133 508 232.5 555.5 c 128,-1,32
 332 603 332 603 434 604 c 1,33,34
 341 672 341 672 341 781.5 c 128,-1,35
 341 891 341 891 400 980 c 128,-1,36
 459 1069 459 1069 546.5 1116 c 128,-1,37
 634 1163 634 1163 724 1163 c 0,38,39
 883 1163 883 1163 958.5 1075.5 c 128,-1,40
 1034 988 1034 988 1034 854.5 c 128,-1,41
 1034 721 1034 721 984 582 c 1,42,-1
 1132 582 l 1,43,-1
 1116 516 l 1,44,-1
 964 516 l 1,45,46
 882 232 882 232 882 170.5 c 128,-1,47
 882 109 882 109 894.5 109 c 128,-1,48
 907 109 907 109 917 114.5 c 0,49,50
 945.609501738 130.235225956 945.609501738 130.235225956 1034 260 c 1,51,-1
 1075 223 l 1,52,53
 1008 97 1008 97 937 36 c 128,-1,54
 866 -25 866 -25 819.5 -25 c 128,-1,55
 773 -25 773 -25 749.5 9 c 128,-1,56
 726 43 726 43 726 98 c 0,57,58
 726 229 726 229 802 516 c 1,59,-1
 690 516 l 1,60,-1
 706 582 l 1,61,-1
 823 582 l 1,62,63
 886 739 886 739 886 862 c 0,0,1
EndSplineSet
EndChar

StartChar: E
Encoding: 69 69 44
Width: 1369
Flags: HW
LayerCount: 2
Fore
SplineSet
1005 928 m 1,0,1
 1058 928 1058 928 1058 892 c 128,-1,2
 1058 856 1058 856 1003 856 c 0,3,4
 859 856 859 856 731.5 811 c 128,-1,5
 604 766 604 766 520 696 c 128,-1,6
 436 626 436 626 388 542 c 128,-1,7
 340 458 340 458 340 377 c 0,8,9
 340 247 340 247 449 162.5 c 128,-1,10
 558 78 558 78 774 78 c 0,11,12
 1020.68292683 78 1020.68292683 78 1144 196.5 c 0,13,14
 1208 258 1208 258 1208 356.5 c 128,-1,15
 1208 455 1208 455 1143 512 c 128,-1,16
 1078 569 1078 569 976.5 569 c 128,-1,17
 875 569 875 569 775.5 529 c 128,-1,18
 676 489 676 489 618 422 c 1,19,-1
 563 471 l 1,20,21
 621 545 621 545 735 590 c 128,-1,22
 849 635 849 635 943 635 c 128,-1,23
 1037 635 1037 635 1094.5 618 c 128,-1,24
 1152 601 1152 601 1199 567.5 c 0,25,26
 1299.9369356 495.555588453 1299.9369356 495.555588453 1306 346 c 1,27,28
 1302 256 1302 256 1252 184 c 128,-1,29
 1202 112 1202 112 1120.5 67 c 0,30,31
 953.877777778 -25 953.877777778 -25 729 -25 c 0,32,33
 488.055555556 -25 488.055555556 -25 304.5 87 c 0,34,35
 216 141 216 141 163 227.5 c 128,-1,36
 110 314 110 314 110 420 c 0,37,38
 110 796 110 796 768 903 c 1,39,40
 657 941 657 941 608 1004 c 128,-1,41
 559 1067 559 1067 559 1135 c 0,42,43
 559 1257 559 1257 693.5 1349.5 c 128,-1,44
 828 1442 828 1442 1032 1442 c 0,45,46
 1219.25373134 1442 1219.25373134 1442 1344 1342.5 c 0,47,48
 1437.02284569 1268.30320641 1437.02284569 1268.30320641 1441 1147 c 1,49,50
 1441 1091 1441 1091 1408 1062.5 c 128,-1,51
 1375 1034 1375 1034 1329 1034 c 128,-1,52
 1283 1034 1283 1034 1250.5 1059.5 c 128,-1,53
 1218 1085 1218 1085 1218 1119 c 128,-1,54
 1218 1153 1218 1153 1230 1172.5 c 128,-1,55
 1242 1192 1242 1192 1256.5 1201.5 c 128,-1,56
 1271 1211 1271 1211 1290.5 1216 c 0,57,58
 1317.8 1223 1317.8 1223 1335 1223 c 1,59,60
 1303 1289 1303 1289 1221.5 1328.5 c 128,-1,61
 1140 1368 1140 1368 1032 1368 c 128,-1,62
 924 1368 924 1368 835.5 1306.5 c 128,-1,63
 747 1245 747 1245 747 1139 c 0,64,65
 747 1024.96551724 747 1024.96551724 825.5 960 c 0,66,67
 869 924 869 924 929 924 c 1,68,-1
 1005 928 l 1,0,1
EndSplineSet
EndChar

StartChar: x
Encoding: 120 120 45
Width: 772
Flags: HW
LayerCount: 2
Fore
SplineSet
438 272 m 1,0,1
 438 95 438 95 513 95 c 0,2,3
 569 95 569 95 676 243 c 1,4,-1
 719 204 l 1,5,6
 684.020408163 140.213685474 684.020408163 140.213685474 634.510204082 85.6068427371 c 0,7,8
 542.386666667 -16 542.386666667 -16 462 -16 c 0,9,10
 406 -16 406 -16 370 40 c 128,-1,11
 334 96 334 96 334 162 c 1,12,13
 293 77 293 77 224.5 30.5 c 128,-1,14
 156 -16 156 -16 92 -16 c 0,15,16
 -39 -16 -39 -16 -39 98 c 0,17,18
 -39 133 -39 133 -16.5 157.5 c 128,-1,19
 6 182 6 182 38.5 182 c 128,-1,20
 71 182 71 182 90.5 173 c 128,-1,21
 110 164 110 164 120 142 c 0,22,23
 134.583333333 109.916666667 134.583333333 109.916666667 143 51 c 1,24,25
 183 51 183 51 230 115 c 128,-1,26
 277 179 277 179 289 272 c 1,27,-1
 137 272 l 1,28,-1
 160 305 l 1,29,-1
 291 305 l 1,30,31
 291 309 291 309 291 332.5 c 128,-1,32
 291 356 291 356 290 381 c 128,-1,33
 289 406 289 406 284.5 444 c 0,34,35
 275.263157895 522 275.263157895 522 237 522 c 128,-1,36
 198.822222222 522 198.822222222 522 142.5 453.5 c 0,37,38
 124 431 124 431 108 410 c 128,-1,39
 92 389 92 389 90 386.5 c 128,-1,40
 88 384 88 384 86 381 c 1,41,-1
 24 418 l 1,42,43
 157 604 157 604 270 604 c 0,44,45
 361.307692308 604 361.307692308 604 396.5 482 c 0,46,47
 404 456 404 456 407 432 c 1,48,49
 502 604 502 604 645 604 c 0,50,51
 685 604 685 604 713 582 c 128,-1,52
 741 560 741 560 741 517.5 c 128,-1,53
 741 475 741 475 720.5 447.5 c 128,-1,54
 700 420 700 420 664 420 c 128,-1,55
 628 420 628 420 601 443.5 c 128,-1,56
 574 467 574 467 563.5 490.5 c 2,57,-1
 553 514 l 1,58,59
 501 480 501 480 469.5 423 c 128,-1,60
 438 366 438 366 438 305 c 1,61,-1
 581 305 l 1,62,-1
 594 272 l 1,63,-1
 438 272 l 1,0,1
EndSplineSet
EndChar

StartChar: quoteright
Encoding: 8217 8217 46
Width: 381
Flags: HW
LayerCount: 2
Fore
SplineSet
92 838 m 1,0,-1
 60 838 l 1,1,2
 113 1062 113 1062 124 1131 c 1,3,4
 88 1145 88 1145 66.5 1173.5 c 128,-1,5
 45 1202 45 1202 45 1236 c 0,6,7
 45 1270 45 1270 77.5 1294.5 c 128,-1,8
 110 1319 110 1319 168 1319 c 0,9,10
 226 1319 226 1319 262.5 1292 c 128,-1,11
 299 1265 299 1265 299 1216 c 0,12,13
 299 1167 299 1167 220 1029 c 128,-1,14
 141 891 141 891 92 838 c 1,0,-1
EndSplineSet
EndChar

StartChar: G
Encoding: 71 71 47
Width: 1272
Flags: HW
LayerCount: 2
Fore
SplineSet
1253 1225 m 1,0,1
 1119 1356 1119 1356 956 1356 c 0,2,3
 644.415204678 1356 644.415204678 1356 446.5 1056.5 c 0,4,5
 331 881.716814159 331 881.716814159 331 686 c 0,6,7
 331 530.5 331 530.5 409 429.5 c 0,8,9
 492.792079208 321 492.792079208 321 663 321 c 0,10,11
 797 321 797 321 923 405.5 c 128,-1,12
 1049 490 1049 490 1108 629 c 1,13,-1
 1253 631 l 1,14,15
 1152 170 1152 170 897.5 -88 c 128,-1,16
 643 -346 643 -346 291 -346 c 0,17,18
 108 -346 108 -346 9 -271 c 128,-1,19
 -90 -196 -90 -196 -90 -91.5 c 128,-1,20
 -90 13 -90 13 9 90.5 c 128,-1,21
 108 168 108 168 280 168 c 0,22,23
 451.333333333 168 451.333333333 168 551 90 c 1,24,-1
 508 2 l 1,25,26
 416 41 416 41 291 41 c 128,-1,27
 166 41 166 41 83 -0.5 c 128,-1,28
 0 -42 0 -42 0 -103 c 128,-1,29
 0 -164 0 -164 80.5 -207 c 128,-1,30
 161 -250 161 -250 307 -250 c 0,31,32
 540 -250 540 -250 731.5 -67.5 c 128,-1,33
 923 115 923 115 1058 468 c 1,34,35
 975 351 975 351 856 289 c 128,-1,36
 737 227 737 227 626.5 227 c 128,-1,37
 516 227 516 227 431.5 255.5 c 128,-1,38
 347 284 347 284 280.5 337.5 c 128,-1,39
 214 391 214 391 174.5 477.5 c 128,-1,40
 135 564 135 564 135 672 c 128,-1,41
 135 780 135 780 170.5 889.5 c 128,-1,42
 206 999 206 999 277 1098 c 128,-1,43
 348 1197 348 1197 444.5 1274 c 128,-1,44
 541 1351 541 1351 673 1396.5 c 128,-1,45
 805 1442 805 1442 952 1442 c 0,46,47
 1096.04477612 1442 1096.04477612 1442 1225 1374.5 c 0,48,49
 1289 1341 1289 1341 1329.5 1282 c 128,-1,50
 1370 1223 1370 1223 1370 1147 c 128,-1,51
 1370 1071 1370 1071 1325 1029.5 c 128,-1,52
 1280 988 1280 988 1223.5 988 c 128,-1,53
 1167 988 1167 988 1130 1018 c 128,-1,54
 1093 1048 1093 1048 1093 1100 c 0,55,56
 1093 1225 1093 1225 1253 1225 c 1,0,1
EndSplineSet
EndChar

StartChar: Q
Encoding: 81 81 48
Width: 1442
Flags: HW
LayerCount: 2
Fore
SplineSet
429.5 613.5 m 128,-1,1
 362 697 362 697 362 816 c 128,-1,2
 362 935 362 935 412.5 1048.5 c 128,-1,3
 463 1162 463 1162 545 1248.5 c 128,-1,4
 627 1335 627 1335 739 1388.5 c 128,-1,5
 851 1442 851 1442 962 1442 c 128,-1,6
 1073 1442 1073 1442 1167 1408.5 c 128,-1,7
 1261 1375 1261 1375 1333.5 1313 c 128,-1,8
 1406 1251 1406 1251 1449 1155.5 c 128,-1,9
 1492 1060 1492 1060 1492 933 c 128,-1,10
 1492 806 1492 806 1449.5 669 c 128,-1,11
 1407 532 1407 532 1327 414 c 128,-1,12
 1247 296 1247 296 1140 202 c 0,13,14
 912.744561348 2.35503520291 912.744561348 2.35503520291 614 -20 c 1,15,16
 574 -80 574 -80 499 -183 c 1,17,18
 537 -197 537 -197 605 -222.5 c 128,-1,19
 673 -248 673 -248 708.5 -260.5 c 0,20,21
 806.48 -295 806.48 -295 845 -295 c 0,22,23
 942 -295 942 -295 1040 -160 c 1,24,-1
 1083 -190 l 1,25,26
 1075 -200 1075 -200 1053.5 -229.5 c 128,-1,27
 1032 -259 1032 -259 1016.5 -278.5 c 128,-1,28
 1001 -298 1001 -298 972.5 -325.5 c 128,-1,29
 944 -353 944 -353 916.5 -370 c 0,30,31
 848.558823529 -412 848.558823529 -412 766 -412 c 0,32,33
 701.303030303 -412 701.303030303 -412 464 -316.5 c 0,34,35
 423 -300 423 -300 402 -292 c 1,36,37
 337 -351 337 -351 261 -376 c 128,-1,38
 185 -401 185 -401 75 -401 c 128,-1,39
 -35 -401 -35 -401 -92.5 -359.5 c 128,-1,40
 -150 -318 -150 -318 -150 -255 c 128,-1,41
 -150 -192 -150 -192 -84 -141 c 128,-1,42
 -18 -90 -18 -90 99.5 -90 c 128,-1,43
 217 -90 217 -90 420 -157 c 1,44,45
 491 -62 491 -62 519 -22 c 1,46,47
 279 -15 279 -15 149.5 113.5 c 128,-1,48
 20 242 20 242 20 475 c 0,49,50
 20 738.21656051 20 738.21656051 176.5 962.5 c 0,51,52
 255 1075 255 1075 362 1148 c 1,53,-1
 392 1111 l 1,54,55
 304 1005 304 1005 253 846 c 128,-1,56
 202 687 202 687 202 559 c 128,-1,57
 202 431 202 431 223 346.5 c 128,-1,58
 244 262 244 262 286.5 194 c 0,59,60
 377.776371308 47.9578059072 377.776371308 47.9578059072 561 38 c 1,61,62
 630 138 630 138 684 213 c 1,63,-1
 759 211 l 1,64,-1
 653 41 l 1,65,66
 784 60 784 60 901.5 150 c 128,-1,67
 1019 240 1019 240 1097.5 367 c 128,-1,68
 1176 494 1176 494 1221.5 642.5 c 128,-1,69
 1267 791 1267 791 1267 907 c 128,-1,70
 1267 1023 1267 1023 1247.5 1100.5 c 128,-1,71
 1228 1178 1228 1178 1188.5 1239 c 0,72,73
 1104.96721311 1368 1104.96721311 1368 929 1368 c 0,74,75
 797 1368 797 1368 688 1286 c 128,-1,76
 579 1204 579 1204 520.5 1077.5 c 128,-1,77
 462 951 462 951 462 827 c 128,-1,78
 462 703 462 703 504 649.5 c 128,-1,79
 546 596 546 596 613.5 596 c 128,-1,80
 681 596 681 596 750.5 639.5 c 128,-1,81
 820 683 820 683 869 759 c 128,-1,82
 918 835 918 835 921 918 c 1,83,-1
 1017 934 l 1,84,85
 1017 830 1017 830 962.5 736.5 c 128,-1,86
 908 643 908 643 815.5 586.5 c 128,-1,87
 723 530 723 530 610 530 c 128,-1,0
 497 530 497 530 429.5 613.5 c 128,-1,1
-33.5 -311 m 128,-1,89
 11 -336 11 -336 89.5 -336 c 128,-1,90
 168 -336 168 -336 221.5 -319.5 c 128,-1,91
 275 -303 275 -303 324 -261 c 1,92,93
 129 -188 129 -188 56.5 -188 c 128,-1,94
 -16 -188 -16 -188 -47 -207 c 128,-1,95
 -78 -226 -78 -226 -78 -256 c 128,-1,88
 -78 -286 -78 -286 -33.5 -311 c 128,-1,89
EndSplineSet
EndChar

StartChar: U
Encoding: 85 85 49
Width: 1675
Flags: HW
LayerCount: 2
Fore
SplineSet
1429 63 m 0,0,1
 1503.02469136 63 1503.02469136 63 1597 236 c 1,2,-1
 1650 205 l 1,3,4
 1597 93 1597 93 1526.5 34 c 128,-1,5
 1456 -25 1456 -25 1381.5 -25 c 128,-1,6
 1307 -25 1307 -25 1255.5 42 c 128,-1,7
 1204 109 1204 109 1204 215 c 128,-1,8
 1204 321 1204 321 1222.5 437.5 c 0,9,10
 1247.30964625 593.733718251 1247.30964625 593.733718251 1285.65482312 749.366859125 c 128,-1,11
 1324 905 1324 905 1326 912 c 0,12,13
 1330.5 927.75 1330.5 927.75 1335 948 c 1,14,15
 1322 917 1322 917 1291.5 841 c 128,-1,16
 1261 765 1261 765 1233.5 698.5 c 128,-1,17
 1206 632 1206 632 1164 540.5 c 128,-1,18
 1122 449 1122 449 1082.5 374.5 c 128,-1,19
 1043 300 1043 300 990.5 223 c 128,-1,20
 938 146 938 146 886.5 94 c 0,21,22
 768.644230769 -25 768.644230769 -25 649 -25 c 0,23,24
 563 -25 563 -25 517 35.5 c 128,-1,25
 471 96 471 96 471 195.5 c 128,-1,26
 471 295 471 295 498 427.5 c 128,-1,27
 525 560 525 560 557 669 c 0,28,29
 643 961.9375 643 961.9375 643 1155 c 0,30,31
 643 1257 643 1257 590.5 1323 c 128,-1,32
 538 1389 538 1389 450.5 1389 c 128,-1,33
 363 1389 363 1389 297.5 1344.5 c 128,-1,34
 232 1300 232 1300 190 1231 c 128,-1,35
 148 1162 148 1162 118.5 1077 c 0,36,37
 63 917.084745763 63 917.084745763 63 770 c 0,38,39
 63 497 63 497 188 291 c 1,40,-1
 149 258 l 1,41,42
 81 367 81 367 45.5 501.5 c 128,-1,43
 10 636 10 636 10 742.5 c 128,-1,44
 10 849 10 849 25 938 c 128,-1,45
 40 1027 40 1027 75 1118 c 128,-1,46
 110 1209 110 1209 161 1280 c 128,-1,47
 212 1351 212 1351 292 1395.5 c 128,-1,48
 372 1440 372 1440 454.5 1440 c 128,-1,49
 537 1440 537 1440 592 1417.5 c 128,-1,50
 647 1395 647 1395 682.5 1357.5 c 128,-1,51
 718 1320 718 1320 742 1269 c 0,52,53
 786 1175.5 786 1175.5 786 1062.75 c 128,-1,54
 786 950 786 950 762 832.5 c 128,-1,55
 738 715 738 715 708.5 622.5 c 0,56,57
 631 379.491525424 631 379.491525424 631 197 c 0,58,59
 631 78 631 78 691.5 78 c 128,-1,60
 752 78 752 78 827.5 152 c 128,-1,61
 903 226 903 226 976 344 c 128,-1,62
 1049 462 1049 462 1122.5 605 c 128,-1,63
 1196 748 1196 748 1258 890.5 c 0,64,65
 1383.73701905 1179.49234217 1383.73701905 1179.49234217 1444.5 1343 c 2,66,-1
 1472 1417 l 1,67,-1
 1659 1417 l 1,68,69
 1362 587 1362 587 1362 229 c 0,70,71
 1362 63 1362 63 1429 63 c 0,0,1
EndSplineSet
EndChar

StartChar: N
Encoding: 78 78 50
Width: 1614
Flags: HW
LayerCount: 2
Fore
SplineSet
1522 283 m 1,0,-1
 1573 240 l 1,1,2
 1524 118 1524 118 1444 47.5 c 128,-1,3
 1364 -23 1364 -23 1285 -23 c 0,4,5
 1238 -23 1238 -23 1204 20 c 128,-1,6
 1170 63 1170 63 1170 140 c 128,-1,7
 1170 217 1170 217 1212 369.5 c 128,-1,8
 1254 522 1254 522 1304 668 c 0,9,10
 1438 1059.28 1438 1059.28 1438 1221 c 0,11,12
 1438 1339 1438 1339 1377.5 1339 c 128,-1,13
 1317 1339 1317 1339 1242 1265 c 128,-1,14
 1167 1191 1167 1191 1095.5 1073 c 128,-1,15
 1024 955 1024 955 951 812 c 128,-1,16
 878 669 878 669 816.5 526.5 c 128,-1,17
 755 384 755 384 706.5 266 c 128,-1,18
 658 148 658 148 628.5 74 c 128,-1,19
 599 0 599 0 596 0 c 2,20,-1
 410 0 l 1,21,-1
 514 293 l 2,22,23
 702 825 702 825 702.5 1097.5 c 128,-1,24
 703 1370 703 1370 496 1370 c 0,25,26
 419 1370 419 1370 353.5 1326.5 c 128,-1,27
 288 1283 288 1283 246 1216.5 c 128,-1,28
 204 1150 204 1150 174.5 1068 c 0,29,30
 119 913.728813559 119 913.728813559 119 770 c 0,31,32
 119 497 119 497 244 291 c 1,33,-1
 205 258 l 1,34,35
 137 367 137 367 101.5 501.5 c 128,-1,36
 66 636 66 636 66 742.5 c 128,-1,37
 66 849 66 849 81 938.5 c 128,-1,38
 96 1028 96 1028 131 1119.5 c 128,-1,39
 166 1211 166 1211 217 1281.5 c 128,-1,40
 268 1352 268 1352 348 1397 c 128,-1,41
 428 1442 428 1442 508.5 1442 c 128,-1,42
 589 1442 589 1442 641 1420 c 128,-1,43
 693 1398 693 1398 727 1360.5 c 128,-1,44
 761 1323 761 1323 783.5 1272 c 0,45,46
 826 1175.66666667 826 1175.66666667 826 1061.83333333 c 128,-1,47
 826 948 826 948 801.5 799 c 0,48,49
 771.740608229 618.01431127 771.740608229 618.01431127 732 467 c 1,50,51
 764 556 764 556 787.5 604.5 c 128,-1,52
 811 653 811 653 842.5 721 c 128,-1,53
 874 789 874 789 899 843.5 c 128,-1,54
 924 898 924 898 965 976 c 128,-1,55
 1006 1054 1006 1054 1042 1114 c 128,-1,56
 1078 1174 1078 1174 1125.5 1238.5 c 128,-1,57
 1173 1303 1173 1303 1218 1345 c 0,58,59
 1321.92857143 1442 1321.92857143 1442 1413.96428571 1442 c 128,-1,60
 1506 1442 1506 1442 1552 1381.5 c 128,-1,61
 1598 1321 1598 1321 1598 1227 c 128,-1,62
 1598 1133 1598 1133 1571 1008.5 c 128,-1,63
 1544 884 1544 884 1505 765 c 128,-1,64
 1466 646 1466 646 1427 533 c 0,65,66
 1334 263.538461538 1334 263.538461538 1334 178.769230769 c 128,-1,67
 1334 94 1334 94 1363 94 c 128,-1,68
 1392 94 1392 94 1448.5 168.5 c 128,-1,69
 1505 243 1505 243 1522 283 c 1,0,-1
EndSplineSet
EndChar

StartChar: fi
Encoding: 64257 64257 51
Width: 952
Flags: HW
LayerCount: 2
Fore
SplineSet
905 826 m 128,-1,1
 878 793 878 793 832 793 c 128,-1,2
 786 793 786 793 763 820.5 c 128,-1,3
 740 848 740 848 740 890 c 128,-1,4
 740 932 740 932 768.5 964.5 c 128,-1,5
 797 997 797 997 842 997 c 128,-1,6
 887 997 887 997 909.5 968.5 c 128,-1,7
 932 940 932 940 932 899.5 c 128,-1,0
 932 859 932 859 905 826 c 128,-1,1
660 516 m 2,8,-1
 355 516 l 1,9,-1
 330 414 l 2,10,11
 262.580734171 139.079216008 262.580734171 139.079216008 226.093080946 38.1525963245 c 0,12,13
 146.267207262 -182.649644496 146.267207262 -182.649644496 23.464823122 -249.996459284 c 0,14,15
 -40.3617775376 -285 -40.3617775376 -285 -103.680888769 -285 c 0,16,17
 -213 -285 -213 -285 -213 -211 c 0,18,19
 -213 -181 -213 -181 -193 -159 c 128,-1,20
 -173 -137 -173 -137 -142 -137 c 128,-1,21
 -111 -137 -111 -137 -91 -151 c 128,-1,22
 -71 -165 -71 -165 -71 -186.5 c 128,-1,23
 -71 -208 -71 -208 -86 -236 c 1,24,25
 21.7577388964 -219.162853297 21.7577388964 -219.162853297 99.5 154 c 0,26,27
 112 214 112 214 128.5 295 c 128,-1,28
 145 376 145 376 154 414 c 2,29,-1
 178 516 l 1,30,-1
 -10 516 l 1,31,-1
 6 582 l 1,32,-1
 193 582 l 1,33,34
 268.215505913 886.927726675 268.215505913 886.927726675 339.107752957 1035.46386334 c 128,-1,35
 410 1184 410 1184 470.5 1255.5 c 0,36,37
 603.769230769 1413 603.769230769 1413 791 1413 c 0,38,39
 874 1413 874 1413 931.5 1379 c 128,-1,40
 989 1345 989 1345 989 1266 c 0,41,42
 989 1220 989 1220 957.5 1193.5 c 128,-1,43
 926 1167 926 1167 884 1167 c 128,-1,44
 842 1167 842 1167 812.5 1191.5 c 128,-1,45
 783 1216 783 1216 783 1254.5 c 128,-1,46
 783 1293 783 1293 809 1331 c 1,47,48
 762 1348 762 1348 733.5 1348 c 128,-1,49
 705 1348 705 1348 666 1320.5 c 128,-1,50
 627 1293 627 1293 597 1247 c 0,51,52
 484.793706294 1074.95034965 484.793706294 1074.95034965 369 582 c 1,53,-1
 721 582 l 2,54,55
 805 582 805 582 805 486 c 0,56,57
 805 439 805 439 785 379 c 1,58,-1
 714 178 l 2,59,60
 706 158 706 158 706 138 c 128,-1,61
 706 118 706 118 728 118 c 128,-1,62
 750 118 750 118 789 166 c 2,63,-1
 850 242 l 1,64,-1
 892 204 l 1,65,66
 838 103 838 103 763.5 43.5 c 128,-1,67
 689 -16 689 -16 645.5 -16 c 128,-1,68
 602 -16 602 -16 579 11 c 128,-1,69
 556 38 556 38 556 86.5 c 128,-1,70
 556 135 556 135 585.5 227.5 c 128,-1,71
 615 320 615 320 644.5 395.5 c 128,-1,72
 674 471 674 471 674 493.5 c 128,-1,73
 674 516 674 516 660 516 c 2,8,-1
EndSplineSet
EndChar

StartChar: X
Encoding: 88 88 52
Width: 1571
Flags: HW
LayerCount: 2
Fore
SplineSet
318 733 m 1,0,-1
 701 733 l 1,1,2
 713 826 713 826 713 915 c 0,3,4
 713 1382 713 1382 504 1382 c 0,5,6
 436.181818182 1382 436.181818182 1382 373.590909091 1341.5 c 128,-1,7
 311 1301 311 1301 272.5 1253.5 c 128,-1,8
 234 1206 234 1206 202.5 1143.5 c 0,9,10
 134 1007.58730159 134 1007.58730159 134 793 c 0,11,12
 134 691 134 691 149 591 c 1,13,-1
 95 576 l 1,14,15
 69 705 69 705 69 837.5 c 128,-1,16
 69 970 69 970 107 1089 c 128,-1,17
 145 1208 145 1208 210 1284 c 0,18,19
 345.131578947 1442 345.131578947 1442 534 1442 c 0,20,21
 813.601010101 1442 813.601010101 1442 880.5 1084 c 0,22,23
 899 985 899 985 899 866 c 1,24,25
 986.088607595 1113.08860759 986.088607595 1113.08860759 1147 1274 c 0,26,27
 1315 1442 1315 1442 1528 1442 c 0,28,29
 1609 1442 1609 1442 1655.5 1397 c 128,-1,30
 1702 1352 1702 1352 1702 1291 c 128,-1,31
 1702 1230 1702 1230 1669 1189.5 c 128,-1,32
 1636 1149 1636 1149 1569 1149 c 128,-1,33
 1502 1149 1502 1149 1457 1201.5 c 128,-1,34
 1412 1254 1412 1254 1397 1341 c 1,35,36
 1231 1289 1231 1289 1101.5 1114 c 128,-1,37
 972 939 972 939 937 733 c 1,38,-1
 1288 733 l 1,39,-1
 1317 674 l 1,40,-1
 929 674 l 1,41,42
 926 641 926 641 926 609 c 0,43,44
 926 367 926 367 986 230.5 c 128,-1,45
 1046 94 1046 94 1157 94 c 0,46,47
 1239 94 1239 94 1330.5 188.5 c 128,-1,48
 1422 283 1422 283 1510 473 c 1,49,-1
 1553 436 l 1,50,51
 1497 236 1497 236 1363.5 105.5 c 128,-1,52
 1230 -25 1230 -25 1092 -25 c 0,53,54
 950 -25 950 -25 854 107 c 0,55,56
 752.024096386 247.21686747 752.024096386 247.21686747 748 545 c 1,57,58
 672 259 672 259 515 118 c 128,-1,59
 358 -23 358 -23 146 -23 c 0,60,61
 64 -23 64 -23 22 22.5 c 128,-1,62
 -20 68 -20 68 -20 127 c 128,-1,63
 -20 186 -20 186 15 227 c 128,-1,64
 50 268 50 268 104 268 c 128,-1,65
 158 268 158 268 192 252 c 128,-1,66
 226 236 226 236 243.5 199.5 c 0,67,68
 267.516976146 149.407449752 267.516976146 149.407449752 273.758488073 109.703724876 c 128,-1,69
 280 70 280 70 281 66 c 1,70,71
 362 79 362 79 432.5 134.5 c 128,-1,72
 503 190 503 190 553 275 c 0,73,74
 653.213299875 445.362609787 653.213299875 445.362609787 692 674 c 1,75,-1
 264 674 l 1,76,-1
 318 733 l 1,0,-1
EndSplineSet
EndChar

StartChar: I
Encoding: 73 73 53
Width: 1323
Flags: HW
LayerCount: 2
Fore
SplineSet
1518 1376 m 1,0,1
 1227 1075 1227 1075 1221 719 c 1,2,-1
 1411 719 l 1,3,-1
 1411 643 l 1,4,-1
 1217 643 l 1,5,6
 1188.27216312 246.555851064 1188.27216312 246.555851064 851 68 c 0,7,8
 656.444444444 -35 656.444444444 -35 424.222222222 -35 c 128,-1,9
 192 -35 192 -35 78.5 48 c 128,-1,10
 -35 131 -35 131 -35 251.5 c 128,-1,11
 -35 372 -35 372 67 457.5 c 128,-1,12
 169 543 169 543 352 543 c 0,13,14
 395 543 395 543 420 541 c 1,15,16
 352 689 352 689 352 849 c 128,-1,17
 352 1009 352 1009 440.5 1147.5 c 128,-1,18
 529 1286 529 1286 685.5 1364 c 128,-1,19
 842 1442 842 1442 1036 1442 c 0,20,21
 1118 1442 1118 1442 1277.5 1409 c 128,-1,22
 1437 1376 1437 1376 1518 1376 c 1,0,1
1045 719 m 1,23,24
 1075.17075038 999.156967841 1075.17075038 999.156967841 1288 1249 c 1,25,26
 1135 1313 1135 1313 965 1313 c 0,27,28
 719 1313 719 1313 571.5 1181 c 128,-1,29
 424 1049 424 1049 424 838 c 0,30,31
 424 691 424 691 504 532 c 1,32,-1
 741 465 l 1,33,-1
 721 403 l 1,34,35
 616 438 616 438 541 453 c 1,36,37
 563 410 563 410 627 315 c 1,38,-1
 559 293 l 1,39,-1
 455 465 l 1,40,41
 411 471 411 471 373 471 c 0,42,43
 228 471 228 471 153 411.5 c 128,-1,44
 78 352 78 352 78 262 c 128,-1,45
 78 172 78 172 164 102.5 c 128,-1,46
 250 33 250 33 387.5 33 c 128,-1,47
 525 33 525 33 630.5 64.5 c 128,-1,48
 736 96 736 96 821 166 c 0,49,50
 994.214424951 308.647173489 994.214424951 308.647173489 1038 645 c 1,51,-1
 823 645 l 1,52,-1
 823 719 l 1,53,-1
 1045 719 l 1,23,24
EndSplineSet
EndChar

StartChar: J
Encoding: 74 74 54
Width: 1329
Flags: HW
LayerCount: 2
Fore
SplineSet
1520 1376 m 1,0,1
 1229 1075 1229 1075 1223 719 c 1,2,-1
 1413 719 l 1,3,-1
 1413 643 l 1,4,-1
 1219 643 l 1,5,6
 1209 452 1209 452 1155.5 295 c 128,-1,7
 1102 138 1102 138 1020 31 c 128,-1,8
 938 -76 938 -76 829.5 -149 c 0,9,10
 621.417808219 -289 621.417808219 -289 356 -289 c 0,11,12
 48.475 -289 48.475 -289 -38.5 -76 c 0,13,14
 -63 -16 -63 -16 -63 59 c 128,-1,15
 -63 134 -63 134 -29.5 213.5 c 128,-1,16
 4 293 4 293 62.5 358 c 128,-1,17
 121 423 121 423 210.5 463.5 c 128,-1,18
 300 504 300 504 404 504 c 0,19,20
 421 504 421 504 463 500 c 1,21,22
 354 663 354 663 354 836 c 128,-1,23
 354 1009 354 1009 442.5 1147.5 c 128,-1,24
 531 1286 531 1286 687.5 1364 c 128,-1,25
 844 1442 844 1442 1038 1442 c 0,26,27
 1120 1442 1120 1442 1279.5 1409 c 128,-1,28
 1439 1376 1439 1376 1520 1376 c 1,0,1
1047 719 m 1,29,30
 1077.17075038 999.156967841 1077.17075038 999.156967841 1290 1249 c 1,31,32
 1137 1313 1137 1313 967 1313 c 0,33,34
 721 1313 721 1313 573.5 1181 c 128,-1,35
 426 1049 426 1049 426 838 c 0,36,37
 426 671 426 671 547 492 c 1,38,-1
 784 424 l 1,39,-1
 764 362 l 1,40,41
 667 395 667 395 584 412 c 1,42,43
 606 369 606 369 670 274 c 1,44,-1
 602 252 l 1,45,-1
 498 424 l 1,46,47
 459 432 459 432 394.5 432 c 128,-1,48
 330 432 330 432 259 399 c 128,-1,49
 188 366 188 366 142.5 312.5 c 0,50,51
 45 197.857142857 45 197.857142857 45 68.4285714286 c 128,-1,52
 45 -61 45 -61 126 -142 c 128,-1,53
 207 -223 207 -223 356 -223 c 128,-1,54
 505 -223 505 -223 615 -175.5 c 128,-1,55
 725 -128 725 -128 813.5 -26.5 c 0,56,57
 993.945651875 180.451792829 993.945651875 180.451792829 1040 645 c 1,58,-1
 825 645 l 1,59,-1
 825 719 l 1,60,-1
 1047 719 l 1,29,30
EndSplineSet
EndChar

StartChar: j
Encoding: 106 106 55
Width: 423
Flags: HW
LayerCount: 2
Fore
SplineSet
-73 -130 m 0,0,1
 -73 -75 -73 -75 -137 -75 c 0,2,3
 -167 -75 -167 -75 -185.5 -94 c 128,-1,4
 -204 -113 -204 -113 -204 -144 c 128,-1,5
 -204 -175 -204 -175 -171.5 -200.5 c 128,-1,6
 -139 -226 -139 -226 -86.5 -226 c 128,-1,7
 -34 -226 -34 -226 1 -218.5 c 128,-1,8
 36 -211 36 -211 63 -200 c 128,-1,9
 90 -189 90 -189 114.5 -166 c 128,-1,10
 139 -143 139 -143 156.5 -122 c 128,-1,11
 174 -101 174 -101 192 -63.5 c 128,-1,12
 210 -26 210 -26 222 4 c 128,-1,13
 234 34 234 34 250 85 c 128,-1,14
 266 136 266 136 277 175 c 128,-1,15
 288 214 288 214 306 278 c 128,-1,16
 324 342 324 342 341 399.5 c 128,-1,17
 358 457 358 457 358 508 c 0,18,19
 358 604 358 604 264 604 c 0,20,21
 141 604 141 604 -6 356 c 1,22,-1
 61 317 l 1,23,24
 139 455 139 455 174 455 c 0,25,26
 188 455 188 455 188 422 c 1,27,28
 173 368 173 368 141.5 271 c 128,-1,29
 110 174 110 174 96 121.5 c 128,-1,30
 82 69 82 69 71.5 35.5 c 128,-1,31
 61 2 61 2 44 -42 c 128,-1,32
 27 -86 27 -86 10.5 -109.5 c 0,33,34
 -30.2539556962 -167.543512658 -30.2539556962 -167.543512658 -83 -173 c 1,35,36
 -73 -159 -73 -159 -73 -130 c 0,0,1
442 826 m 128,-1,38
 415 793 415 793 369 793 c 128,-1,39
 323 793 323 793 300 820.5 c 128,-1,40
 277 848 277 848 277 890 c 128,-1,41
 277 932 277 932 305.5 964.5 c 128,-1,42
 334 997 334 997 379 997 c 128,-1,43
 424 997 424 997 446.5 968.5 c 128,-1,44
 469 940 469 940 469 899.5 c 128,-1,37
 469 859 469 859 442 826 c 128,-1,38
EndSplineSet
EndChar

StartChar: period
Encoding: 46 46 56
Width: 337
Flags: HW
LayerCount: 2
Fore
SplineSet
254 156.5 m 128,-1,1
 280 133 280 133 280 84.5 c 128,-1,2
 280 36 280 36 247.5 6.5 c 128,-1,3
 215 -23 215 -23 174 -23 c 128,-1,4
 133 -23 133 -23 106 2 c 128,-1,5
 79 27 79 27 79 74 c 128,-1,6
 79 121 79 121 113 150.5 c 128,-1,7
 147 180 147 180 187.5 180 c 128,-1,0
 228 180 228 180 254 156.5 c 128,-1,1
EndSplineSet
EndChar

StartChar: dieresis
Encoding: 168 168 57
Width: 752
Flags: HW
LayerCount: 2
Fore
SplineSet
286 850.5 m 128,-1,1
 312 827 312 827 312 779 c 128,-1,2
 312 731 312 731 279 701.5 c 128,-1,3
 246 672 246 672 205.5 672 c 128,-1,4
 165 672 165 672 138 696.5 c 128,-1,5
 111 721 111 721 111 768.5 c 128,-1,6
 111 816 111 816 144.5 845 c 128,-1,7
 178 874 178 874 219 874 c 128,-1,0
 260 874 260 874 286 850.5 c 128,-1,1
648 850.5 m 128,-1,9
 674 827 674 827 674 779 c 128,-1,10
 674 731 674 731 641 701.5 c 128,-1,11
 608 672 608 672 567.5 672 c 128,-1,12
 527 672 527 672 500 696.5 c 128,-1,13
 473 721 473 721 473 768 c 128,-1,14
 473 815 473 815 507 844.5 c 128,-1,15
 541 874 541 874 581.5 874 c 128,-1,8
 622 874 622 874 648 850.5 c 128,-1,9
EndSplineSet
EndChar

StartChar: acute
Encoding: 180 180 58
Width: 492
Flags: HW
LayerCount: 2
Fore
SplineSet
148 672 m 1,0,-1
 94 672 l 1,1,2
 134.5 729 134.5 729 252 917 c 2,3,-1
 287 973 l 1,4,-1
 457 973 l 1,5,6
 443 959 443 959 378 892 c 0,7,8
 213.294117647 722.226244344 213.294117647 722.226244344 148 672 c 1,0,-1
EndSplineSet
EndChar

StartChar: grave
Encoding: 96 96 59
Width: 512
Flags: HW
LayerCount: 2
Fore
SplineSet
444 672 m 1,0,-1
 391 672 l 1,1,2
 316.314814815 748.703703704 316.314814815 748.703703704 137.5 917 c 2,3,-1
 78 973 l 1,4,-1
 248 973 l 1,5,6
 256 961 256 961 444 672 c 1,0,-1
EndSplineSet
EndChar

StartChar: ring
Encoding: 730 730 60
Width: 537
Flags: HW
LayerCount: 2
Fore
SplineSet
362 774 m 128,-1,1
 399 809 399 809 399 865 c 128,-1,2
 399 921 399 921 370 949 c 128,-1,3
 341 977 341 977 296 977 c 128,-1,4
 251 977 251 977 213.5 942 c 128,-1,5
 176 907 176 907 176 851.5 c 128,-1,6
 176 796 176 796 206 767.5 c 128,-1,7
 236 739 236 739 280.5 739 c 128,-1,0
 325 739 325 739 362 774 c 128,-1,1
421 994.5 m 128,-1,9
 469 951 469 951 469 864 c 128,-1,10
 469 777 469 777 412 726.5 c 128,-1,11
 355 676 355 676 281 676 c 128,-1,12
 207 676 207 676 155.5 720.5 c 128,-1,13
 104 765 104 765 104 849 c 128,-1,14
 104 933 104 933 164 985.5 c 128,-1,15
 224 1038 224 1038 298.5 1038 c 128,-1,8
 373 1038 373 1038 421 994.5 c 128,-1,9
EndSplineSet
EndChar

StartChar: dotlessi
Encoding: 305 305 61
Width: 484
Flags: HW
LayerCount: 2
Fore
SplineSet
112 10 m 128,-1,1
 88 36 88 36 88 81.5 c 128,-1,2
 88 127 88 127 111.5 205.5 c 128,-1,3
 135 284 135 284 158.5 348 c 128,-1,4
 182 412 182 412 182 433.5 c 128,-1,5
 182 455 182 455 168 455 c 0,6,7
 133 455 133 455 55 317 c 1,8,-1
 -12 356 l 1,9,10
 135 604 135 604 258 604 c 0,11,12
 342 604 342 604 342 498 c 0,13,14
 342 467 342 467 322 399 c 1,15,-1
 250 193 l 2,16,17
 239 164 239 164 239 140.5 c 128,-1,18
 239 117 239 117 257 117 c 0,19,20
 291 117 291 117 382 243 c 1,21,-1
 424 204 l 1,22,23
 370 104 370 104 295.5 44 c 128,-1,24
 221 -16 221 -16 178.5 -16 c 128,-1,0
 136 -16 136 -16 112 10 c 128,-1,1
EndSplineSet
EndChar

StartChar: z
Encoding: 122 122 62
Width: 692
Flags: HW
LayerCount: 2
Fore
SplineSet
111 55 m 1,0,1
 83.9323308271 42.3684210526 83.9323308271 42.3684210526 29 -2 c 1,2,-1
 -36 49 l 1,3,4
 -28.7684865238 68.8866620594 -28.7684865238 68.8866620594 163.115756738 264.44333103 c 128,-1,5
 355 460 355 460 369 475 c 1,6,7
 233 543 233 543 168 543 c 1,8,-1
 158 541 l 1,9,10
 201 498 201 498 201 461.5 c 128,-1,11
 201 425 201 425 170 404 c 128,-1,12
 139 383 139 383 101.5 383 c 128,-1,13
 64 383 64 383 37.5 405 c 128,-1,14
 11 427 11 427 11 465 c 0,15,16
 11 536 11 536 62.5 574 c 128,-1,17
 114 612 114 612 176.5 612 c 128,-1,18
 239 612 239 612 338 580.5 c 128,-1,19
 437 549 437 549 483.5 549 c 128,-1,20
 530 549 530 549 593 571 c 1,21,-1
 634 512 l 1,22,23
 593 432 593 432 517 432 c 0,24,25
 504 432 504 432 484 442 c 1,26,-1
 193 131 l 1,27,28
 246 131 246 131 333.5 91 c 128,-1,29
 421 51 421 51 470 49 c 1,30,31
 437 77 437 77 437 116.5 c 128,-1,32
 437 156 437 156 466 179.5 c 128,-1,33
 495 203 495 203 529.5 203 c 128,-1,34
 564 203 564 203 590.5 177.5 c 128,-1,35
 617 152 617 152 617 102.5 c 128,-1,36
 617 53 617 53 575 18.5 c 128,-1,37
 533 -16 533 -16 464 -16 c 0,38,39
 326.028571429 -16 326.028571429 -16 111 55 c 1,0,1
EndSplineSet
EndChar

StartChar: q
Encoding: 113 113 63
Width: 755
Flags: HW
LayerCount: 2
Fore
SplineSet
265 -498 m 1,0,-1
 235 -461 l 1,1,2
 285.886850153 -392.498470948 285.886850153 -392.498470948 317.943425076 -291.749235474 c 128,-1,3
 350 -191 350 -191 379.5 -95 c 128,-1,4
 409 1 409 1 425 51 c 1,5,6
 412.5 32.25 412.5 32.25 378.25 15.125 c 0,7,8
 316 -16 316 -16 253 -16 c 128,-1,9
 190 -16 190 -16 138.5 4 c 128,-1,10
 87 24 87 24 57 57.5 c 0,11,12
 -3 124.5 -3 124.5 -3 217.25 c 128,-1,13
 -3 310 -3 310 49.5 400 c 128,-1,14
 102 490 102 490 190.5 547 c 128,-1,15
 279 604 279 604 373.5 604 c 128,-1,16
 468 604 468 604 546 543 c 1,17,18
 595 671 595 671 646.5 749.5 c 128,-1,19
 698 828 698 828 778 891 c 1,20,-1
 807 863 l 1,21,22
 758.729903537 800.427652733 758.729903537 800.427652733 725 679 c 0,23,24
 715 643 715 643 695.5 555.5 c 128,-1,25
 676 468 676 468 671 449 c 2,26,-1
 550 -57 l 1,27,28
 519 -181 519 -181 442.5 -309 c 128,-1,29
 366 -437 366 -437 265 -498 c 1,0,-1
452 164 m 2,30,-1
 525 471 l 1,31,32
 470 516 470 516 406.5 516 c 128,-1,33
 343 516 343 516 281.5 461.5 c 128,-1,34
 220 407 220 407 185.5 330 c 128,-1,35
 151 253 151 253 151 189 c 128,-1,36
 151 125 151 125 182.5 85.5 c 128,-1,37
 214 46 214 46 280 46 c 0,38,39
 352.526315789 46 352.526315789 46 397.263157895 83.5 c 128,-1,40
 442 121 442 121 452 164 c 2,30,-1
EndSplineSet
EndChar

StartChar: V
Encoding: 86 86 64
Width: 1391
Flags: HW
LayerCount: 2
Fore
SplineSet
467 1442 m 0,0,1
 824 1442 824 1442 824 1022 c 0,2,3
 824 703 824 703 613 168 c 1,4,5
 904.323447637 323.638554217 904.323447637 323.638554217 1071 530 c 0,6,7
 1226.08737864 722.012944984 1226.08737864 722.012944984 1321 985 c 1,8,9
 1230 1030 1230 1030 1169 1101.5 c 128,-1,10
 1108 1173 1108 1173 1108 1255 c 128,-1,11
 1108 1337 1108 1337 1158 1389.5 c 128,-1,12
 1208 1442 1208 1442 1284 1442 c 128,-1,13
 1360 1442 1360 1442 1403 1387.5 c 128,-1,14
 1446 1333 1446 1333 1446 1236 c 128,-1,15
 1446 1139 1446 1139 1409 1010 c 1,16,17
 1481 973 1481 973 1561 956 c 1,18,-1
 1543 909 l 1,19,20
 1428 938 1428 938 1393 952 c 1,21,22
 1294 653 1294 653 1055.5 409.5 c 128,-1,23
 817 166 817 166 445 0 c 1,24,-1
 363 0 l 1,25,26
 426.799040192 125.235152969 426.799040192 125.235152969 499.399520096 363.117576485 c 0,27,28
 639 820.531914894 639 820.531914894 639 1077 c 0,29,30
 639 1382 639 1382 455 1382 c 0,31,32
 373 1382 373 1382 307 1340.5 c 128,-1,33
 241 1299 241 1299 200 1235 c 128,-1,34
 159 1171 159 1171 131.5 1088.5 c 0,35,36
 82 940 82 940 82 780 c 0,37,38
 82 644.487804878 82 644.487804878 112 544.243902439 c 0,39,40
 166.053896327 363.624785445 166.053896327 363.624785445 273 293 c 1,41,-1
 226 254 l 1,42,43
 120 343 120 343 70.5 489 c 128,-1,44
 21 635 21 635 21 757 c 128,-1,45
 21 879 21 879 36 966 c 128,-1,46
 51 1053 51 1053 85.5 1139.5 c 128,-1,47
 120 1226 120 1226 170 1292.5 c 128,-1,48
 220 1359 220 1359 297 1400.5 c 128,-1,49
 374 1442 374 1442 467 1442 c 0,0,1
1245 1318.5 m 128,-1,51
 1219 1291 1219 1291 1219 1243.5 c 128,-1,52
 1219 1196 1219 1196 1253.5 1142.5 c 128,-1,53
 1288 1089 1288 1089 1342 1049 c 1,54,55
 1375 1168 1375 1168 1375 1229.5 c 0,56,57
 1375 1346 1375 1346 1307 1346 c 0,58,50
 1271 1346 1271 1346 1245 1318.5 c 128,-1,51
EndSplineSet
EndChar

StartChar: W
Encoding: 87 87 65
Width: 1993
Flags: HW
LayerCount: 2
Fore
SplineSet
1254 0 m 1,0,-1
 1172 0 l 1,1,2
 1215.89333333 197.52 1215.89333333 197.52 1350 908 c 2,3,-1
 1397 1157 l 1,4,5
 1271 1002 1271 1002 1091.5 740 c 128,-1,6
 912 478 912 478 597 0 c 1,7,-1
 412 0 l 1,8,9
 474.93465129 119.126304228 474.93465129 119.126304228 548.467325645 360.063152114 c 0,10,11
 689 820.531914894 689 820.531914894 689 1077 c 0,12,13
 689 1382 689 1382 504 1382 c 0,14,15
 423 1382 423 1382 357 1340.5 c 128,-1,16
 291 1299 291 1299 250 1235 c 128,-1,17
 209 1171 209 1171 181.5 1088.5 c 0,18,19
 132 940 132 940 132 787 c 128,-1,20
 132 634 132 634 177 497 c 128,-1,21
 222 360 222 360 322 293 c 1,22,-1
 275 254 l 1,23,24
 169 343 169 343 119.5 489 c 128,-1,25
 70 635 70 635 70 757 c 128,-1,26
 70 879 70 879 85 966 c 128,-1,27
 100 1053 100 1053 134.5 1139.5 c 128,-1,28
 169 1226 169 1226 219 1292.5 c 128,-1,29
 269 1359 269 1359 346.5 1400.5 c 128,-1,30
 424 1442 424 1442 519.5 1442 c 128,-1,31
 615 1442 615 1442 686 1409.5 c 128,-1,32
 757 1377 757 1377 797 1318 c 0,33,34
 873 1205.9 873 1205.9 873 1022 c 0,35,36
 873 729 873 729 662 229 c 1,37,38
 991.586466165 784.303258145 991.586466165 784.303258145 1179.5 1031 c 0,39,40
 1350.25527426 1255.17102672 1350.25527426 1255.17102672 1494 1374 c 1,41,-1
 1565 1341 l 1,42,-1
 1385 175 l 1,43,44
 1602 322 1602 322 1738.5 534 c 128,-1,45
 1875 746 1875 746 1920 985 c 1,46,47
 1822 1031 1822 1031 1752 1107 c 128,-1,48
 1682 1183 1682 1183 1682 1264.5 c 128,-1,49
 1682 1346 1682 1346 1725.5 1394 c 128,-1,50
 1769 1442 1769 1442 1829.5 1442 c 128,-1,51
 1890 1442 1890 1442 1926.5 1420 c 128,-1,52
 1963 1398 1963 1398 1983 1360.5 c 0,53,54
 2022 1287.375 2022 1287.375 2022 1194.1875 c 128,-1,55
 2022 1101 2022 1101 2006 1010 c 1,56,57
 2078 973 2078 973 2161 956 c 1,58,-1
 2147 909 l 1,59,60
 2020 941 2020 941 1993 952 c 1,61,62
 1930 653 1930 653 1744 409.5 c 128,-1,63
 1558 166 1558 166 1254 0 c 1,0,-1
1793 1255 m 1,64,65
 1804 1140 1804 1140 1934 1049 c 1,66,67
 1950 1127 1950 1127 1950 1178 c 128,-1,68
 1950 1229 1950 1229 1948.5 1246 c 128,-1,69
 1947 1263 1947 1263 1941 1290 c 0,70,71
 1928.55555556 1346 1928.55555556 1346 1875 1346 c 0,72,73
 1840 1346 1840 1346 1816.5 1321 c 128,-1,74
 1793 1296 1793 1296 1793 1262 c 2,75,-1
 1793 1255 l 1,64,65
EndSplineSet
EndChar

StartChar: Z
Encoding: 90 90 66
Width: 1761
Flags: HW
LayerCount: 2
Fore
SplineSet
375 811 m 0,0,1
 525 811 525 811 621 907 c 1,2,-1
 676 870 l 1,3,4
 618 817 618 817 527.5 786.5 c 128,-1,5
 437 756 437 756 323 756 c 128,-1,6
 209 756 209 756 120 827 c 128,-1,7
 31 898 31 898 31 1040 c 0,8,9
 31 1210 31 1210 186 1326 c 128,-1,10
 341 1442 341 1442 605 1442 c 0,11,12
 738 1442 738 1442 857 1405 c 128,-1,13
 976 1368 976 1368 1046 1323.5 c 128,-1,14
 1116 1279 1116 1279 1201.5 1221.5 c 128,-1,15
 1287 1164 1287 1164 1338 1141 c 1,16,17
 1405 1213 1405 1213 1492.5 1253.5 c 128,-1,18
 1580 1294 1580 1294 1660 1294 c 128,-1,19
 1740 1294 1740 1294 1790.5 1254.5 c 128,-1,20
 1841 1215 1841 1215 1841 1134.5 c 128,-1,21
 1841 1054 1841 1054 1752.5 1004.5 c 128,-1,22
 1664 955 1664 955 1553 955 c 128,-1,23
 1442 955 1442 955 1358 985 c 1,24,-1
 1205 733 l 1,25,-1
 1608 733 l 1,26,-1
 1637 674 l 1,27,-1
 1169 674 l 1,28,-1
 934 295 l 1,29,30
 1009 229 1009 229 1160 166.5 c 128,-1,31
 1311 104 1311 104 1397 104 c 0,32,33
 1582.64705882 104 1582.64705882 104 1616 293 c 1,34,-1
 1710 279 l 1,35,36
 1710 158 1710 158 1599.5 67.5 c 128,-1,37
 1489 -23 1489 -23 1319 -23 c 0,38,39
 1164.32258065 -23 1164.32258065 -23 968.5 83.5 c 0,40,41
 940 99 940 99 886.5 130.5 c 128,-1,42
 833 162 833 162 811 174 c 1,43,44
 625 -23 625 -23 406 -23 c 0,45,46
 242 -23 242 -23 158 53 c 128,-1,47
 74 129 74 129 74 242 c 0,48,49
 74 350.444444444 74 350.444444444 169 437 c 0,50,51
 269.975609756 529 269.975609756 529 435 529 c 0,52,53
 579.902439024 529 579.902439024 529 762.5 420.5 c 0,54,55
 797 400 797 400 860 361 c 1,56,-1
 1056 674 l 1,57,-1
 684 674 l 1,58,-1
 738 733 l 1,59,-1
 1092 733 l 1,60,-1
 1266 1016 l 1,61,62
 1076.91164095 1091.9887798 1076.91164095 1091.9887798 913.5 1213.5 c 0,63,64
 855 1257 855 1257 794.5 1296 c 0,65,66
 667.294871795 1378 667.294871795 1378 505 1378 c 0,67,68
 418 1378 418 1378 345.5 1348 c 128,-1,69
 273 1318 273 1318 227.5 1270 c 0,70,71
 133 1170.30769231 133 1170.30769231 133 1050.65384615 c 128,-1,72
 133 931 133 931 203.5 871 c 128,-1,73
 274 811 274 811 375 811 c 0,0,1
738 225 m 1,74,75
 660 287 660 287 532.5 343 c 128,-1,76
 405 399 405 399 316 399 c 128,-1,77
 227 399 227 399 183.5 353 c 128,-1,78
 140 307 140 307 140 237 c 128,-1,79
 140 167 140 167 205 110 c 128,-1,80
 270 53 270 53 394 53 c 0,81,82
 580 53 580 53 738 225 c 1,74,75
1413 1100 m 1,83,84
 1494 1061 1494 1061 1578.5 1061 c 128,-1,85
 1663 1061 1663 1061 1713.5 1085.5 c 128,-1,86
 1764 1110 1764 1110 1764 1147 c 128,-1,87
 1764 1184 1764 1184 1739 1203.5 c 128,-1,88
 1714 1223 1714 1223 1664.5 1223 c 128,-1,89
 1615 1223 1615 1223 1544 1190 c 128,-1,90
 1473 1157 1473 1157 1413 1100 c 1,83,84
EndSplineSet
EndChar

StartChar: v
Encoding: 118 118 67
Width: 801
Flags: HW
LayerCount: 2
Fore
SplineSet
272 96 m 0,0,1
 357 96 357 96 444 156 c 128,-1,2
 531 216 531 216 583 296.5 c 128,-1,3
 635 377 635 377 635 440 c 1,4,5
 629 432 629 432 591.5 432 c 0,6,7
 554 432 554 432 531 456.5 c 128,-1,8
 508 481 508 481 508 515.5 c 0,9,10
 508 550 508 550 534 577 c 128,-1,11
 560 604 560 604 606 604 c 0,12,13
 733 604 733 604 733 465 c 0,14,15
 733 402 733 402 694 321 c 128,-1,16
 655 240 655 240 587.5 164 c 128,-1,17
 520 88 520 88 413.5 36 c 128,-1,18
 307 -16 307 -16 188.5 -16 c 0,19,20
 70 -16 70 -16 70 99 c 0,21,22
 70 164 70 164 107.5 275.5 c 128,-1,23
 145 387 145 387 145 418 c 0,24,25
 145 449 145 449 127 449 c 0,26,27
 100 449 100 449 20 319 c 1,28,-1
 -45 356 l 1,29,30
 102 604 102 604 225 604 c 0,31,32
 258 604 258 604 282.5 579.5 c 128,-1,33
 307 555 307 555 307 499.5 c 0,34,35
 307 444 307 444 267 295 c 128,-1,36
 227 146 227 146 227 137 c 0,37,38
 227 96 227 96 272 96 c 0,0,1
EndSplineSet
EndChar

StartChar: dollar
Encoding: 36 36 68
Width: 897
Flags: HW
LayerCount: 2
Fore
SplineSet
154.5 277.5 m 128,-1,1
 183 248 183 248 183 199.982758621 c 128,-1,2
 183 151.965517241 183 151.965517241 113 123 c 1,3,-1
 111 123 l 1,4,5
 198 65 198 65 351 57 c 1,6,-1
 407 373 l 1,7,8
 277.381247328 420.321131928 277.381247328 420.321131928 231.118661644 450.48266122 c 0,9,10
 144.648508023 508.225461898 144.648508023 508.225461898 144 594 c 0,11,12
 144 746.709677419 144 746.709677419 301.5 828 c 0,13,14
 385.319054653 871.261447563 385.319054653 871.261447563 497 882 c 1,15,-1
 525 1042 l 1,16,-1
 589 1026 l 1,17,-1
 564 885 l 1,18,19
 656.37037037 882.851851852 656.37037037 882.851851852 721.185185185 856.925925926 c 0,20,21
 842 808.6 842 808.6 842 717 c 0,22,23
 842 671 842 671 816 638.5 c 128,-1,24
 790 606 790 606 750.5 606 c 128,-1,25
 711 606 711 606 685.5 631.5 c 128,-1,26
 660 657 660 657 660 697 c 128,-1,27
 660 737 660 737 726 780 c 1,28,-1
 728 780 l 1,29,30
 667 823 667 823 568 823 c 2,31,-1
 553 823 l 1,32,-1
 506 557 l 1,33,34
 679.485714286 492.368067227 679.485714286 492.368067227 736.5 432 c 0,35,36
 799 365.823529412 799 365.823529412 799 286.411764706 c 128,-1,37
 799 207 799 207 762.5 149 c 128,-1,38
 726 91 726 91 666.5 55.5 c 0,39,40
 547.028401585 -15.7813738441 547.028401585 -15.7813738441 404 -22 c 1,41,-1
 357 -293 l 1,42,-1
 292 -281 l 1,43,-1
 337 -22 l 1,44,45
 92.5539481615 -6.05786618445 92.5539481615 -6.05786618445 23 112.5 c 0,46,47
 1 150 1 150 1 194 c 128,-1,48
 1 238 1 238 22.5 272.5 c 128,-1,49
 44 307 44 307 85 307 c 128,-1,0
 126 307 126 307 154.5 277.5 c 128,-1,1
609 205 m 128,-1,51
 609 254 609 254 572.5 287 c 128,-1,52
 536 320 536 320 469 348 c 1,53,-1
 418 58 l 1,54,55
 526.952440162 64.5371464097 526.952440162 64.5371464097 578.5 122 c 0,56,50
 609 156 609 156 609 205 c 128,-1,51
298 700 m 0,57,58
 298 662 298 662 335 635.5 c 128,-1,59
 372 609 372 609 444 581 c 1,60,-1
 485 818 l 1,61,62
 298 796 298 796 298 700 c 0,57,58
EndSplineSet
EndChar

StartChar: Oslash
Encoding: 216 216 69
Width: 1442
Flags: HW
LayerCount: 2
Fore
SplineSet
152 -283 m 1,0,-1
 1380 1772 l 1,1,-1
 1426 1737 l 1,2,-1
 199 -315 l 1,3,-1
 152 -283 l 1,0,-1
429.5 613.5 m 128,-1,5
 362 697 362 697 362 816 c 128,-1,6
 362 935 362 935 412.5 1048.5 c 128,-1,7
 463 1162 463 1162 545 1248.5 c 128,-1,8
 627 1335 627 1335 739 1388.5 c 128,-1,9
 851 1442 851 1442 962 1442 c 128,-1,10
 1073 1442 1073 1442 1167 1408.5 c 128,-1,11
 1261 1375 1261 1375 1333.5 1313 c 128,-1,12
 1406 1251 1406 1251 1449 1155.5 c 128,-1,13
 1492 1060 1492 1060 1492 930 c 128,-1,14
 1492 800 1492 800 1445.5 657.5 c 128,-1,15
 1399 515 1399 515 1312.5 393.5 c 128,-1,16
 1226 272 1226 272 1111 178 c 128,-1,17
 996 84 996 84 849 30.5 c 128,-1,18
 702 -23 702 -23 546 -23 c 0,19,20
 294 -23 294 -23 157 106.5 c 128,-1,21
 20 236 20 236 20 475 c 0,22,23
 20 738.21656051 20 738.21656051 176.5 962.5 c 0,24,25
 255 1075 255 1075 362 1148 c 1,26,-1
 392 1111 l 1,27,28
 304 1005 304 1005 253 846 c 128,-1,29
 202 687 202 687 202 557.5 c 128,-1,30
 202 428 202 428 224.5 341.5 c 128,-1,31
 247 255 247 255 292.5 185.5 c 0,32,33
 389.71942446 37 389.71942446 37 587 37 c 0,34,35
 868.011235955 37 868.011235955 37 1077 337 c 0,36,37
 1195.16651625 506.626128159 1195.16651625 506.626128159 1244 728.5 c 0,38,39
 1267 833 1267 833 1267 928 c 128,-1,40
 1267 1023 1267 1023 1247.5 1100.5 c 128,-1,41
 1228 1178 1228 1178 1188.5 1239 c 0,42,43
 1104.96721311 1368 1104.96721311 1368 929 1368 c 0,44,45
 797 1368 797 1368 688 1286 c 128,-1,46
 579 1204 579 1204 520.5 1077.5 c 128,-1,47
 462 951 462 951 462 827 c 128,-1,48
 462 703 462 703 504 649.5 c 128,-1,49
 546 596 546 596 613.5 596 c 128,-1,50
 681 596 681 596 750.5 639.5 c 128,-1,51
 820 683 820 683 869 759 c 128,-1,52
 918 835 918 835 921 918 c 1,53,-1
 1017 934 l 1,54,55
 1017 830 1017 830 962.5 736.5 c 128,-1,56
 908 643 908 643 815.5 586.5 c 128,-1,57
 723 530 723 530 610 530 c 128,-1,4
 497 530 497 530 429.5 613.5 c 128,-1,5
EndSplineSet
EndChar

StartChar: slash
Encoding: 47 47 70
Width: 1096
Flags: HW
LayerCount: 2
Fore
SplineSet
-82 -283 m 1,0,-1
 1146 1772 l 1,1,-1
 1192 1737 l 1,2,-1
 -35 -315 l 1,3,-1
 -82 -283 l 1,0,-1
EndSplineSet
EndChar

StartChar: parenright
Encoding: 41 41 71
Width: 660
Flags: HW
LayerCount: 2
Fore
SplineSet
-11 -270 m 1,0,-1
 -42 -219 l 1,1,2
 61 -149 61 -149 154 6 c 128,-1,3
 247 161 247 161 307 336.5 c 0,4,5
 438 719.675 438 719.675 438 985.3375 c 128,-1,6
 438 1251 438 1251 372 1380 c 1,7,-1
 425 1410 l 1,8,9
 483 1345 483 1345 517.5 1223 c 128,-1,10
 552 1101 552 1101 552 920.5 c 128,-1,11
 552 740 552 740 504 541.5 c 128,-1,12
 456 343 456 343 376.5 186.5 c 128,-1,13
 297 30 297 30 196.5 -89 c 128,-1,14
 96 -208 96 -208 -11 -270 c 1,0,-1
EndSplineSet
EndChar

StartChar: parenleft
Encoding: 40 40 72
Width: 571
Flags: HW
LayerCount: 2
Fore
SplineSet
343 -220 m 1,0,-1
 313 -248 l 1,1,2
 126 -76 126 -76 126 236 c 0,3,4
 126 418 126 418 190.5 621.5 c 128,-1,5
 255 825 255 825 355 991.5 c 128,-1,6
 455 1158 455 1158 582.5 1280 c 128,-1,7
 710 1402 710 1402 829 1434 c 1,8,-1
 855 1380 l 1,9,10
 724 1336 724 1336 609.5 1204.5 c 128,-1,11
 495 1073 495 1073 420.5 900 c 0,12,13
 261 529.617449664 261 529.617449664 261 164 c 0,14,15
 261 -71 261 -71 343 -220 c 1,0,-1
EndSplineSet
EndChar

StartChar: colon
Encoding: 58 58 73
Width: 463
Flags: HW
LayerCount: 2
Fore
SplineSet
251 156.5 m 128,-1,1
 277 133 277 133 277 84.5 c 128,-1,2
 277 36 277 36 244.5 6.5 c 128,-1,3
 212 -23 212 -23 171 -23 c 128,-1,4
 130 -23 130 -23 103 2 c 128,-1,5
 76 27 76 27 76 74 c 128,-1,6
 76 121 76 121 110 150.5 c 128,-1,7
 144 180 144 180 184.5 180 c 128,-1,0
 225 180 225 180 251 156.5 c 128,-1,1
347 558 m 128,-1,9
 373 534 373 534 373 486 c 128,-1,10
 373 438 373 438 340.5 408.5 c 128,-1,11
 308 379 308 379 267.5 379 c 128,-1,12
 227 379 227 379 200 403.5 c 128,-1,13
 173 428 173 428 173 475.5 c 128,-1,14
 173 523 173 523 206.5 552.5 c 128,-1,15
 240 582 240 582 280.5 582 c 128,-1,8
 321 582 321 582 347 558 c 128,-1,9
EndSplineSet
EndChar

StartChar: semicolon
Encoding: 59 59 74
Width: 446
Flags: HW
LayerCount: 2
Fore
SplineSet
91 -229 m 1,0,-1
 59 -229 l 1,1,2
 114 0 114 0 128 92 c 1,3,-1
 298 147 l 1,4,5
 298 100 298 100 219 -38 c 128,-1,6
 140 -176 140 -176 91 -229 c 1,0,-1
313 558 m 128,-1,8
 339 534 339 534 339 486 c 128,-1,9
 339 438 339 438 306.5 408.5 c 128,-1,10
 274 379 274 379 233.5 379 c 128,-1,11
 193 379 193 379 166 403.5 c 128,-1,12
 139 428 139 428 139 475.5 c 128,-1,13
 139 523 139 523 172.5 552.5 c 128,-1,14
 206 582 206 582 246.5 582 c 128,-1,7
 287 582 287 582 313 558 c 128,-1,8
EndSplineSet
EndChar

StartChar: oslash
Encoding: 248 248 75
Width: 775
Flags: HW
LayerCount: 2
Fore
SplineSet
79 -263 m 1,0,-1
 40 -238 l 1,1,-1
 610 860 l 1,2,-1
 648 836 l 1,3,-1
 79 -263 l 1,0,-1
-1 238 m 0,4,5
 -1 313 -1 313 35.5 382.5 c 128,-1,6
 72 452 72 452 130 499.5 c 0,7,8
 257.6 604 257.6 604 390.8 604 c 128,-1,9
 524 604 524 604 609 533 c 128,-1,10
 694 462 694 462 694 355.5 c 128,-1,11
 694 249 694 249 635.5 164 c 128,-1,12
 577 79 577 79 481 31.5 c 128,-1,13
 385 -16 385 -16 271.5 -16 c 128,-1,14
 158 -16 158 -16 78.5 55.5 c 128,-1,15
 -1 127 -1 127 -1 238 c 0,4,5
326.5 46 m 0,16,17
 372 46 372 46 412.5 76 c 128,-1,18
 453 106 453 106 474 153.5 c 0,19,20
 515 246.238095238 515 246.238095238 515 344.119047619 c 128,-1,21
 515 442 515 442 479 492.5 c 128,-1,22
 443 543 443 543 377 543 c 128,-1,23
 311 543 311 543 246.5 457 c 128,-1,24
 182 371 182 371 182 238.2 c 0,25,26
 182 46 182 46 326.5 46 c 0,16,17
EndSplineSet
EndChar

StartChar: one
Encoding: 49 49 76
Width: 533
Flags: HW
LayerCount: 2
Fore
SplineSet
266 0 m 1,0,-1
 94 0 l 1,1,-1
 111 66 l 1,2,3
 259 670 259 670 269 705 c 1,4,5
 249 692 249 692 119 633 c 1,6,-1
 84 682 l 1,7,8
 205.381294964 737.633093525 205.381294964 737.633093525 276.190647482 783.316546763 c 128,-1,9
 347 829 347 829 376 846 c 1,10,-1
 459 846 l 1,11,-1
 266 0 l 1,0,-1
291 100 m 1,12,-1
 290 95 l 1,13,14
 290 73 290 73 323 56 c 128,-1,15
 356 39 356 39 389 37 c 1,16,-1
 385 0 l 1,17,-1
 -2 0 l 1,18,-1
 2 37 l 1,19,20
 38.3333333333 37 38.3333333333 37 67.6666666667 53 c 0,21,22
 111.259259259 76.7777777778 111.259259259 76.7777777778 119 100 c 1,23,-1
 291 100 l 1,12,-1
EndSplineSet
EndChar

StartChar: four
Encoding: 52 52 77
Width: 810
Flags: HW
LayerCount: 2
Fore
SplineSet
611 281 m 2,0,-1
 529 281 l 1,1,-1
 486 98 l 1,2,3
 491 74 491 74 531 58.5 c 128,-1,4
 571 43 571 43 613 41 c 1,5,-1
 609 0 l 1,6,-1
 171 0 l 1,7,-1
 175 41 l 1,8,9
 233.933333333 41 233.933333333 41 292 74.5 c 0,10,11
 305 82 305 82 312 91 c 1,12,-1
 357 281 l 1,13,-1
 30 281 l 1,14,-1
 15 334 l 1,15,-1
 605 866 l 1,16,-1
 662 866 l 1,17,-1
 544 342 l 1,18,-1
 625 342 l 1,19,20
 651 345 651 345 681.5 389 c 128,-1,21
 712 433 712 433 724 475 c 1,22,-1
 757 475 l 1,23,-1
 689 137 l 1,24,-1
 656 137 l 1,25,26
 656 200 656 200 642.5 240.5 c 128,-1,27
 629 281 629 281 611 281 c 2,0,-1
447 649 m 1,28,-1
 124 342 l 1,29,-1
 372 342 l 1,30,-1
 447 649 l 1,28,-1
EndSplineSet
EndChar

StartChar: Ph
Encoding: 65538 -1 78
Width: 2110
Flags: HW
LayerCount: 2
Fore
SplineSet
1759 259 m 128,-1,1
 1801 374 1801 374 1801 423.5 c 128,-1,2
 1801 473 1801 473 1766.5 473 c 128,-1,3
 1732 473 1732 473 1683 424.5 c 128,-1,4
 1634 376 1634 376 1589 306.5 c 0,5,6
 1515.31627057 192.699573431 1515.31627057 192.699573431 1439.5 48.5 c 2,7,-1
 1414 0 l 1,8,-1
 1270 0 l 1,9,10
 1285 56 1285 56 1323.5 256 c 128,-1,11
 1362 456 1362 456 1390 578 c 1,12,13
 1312 565 1312 565 1242 565 c 1,14,-1
 1260 624 l 1,15,-1
 1406 645 l 1,16,17
 1516 1080 1516 1080 1670 1288 c 1,18,19
 1585 1318 1585 1318 1486 1334 c 1,20,21
 1295 1133 1295 1133 1192 569 c 1,22,23
 1128.43272274 213.601131677 1128.43272274 213.601131677 828 65 c 0,24,25
 650.086956522 -23 650.086956522 -23 412 -23 c 0,26,27
 191.267605634 -23 191.267605634 -23 81.5 120 c 0,28,29
 27 191 27 191 27 272 c 128,-1,30
 27 353 27 353 54 411.5 c 128,-1,31
 81 470 81 470 125.5 509 c 128,-1,32
 170 548 170 548 229.5 575 c 0,33,34
 339.358301386 624.851666175 339.358301386 624.851666175 479 627 c 1,35,36
 479 789 479 789 542.5 936.5 c 128,-1,37
 606 1084 606 1084 718 1196.5 c 128,-1,38
 830 1309 830 1309 997 1375.5 c 128,-1,39
 1164 1442 1164 1442 1368.5 1442 c 128,-1,40
 1573 1442 1573 1442 1746 1375 c 1,41,42
 1878 1501 1878 1501 2042 1501 c 0,43,44
 2121 1501 2121 1501 2178.5 1461 c 128,-1,45
 2236 1421 2236 1421 2236 1340 c 0,46,47
 2236 1293 2236 1293 2204.5 1267 c 128,-1,48
 2173 1241 2173 1241 2130.5 1241 c 128,-1,49
 2088 1241 2088 1241 2058.5 1265.5 c 128,-1,50
 2029 1290 2029 1290 2029 1326 c 128,-1,51
 2029 1362 2029 1362 2056 1405 c 1,52,53
 2025 1421 2025 1421 1997 1421 c 0,54,55
 1895 1421 1895 1421 1820 1341 c 1,56,57
 1934 1280 1934 1280 1996.5 1194 c 128,-1,58
 2059 1108 2059 1108 2059 1015 c 0,59,60
 2059 886 2059 886 1936.5 777.5 c 128,-1,61
 1814 669 1814 669 1576 619 c 1,62,63
 1518 336 1518 336 1463 219 c 1,64,65
 1469 229 1469 229 1487.5 261.5 c 128,-1,66
 1506 294 1506 294 1516 310.5 c 128,-1,67
 1526 327 1526 327 1546.5 360 c 128,-1,68
 1567 393 1567 393 1581 412.5 c 128,-1,69
 1595 432 1595 432 1617.5 461 c 128,-1,70
 1640 490 1640 490 1657.5 507.5 c 128,-1,71
 1675 525 1675 525 1699 545.5 c 128,-1,72
 1723 566 1723 566 1745 577.5 c 0,73,74
 1795.69565217 604 1795.69565217 604 1853.84782609 604 c 128,-1,75
 1912 604 1912 604 1941.5 572 c 128,-1,76
 1971 540 1971 540 1971 486 c 128,-1,77
 1971 432 1971 432 1921 304.5 c 128,-1,78
 1871 177 1871 177 1871 147 c 128,-1,79
 1871 117 1871 117 1887 117 c 0,80,81
 1929.33333333 117 1929.33333333 117 2014 244 c 1,82,-1
 2057 204 l 1,83,84
 1993 94 1993 94 1923.5 39 c 128,-1,85
 1854 -16 1854 -16 1809.5 -16 c 128,-1,86
 1765 -16 1765 -16 1741 12 c 128,-1,87
 1717 40 1717 40 1717 92 c 128,-1,0
 1717 144 1717 144 1759 259 c 128,-1,1
135.5 384 m 128,-1,89
 96 332 96 332 96 271 c 128,-1,90
 96 210 96 210 128.5 165 c 128,-1,91
 161 120 161 120 212 93.5 c 0,92,93
 316.886792453 39 316.886792453 39 428 39 c 0,94,95
 610 39 610 39 756.5 150 c 128,-1,96
 903 261 903 261 979 436 c 0,97,98
 1009 506 1009 506 1043 651.5 c 128,-1,99
 1077 797 1077 797 1096 852 c 0,100,101
 1219 1221 1219 1221 1412 1344 c 1,102,103
 1353 1354 1353 1354 1290 1354 c 0,104,105
 1137 1354 1137 1354 999.5 1294 c 128,-1,106
 862 1234 862 1234 764.5 1134 c 128,-1,107
 667 1034 667 1034 610 900 c 128,-1,108
 553 766 553 766 553 623 c 1,109,110
 692 602 692 602 832 508 c 1,111,-1
 789 442 l 1,112,113
 734 473 734 473 663.5 497.5 c 128,-1,114
 593 522 593 522 555 522 c 1,115,116
 555 500 555 500 571 432 c 128,-1,117
 587 364 587 364 608 307 c 1,118,-1
 549 289 l 1,119,120
 525 327 525 327 507.5 403.5 c 128,-1,121
 490 480 490 480 485 522 c 1,122,123
 360.578947368 522 360.578947368 522 236.5 464.5 c 0,124,88
 175 436 175 436 135.5 384 c 128,-1,89
1588 683 m 1,125,126
 1752 737 1752 737 1841 826 c 128,-1,127
 1930 915 1930 915 1930 1013 c 0,128,129
 1930 1156 1930 1156 1754 1251 c 1,130,131
 1682.97487437 1122.38693467 1682.97487437 1122.38693467 1633 897.5 c 0,132,133
 1616 821 1616 821 1588 683 c 1,125,126
EndSplineSet
EndChar

StartChar: Pi
Encoding: 928 928 79
Width: 1842
Flags: HW
LayerCount: 2
Fore
SplineSet
46.5 120 m 0,0,1
 -17 191 -17 191 -17 272 c 128,-1,2
 -17 353 -17 353 10 411.5 c 128,-1,3
 37 470 37 470 81.5 509 c 128,-1,4
 126 548 126 548 185.5 575 c 0,5,6
 295.358301386 624.851666175 295.358301386 624.851666175 435 627 c 1,7,8
 444 792 444 792 506.5 940 c 128,-1,9
 569 1088 569 1088 672 1199.5 c 128,-1,10
 775 1311 775 1311 924 1376.5 c 128,-1,11
 1073 1442 1073 1442 1250 1442 c 128,-1,12
 1427 1442 1427 1442 1541 1356 c 128,-1,13
 1655 1270 1655 1270 1655 1143.5 c 128,-1,14
 1655 1017 1655 1017 1575 875.5 c 128,-1,15
 1495 734 1495 734 1366.5 631 c 128,-1,16
 1238 528 1238 528 1108 510 c 1,17,18
 1028 249 1028 249 857.5 113 c 128,-1,19
 687 -23 687 -23 428 -23 c 0,20,21
 174.394366197 -23 174.394366197 -23 46.5 120 c 0,0,1
91.5 384 m 128,-1,23
 52 332 52 332 52 271 c 128,-1,24
 52 210 52 210 88.5 164.5 c 128,-1,25
 125 119 125 119 182 93 c 0,26,27
 300.384615385 39 300.384615385 39 401.692307692 39 c 128,-1,28
 503 39 503 39 570 61.5 c 128,-1,29
 637 84 637 84 685.5 120 c 128,-1,30
 734 156 734 156 776 212.5 c 128,-1,31
 818 269 818 269 845 324 c 128,-1,32
 872 379 872 379 899.5 454.5 c 128,-1,33
 927 530 927 530 943.5 589 c 0,34,35
 991.263157895 759.789473684 991.263157895 759.789473684 1022 852 c 0,36,37
 1135 1190 1135 1190 1337 1319 c 1,38,39
 1248.5 1352 1248.5 1352 1139.25 1352 c 128,-1,40
 1030 1352 1030 1352 907.5 1289.5 c 128,-1,41
 785 1227 785 1227 698.5 1125.5 c 128,-1,42
 612 1024 612 1024 560.5 891.5 c 128,-1,43
 509 759 509 759 509 623 c 1,44,45
 648 602 648 602 788 508 c 1,46,-1
 745 442 l 1,47,48
 605 522 605 522 511 522 c 1,49,50
 511 500 511 500 527 432 c 128,-1,51
 543 364 543 364 564 307 c 1,52,-1
 505 289 l 1,53,54
 481 327 481 327 463.5 403.5 c 128,-1,55
 446 480 446 480 441 522 c 1,56,57
 316.578947368 522 316.578947368 522 192.5 464.5 c 0,58,22
 131 436 131 436 91.5 384 c 128,-1,23
1411 1282 m 1,59,60
 1298 1170 1298 1170 1225 982 c 128,-1,61
 1152 794 1152 794 1122 569 c 1,62,63
 1211 605 1211 605 1303.5 690 c 128,-1,64
 1396 775 1396 775 1460.5 885.5 c 128,-1,65
 1525 996 1525 996 1525 1090 c 0,66,67
 1525 1216 1525 1216 1411 1282 c 1,59,60
1470 10 m 128,-1,69
 1446 36 1446 36 1446 81.5 c 128,-1,70
 1446 127 1446 127 1469.5 205.5 c 128,-1,71
 1493 284 1493 284 1516.5 348 c 128,-1,72
 1540 412 1540 412 1540 433.5 c 128,-1,73
 1540 455 1540 455 1526 455 c 0,74,75
 1491 455 1491 455 1413 317 c 1,76,-1
 1346 356 l 1,77,78
 1493 604 1493 604 1616 604 c 0,79,80
 1700 604 1700 604 1700 498 c 0,81,82
 1700 467 1700 467 1680 399 c 1,83,-1
 1608 193 l 2,84,85
 1597 164 1597 164 1597 140.5 c 128,-1,86
 1597 117 1597 117 1615 117 c 0,87,88
 1649 117 1649 117 1740 243 c 1,89,-1
 1782 204 l 1,90,91
 1728 104 1728 104 1653.5 44 c 128,-1,92
 1579 -16 1579 -16 1536.5 -16 c 128,-1,68
 1494 -16 1494 -16 1470 10 c 128,-1,69
1806 776 m 128,-1,94
 1779 743 1779 743 1733 743 c 128,-1,95
 1687 743 1687 743 1664 770.5 c 128,-1,96
 1641 798 1641 798 1641 840 c 128,-1,97
 1641 882 1641 882 1669.5 914.5 c 128,-1,98
 1698 947 1698 947 1743 947 c 128,-1,99
 1788 947 1788 947 1810.5 918.5 c 128,-1,100
 1833 890 1833 890 1833 849.5 c 128,-1,93
 1833 809 1833 809 1806 776 c 128,-1,94
EndSplineSet
EndChar

StartChar: Qu
Encoding: 65539 -1 80
Width: 2326
Flags: HW
LayerCount: 2
Fore
SplineSet
429.5 613.5 m 128,-1,1
 362 697 362 697 362 816 c 128,-1,2
 362 935 362 935 412.5 1048.5 c 128,-1,3
 463 1162 463 1162 545 1248.5 c 128,-1,4
 627 1335 627 1335 739 1388.5 c 128,-1,5
 851 1442 851 1442 962 1442 c 128,-1,6
 1073 1442 1073 1442 1167 1408.5 c 128,-1,7
 1261 1375 1261 1375 1333.5 1313 c 128,-1,8
 1406 1251 1406 1251 1449 1155.5 c 128,-1,9
 1492 1060 1492 1060 1492 914 c 128,-1,10
 1492 768 1492 768 1422 596.5 c 128,-1,11
 1352 425 1352 425 1232.5 291.5 c 128,-1,12
 1113 158 1113 158 942.5 72 c 128,-1,13
 772 -14 772 -14 583 -22 c 1,14,-1
 523 -111 l 1,15,16
 674 -134 674 -134 897.5 -177 c 128,-1,17
 1121 -220 1121 -220 1275 -247 c 128,-1,18
 1429 -274 1429 -274 1507 -274 c 0,19,20
 1710 -274 1710 -274 1927 -139 c 1,21,-1
 1970 -170 l 1,22,23
 1953 -182 1953 -182 1907.5 -218 c 128,-1,24
 1862 -254 1862 -254 1824.5 -278.5 c 128,-1,25
 1787 -303 1787 -303 1728.5 -331.5 c 0,26,27
 1606.36842105 -391 1606.36842105 -391 1427 -391 c 0,28,29
 1292.68041237 -391 1292.68041237 -391 933.840206186 -314.5 c 128,-1,30
 575 -238 575 -238 444 -215 c 1,31,32
 365 -307 365 -307 279.5 -344 c 128,-1,33
 194 -381 194 -381 72.5 -381 c 128,-1,34
 -49 -381 -49 -381 -106.5 -339 c 128,-1,35
 -164 -297 -164 -297 -164 -234.5 c 128,-1,36
 -164 -172 -164 -172 -98 -121 c 128,-1,37
 -32 -70 -32 -70 97 -70 c 128,-1,38
 226 -70 226 -70 435 -98 c 1,39,-1
 487 -21 l 1,40,41
 262 -6 262 -6 141 122 c 128,-1,42
 20 250 20 250 20 475 c 0,43,44
 20 738.21656051 20 738.21656051 176.5 962.5 c 0,45,46
 255 1075 255 1075 362 1148 c 1,47,-1
 392 1111 l 1,48,49
 304 1005 304 1005 253 846 c 128,-1,50
 202 687 202 687 202 545 c 128,-1,51
 202 403 202 403 235 301 c 128,-1,52
 268 199 268 199 344 127 c 128,-1,53
 420 55 420 55 530 41 c 1,54,-1
 669 233 l 1,55,-1
 745 231 l 1,56,57
 716 187 716 187 623 38 c 1,58,59
 733 46 733 46 835.5 105 c 128,-1,60
 938 164 938 164 1015 255.5 c 128,-1,61
 1092 347 1092 347 1149.5 460 c 0,62,63
 1267 690.913043478 1267 690.913043478 1267 930 c 0,64,65
 1267 1117.7721519 1267 1117.7721519 1188.5 1239 c 0,66,67
 1104.96721311 1368 1104.96721311 1368 929 1368 c 0,68,69
 797 1368 797 1368 688 1286 c 128,-1,70
 579 1204 579 1204 520.5 1077.5 c 128,-1,71
 462 951 462 951 462 827 c 128,-1,72
 462 703 462 703 504 649.5 c 128,-1,73
 546 596 546 596 613.5 596 c 128,-1,74
 681 596 681 596 750.5 639.5 c 128,-1,75
 820 683 820 683 869 759 c 128,-1,76
 918 835 918 835 921 918 c 1,77,-1
 1017 934 l 1,78,79
 1017 830 1017 830 962.5 736.5 c 128,-1,80
 908 643 908 643 815.5 586.5 c 128,-1,81
 723 530 723 530 610 530 c 128,-1,0
 497 530 497 530 429.5 613.5 c 128,-1,1
-48.5 -290 m 128,-1,83
 -4 -315 -4 -315 82.5 -315 c 128,-1,84
 169 -315 169 -315 229.5 -290.5 c 128,-1,85
 290 -266 290 -266 352 -200 c 1,86,87
 148 -168 148 -168 58.5 -168 c 0,88,89
 -93 -168 -93 -168 -93 -233 c 0,90,82
 -93 -265 -93 -265 -48.5 -290 c 128,-1,83
2220 582 m 1,91,92
 2086 224.666666667 2086 224.666666667 2086 149 c 0,93,94
 2086 117 2086 117 2102 117 c 0,95,96
 2146 117 2146 117 2230 245 c 1,97,-1
 2273 204 l 1,98,99
 2220 109 2220 109 2147.5 46.5 c 128,-1,100
 2075 -16 2075 -16 2030.5 -16 c 0,101,102
 1937 -16 1937 -16 1937 78 c 0,103,104
 1937 151 1937 151 1971 256 c 128,-1,105
 2005 361 2005 361 2005 362 c 1,106,107
 2000 353 2000 353 1981 320.5 c 128,-1,108
 1962 288 1962 288 1953 272 c 128,-1,109
 1944 256 1944 256 1923.5 223.5 c 128,-1,110
 1903 191 1903 191 1889.5 172.5 c 128,-1,111
 1876 154 1876 154 1853.5 125 c 128,-1,112
 1831 96 1831 96 1813.5 79 c 128,-1,113
 1796 62 1796 62 1772 41.5 c 128,-1,114
 1748 21 1748 21 1726.5 10 c 0,115,116
 1675.68181818 -16 1675.68181818 -16 1628 -16 c 0,117,118
 1509 -16 1509 -16 1509 115 c 0,119,120
 1509 175 1509 175 1552 301.5 c 128,-1,121
 1595 428 1595 428 1595 450.5 c 128,-1,122
 1595 473 1595 473 1581 473 c 0,123,124
 1541 473 1541 473 1470 346 c 1,125,-1
 1405 385 l 1,126,127
 1542 604 1542 604 1669 604 c 0,128,129
 1711 604 1711 604 1736 580.5 c 128,-1,130
 1761 557 1761 557 1759.5 508.5 c 128,-1,131
 1758 460 1758 460 1710.5 335.5 c 128,-1,132
 1663 211 1663 211 1663 145 c 0,133,134
 1663 109 1663 109 1696 109 c 0,135,136
 1734 109 1734 109 1786.5 157.5 c 128,-1,137
 1839 206 1839 206 1888 275.5 c 0,138,139
 1965.69962386 385.70660935 1965.69962386 385.70660935 2049.5 533.5 c 2,140,-1
 2077 582 l 1,141,-1
 2220 582 l 1,91,92
EndSplineSet
EndChar

StartChar: Wh
Encoding: 65540 -1 81
Width: 2763
Flags: HW
LayerCount: 2
Fore
SplineSet
2412 259 m 128,-1,1
 2454 374 2454 374 2454 423.5 c 128,-1,2
 2454 473 2454 473 2419.5 473 c 128,-1,3
 2385 473 2385 473 2336 424.5 c 128,-1,4
 2287 376 2287 376 2242 306.5 c 0,5,6
 2168.31627057 192.699573431 2168.31627057 192.699573431 2092.5 48.5 c 2,7,-1
 2067 0 l 1,8,-1
 1924 0 l 1,9,10
 1996 561 1996 561 2133 913 c 1,11,12
 2028 935 2028 935 1993 952 c 1,13,14
 1930 653 1930 653 1744 409.5 c 128,-1,15
 1558 166 1558 166 1254 0 c 1,16,-1
 1172 0 l 1,17,18
 1215.89333333 197.52 1215.89333333 197.52 1350 908 c 2,19,-1
 1397 1157 l 1,20,21
 1271 1002 1271 1002 1091.5 740 c 128,-1,22
 912 478 912 478 597 0 c 1,23,-1
 412 0 l 1,24,25
 474.93465129 119.126304228 474.93465129 119.126304228 548.467325645 360.063152114 c 0,26,27
 689 820.531914894 689 820.531914894 689 1077 c 0,28,29
 689 1382 689 1382 504 1382 c 0,30,31
 423 1382 423 1382 357 1340.5 c 128,-1,32
 291 1299 291 1299 250 1235 c 128,-1,33
 209 1171 209 1171 181.5 1088.5 c 0,34,35
 132 940 132 940 132 787 c 128,-1,36
 132 634 132 634 177 497 c 128,-1,37
 222 360 222 360 322 293 c 1,38,-1
 275 254 l 1,39,40
 169 343 169 343 119.5 489 c 128,-1,41
 70 635 70 635 70 757 c 128,-1,42
 70 879 70 879 85 966 c 128,-1,43
 100 1053 100 1053 134.5 1139.5 c 128,-1,44
 169 1226 169 1226 219 1292.5 c 128,-1,45
 269 1359 269 1359 346.5 1400.5 c 128,-1,46
 424 1442 424 1442 519.5 1442 c 128,-1,47
 615 1442 615 1442 686 1409.5 c 128,-1,48
 757 1377 757 1377 797 1318 c 0,49,50
 873 1205.9 873 1205.9 873 1022 c 0,51,52
 873 729 873 729 662 229 c 1,53,54
 991.586466165 784.303258145 991.586466165 784.303258145 1179.5 1031 c 0,55,56
 1350.25527426 1255.17102672 1350.25527426 1255.17102672 1494 1374 c 1,57,-1
 1565 1341 l 1,58,-1
 1385 168 l 1,59,60
 1681.06368916 364.094131784 1681.06368916 364.094131784 1816.5 668 c 0,61,62
 1878 806 1878 806 1920 985 c 1,63,64
 1822 1031 1822 1031 1752 1107 c 128,-1,65
 1682 1183 1682 1183 1682 1264.5 c 128,-1,66
 1682 1346 1682 1346 1725.5 1394 c 128,-1,67
 1769 1442 1769 1442 1829.5 1442 c 128,-1,68
 1890 1442 1890 1442 1926.5 1420 c 128,-1,69
 1963 1398 1963 1398 1983 1360.5 c 0,70,71
 2022 1287.375 2022 1287.375 2022 1194.1875 c 128,-1,72
 2022 1101 2022 1101 2006 1010 c 1,73,74
 2056.81481481 984.592592593 2056.81481481 984.592592593 2128.5 968.5 c 2,75,-1
 2153 963 l 1,76,77
 2190 1067 2190 1067 2267.5 1169.5 c 128,-1,78
 2345 1272 2345 1272 2432 1336.5 c 128,-1,79
 2519 1401 2519 1401 2583 1401 c 0,80,81
 2708 1401 2708 1401 2708 1253 c 0,82,83
 2708 1131.57142857 2708 1131.57142857 2599 1007 c 0,84,85
 2550 951 2550 951 2477.5 914 c 128,-1,86
 2405 877 2405 877 2329 877 c 0,87,88
 2314 877 2314 877 2286 881 c 1,89,90
 2221 676 2221 676 2116 219 c 1,91,92
 2122 229 2122 229 2140.5 261.5 c 128,-1,93
 2159 294 2159 294 2169 310.5 c 128,-1,94
 2179 327 2179 327 2199.5 360 c 128,-1,95
 2220 393 2220 393 2234 412.5 c 128,-1,96
 2248 432 2248 432 2270.5 461 c 128,-1,97
 2293 490 2293 490 2310.5 507.5 c 128,-1,98
 2328 525 2328 525 2352 545.5 c 128,-1,99
 2376 566 2376 566 2398 577.5 c 0,100,101
 2448.69565217 604 2448.69565217 604 2506.84782609 604 c 128,-1,102
 2565 604 2565 604 2594.5 572 c 128,-1,103
 2624 540 2624 540 2624 486 c 128,-1,104
 2624 432 2624 432 2574 304.5 c 128,-1,105
 2524 177 2524 177 2524 147 c 128,-1,106
 2524 117 2524 117 2540 117 c 0,107,108
 2582.33333333 117 2582.33333333 117 2667 244 c 1,109,-1
 2710 204 l 1,110,111
 2646 94 2646 94 2576.5 39 c 128,-1,112
 2507 -16 2507 -16 2462.5 -16 c 128,-1,113
 2418 -16 2418 -16 2394 12 c 128,-1,114
 2370 40 2370 40 2370 92 c 128,-1,0
 2370 144 2370 144 2412 259 c 128,-1,1
2640 1253 m 0,115,116
 2640 1354 2640 1354 2587 1354 c 0,117,118
 2546 1354 2546 1354 2489 1295 c 128,-1,119
 2432 1236 2432 1236 2380 1136.5 c 128,-1,120
 2328 1037 2328 1037 2305 934 c 1,121,122
 2315 932 2315 932 2335 932 c 0,123,124
 2412 932 2412 932 2484.5 986.5 c 128,-1,125
 2557 1041 2557 1041 2598.5 1115.5 c 128,-1,126
 2640 1190 2640 1190 2640 1253 c 0,115,116
1793 1255 m 1,127,128
 1804 1140 1804 1140 1934 1049 c 1,129,130
 1950 1127 1950 1127 1950 1178 c 128,-1,131
 1950 1229 1950 1229 1948.5 1246 c 128,-1,132
 1947 1263 1947 1263 1941 1290 c 0,133,134
 1928.55555556 1346 1928.55555556 1346 1882.77777778 1346 c 128,-1,135
 1837 1346 1837 1346 1815 1319.5 c 128,-1,136
 1793 1293 1793 1293 1793 1255 c 1,127,128
EndSplineSet
EndChar

StartChar: fl
Encoding: 64258 64258 82
Width: 1001
Flags: HW
LayerCount: 2
Fore
SplineSet
743 1348 m 0,0,1
 691 1348 691 1348 640.5 1297 c 0,2,3
 491.905559861 1146.93432778 491.905559861 1146.93432778 369 582 c 1,4,-1
 608 582 l 1,5,-1
 592 516 l 1,6,-1
 354 516 l 1,7,-1
 330 414 l 2,8,9
 262.896283007 130.930297283 262.896283007 130.930297283 218.769543228 16.4429893308 c 0,10,11
 134.31565723 -202.673539615 134.31565723 -202.673539615 0.697285470147 -260.936272529 c 0,12,13
 -54.4898971833 -285 -54.4898971833 -285 -110.744948592 -285 c 128,-1,14
 -167 -285 -167 -285 -190 -263.5 c 128,-1,15
 -213 -242 -213 -242 -213 -211.5 c 128,-1,16
 -213 -181 -213 -181 -193 -159 c 128,-1,17
 -173 -137 -173 -137 -142.5 -137 c 128,-1,18
 -112 -137 -112 -137 -92 -151 c 128,-1,19
 -72 -165 -72 -165 -72 -187.5 c 128,-1,20
 -72 -210 -72 -210 -86 -236 c 1,21,22
 17.430125068 -219.839042958 17.430125068 -219.839042958 99 153.5 c 0,23,24
 112 213 112 213 128.5 294.5 c 128,-1,25
 145 376 145 376 154 414 c 2,26,-1
 178 516 l 1,27,-1
 -10 516 l 1,28,-1
 6 582 l 1,29,-1
 192 582 l 1,30,31
 276.814285714 921.257142857 276.814285714 921.257142857 367.5 1100 c 0,32,33
 526.301470588 1413 526.301470588 1413 770 1413 c 0,34,35
 902 1413 902 1413 959 1355.5 c 128,-1,36
 1016 1298 1016 1298 1016 1201 c 128,-1,37
 1016 1104 1016 1104 978.5 957.5 c 128,-1,38
 941 811 941 811 895 679 c 0,39,40
 770.937086093 322.993377483 770.937086093 322.993377483 762 180 c 1,41,42
 762 125 762 125 778 125 c 0,43,44
 809.068965517 125 809.068965517 125 897 252.5 c 0,45,46
 907 267 907 267 907 268 c 2,47,-1
 950 231 l 1,48,49
 884 105 884 105 812.5 44.5 c 128,-1,50
 741 -16 741 -16 694 -16 c 0,51,52
 602 -16 602 -16 602 129 c 0,53,54
 602 308.08 602 308.08 736 694 c 128,-1,55
 870 1079.92 870 1079.92 870 1213.96 c 128,-1,56
 870 1348 870 1348 743 1348 c 0,0,1
EndSplineSet
EndChar

StartChar: ffi
Encoding: 64259 64259 83
Width: 1292
Flags: HW
LayerCount: 2
Fore
SplineSet
623 582 m 1,0,1
 749 1107 749 1107 934 1290 c 1,2,3
 884 1346 884 1346 817.5 1346 c 128,-1,4
 751 1346 751 1346 694.5 1313 c 128,-1,5
 638 1280 638 1280 596 1221.5 c 128,-1,6
 554 1163 554 1163 520 1092 c 128,-1,7
 486 1021 486 1021 459.5 934 c 0,8,9
 402.131868132 745.659340659 402.131868132 745.659340659 387.065934066 670.32967033 c 0,10,11
 371 590 371 590 369 582 c 1,12,-1
 623 582 l 1,0,1
1269.5 825.5 m 128,-1,14
 1243 793 1243 793 1196.5 793 c 128,-1,15
 1150 793 1150 793 1127 820.5 c 128,-1,16
 1104 848 1104 848 1104 889.5 c 128,-1,17
 1104 931 1104 931 1133 964 c 128,-1,18
 1162 997 1162 997 1206.5 997 c 128,-1,19
 1251 997 1251 997 1273.5 968.5 c 128,-1,20
 1296 940 1296 940 1296 899 c 128,-1,13
 1296 858 1296 858 1269.5 825.5 c 128,-1,14
799 582 m 1,21,-1
 1106 582 l 2,22,23
 1178 582 1178 582 1178 506 c 0,24,25
 1178 461 1178 461 1149 379 c 2,26,-1
 1083 193 l 2,27,28
 1069 154 1069 154 1069 139.5 c 128,-1,29
 1069 125 1069 125 1069.5 120.5 c 0,30,31
 1070.77777778 109 1070.77777778 109 1091.88888889 109 c 128,-1,32
 1113 109 1113 109 1137 141 c 2,33,-1
 1190 211 l 1,34,-1
 1231 176 l 1,35,36
 1177 76 1177 76 1111.5 25.5 c 128,-1,37
 1046 -25 1046 -25 1004 -25 c 128,-1,38
 962 -25 962 -25 942 3.5 c 128,-1,39
 922 32 922 32 922 79 c 128,-1,40
 922 126 922 126 951 220.5 c 128,-1,41
 980 315 980 315 1009 393 c 128,-1,42
 1038 471 1038 471 1038 493.5 c 128,-1,43
 1038 516 1038 516 1024 516 c 2,44,-1
 784 516 l 1,45,46
 721.018558498 245.765675417 721.018558498 245.765675417 693.953008276 161.304739995 c 0,47,48
 623.104481176 -59.7856432785 623.104481176 -59.7856432785 513.456222311 -134.514575896 c 0,49,50
 443.781815197 -182 443.781815197 -182 350 -182 c 0,51,52
 305 -182 305 -182 281.5 -160.5 c 128,-1,53
 258 -139 258 -139 258 -109 c 128,-1,54
 258 -79 258 -79 278 -57 c 128,-1,55
 298 -35 298 -35 329 -35 c 128,-1,56
 360 -35 360 -35 379.5 -48.5 c 128,-1,57
 399 -62 399 -62 399 -86 c 128,-1,58
 399 -110 399 -110 385 -133 c 1,59,60
 442.37254902 -124.803921569 442.37254902 -124.803921569 481.5 -31.5 c 0,61,62
 524.191096634 70.3018458198 524.191096634 70.3018458198 542.595548317 159.15092291 c 128,-1,63
 561 248 561 248 570 295 c 128,-1,64
 579 342 579 342 591 415 c 128,-1,65
 603 488 603 488 608 516 c 1,66,-1
 354 516 l 1,67,68
 291.018558498 245.765675417 291.018558498 245.765675417 263.953008276 161.304739995 c 0,69,70
 193.104481176 -59.7856432785 193.104481176 -59.7856432785 83.4562223113 -134.514575896 c 0,71,72
 13.7818151966 -182 13.7818151966 -182 -80 -182 c 0,73,74
 -125 -182 -125 -182 -148.5 -160.5 c 128,-1,75
 -172 -139 -172 -139 -172 -109 c 128,-1,76
 -172 -79 -172 -79 -152 -57 c 128,-1,77
 -132 -35 -132 -35 -101.5 -35 c 128,-1,78
 -71 -35 -71 -35 -51 -48.5 c 128,-1,79
 -31 -62 -31 -62 -31 -86 c 128,-1,80
 -31 -110 -31 -110 -45 -133 c 1,81,82
 12.3725490196 -124.803921569 12.3725490196 -124.803921569 51.5 -31.5 c 0,83,84
 94.1910966341 70.3018458198 94.1910966341 70.3018458198 112.595548317 159.15092291 c 128,-1,85
 131 248 131 248 140 295 c 128,-1,86
 149 342 149 342 161 415 c 128,-1,87
 173 488 173 488 178 516 c 1,88,-1
 -10 516 l 1,89,-1
 6 582 l 1,90,-1
 192 582 l 1,91,92
 266.564454615 886.30358505 266.564454615 886.30358505 338.282227307 1035.15179252 c 128,-1,93
 410 1184 410 1184 470.5 1255.5 c 0,94,95
 603.769230769 1413 603.769230769 1413 790 1413 c 0,96,97
 918 1413 918 1413 981 1331 c 1,98,99
 1086 1413 1086 1413 1221 1413 c 0,100,101
 1304 1413 1304 1413 1361.5 1379 c 128,-1,102
 1419 1345 1419 1345 1419 1266 c 0,103,104
 1419 1220 1419 1220 1387.5 1193.5 c 128,-1,105
 1356 1167 1356 1167 1314 1167 c 128,-1,106
 1272 1167 1272 1167 1242 1191.5 c 128,-1,107
 1212 1216 1212 1216 1212 1254 c 128,-1,108
 1212 1292 1212 1292 1239 1331 c 1,109,110
 1190 1348 1190 1348 1162.5 1348 c 128,-1,111
 1135 1348 1135 1348 1096 1320.5 c 128,-1,112
 1057 1293 1057 1293 1027 1247 c 0,113,114
 914.793706294 1074.95034965 914.793706294 1074.95034965 799 582 c 1,21,-1
EndSplineSet
EndChar

StartChar: ffl
Encoding: 64260 64260 84
Width: 1434
Flags: HW
LayerCount: 2
Fore
SplineSet
1174 1348 m 0,0,1
 1069.63529412 1348 1069.63529412 1348 976 1158.5 c 0,2,3
 955 1116 955 1116 940 1073 c 0,4,5
 860 855 860 855 799 582 c 1,6,-1
 1038 582 l 1,7,-1
 1022 516 l 1,8,-1
 784 516 l 1,9,10
 721.018558498 245.765675417 721.018558498 245.765675417 693.953008276 161.304739995 c 0,11,12
 623.104481176 -59.7856432785 623.104481176 -59.7856432785 513.456222311 -134.514575896 c 0,13,14
 443.781815197 -182 443.781815197 -182 350 -182 c 0,15,16
 305 -182 305 -182 281.5 -160.5 c 128,-1,17
 258 -139 258 -139 258 -109 c 128,-1,18
 258 -79 258 -79 278 -57 c 128,-1,19
 298 -35 298 -35 329 -35 c 128,-1,20
 360 -35 360 -35 379.5 -48.5 c 128,-1,21
 399 -62 399 -62 399 -86 c 128,-1,22
 399 -110 399 -110 385 -133 c 1,23,24
 442.37254902 -124.803921569 442.37254902 -124.803921569 481.5 -31.5 c 0,25,26
 524.191096634 70.3018458198 524.191096634 70.3018458198 542.595548317 159.15092291 c 128,-1,27
 561 248 561 248 570 295 c 128,-1,28
 579 342 579 342 591 415 c 128,-1,29
 603 488 603 488 608 516 c 1,30,-1
 354 516 l 1,31,32
 291.018558498 245.765675417 291.018558498 245.765675417 263.953008276 161.304739995 c 0,33,34
 193.104481176 -59.7856432785 193.104481176 -59.7856432785 83.4562223113 -134.514575896 c 0,35,36
 13.7818151966 -182 13.7818151966 -182 -80 -182 c 0,37,38
 -125 -182 -125 -182 -148.5 -160.5 c 128,-1,39
 -172 -139 -172 -139 -172 -109 c 128,-1,40
 -172 -79 -172 -79 -152 -57 c 128,-1,41
 -132 -35 -132 -35 -101 -35 c 128,-1,42
 -70 -35 -70 -35 -50.5 -48.5 c 128,-1,43
 -31 -62 -31 -62 -31 -86 c 128,-1,44
 -31 -110 -31 -110 -45 -133 c 1,45,46
 12.3725490196 -124.803921569 12.3725490196 -124.803921569 51.5 -31.5 c 0,47,48
 94.1910966341 70.3018458198 94.1910966341 70.3018458198 112.595548317 159.15092291 c 128,-1,49
 131 248 131 248 140 295 c 128,-1,50
 149 342 149 342 161 415 c 128,-1,51
 173 488 173 488 178 516 c 1,52,-1
 -10 516 l 1,53,-1
 6 582 l 1,54,-1
 193 582 l 1,55,56
 268.215505913 886.927726675 268.215505913 886.927726675 339.107752957 1035.46386334 c 128,-1,57
 410 1184 410 1184 470.5 1255.5 c 0,58,59
 603.769230769 1413 603.769230769 1413 791 1413 c 0,60,61
 914 1413 914 1413 977 1335 c 1,62,63
 1077 1413 1077 1413 1204.5 1413 c 0,64,65
 1446 1413 1446 1413 1446 1192 c 0,66,67
 1446 1026.2173913 1446 1026.2173913 1325 679 c 0,68,69
 1200.93708609 322.993377483 1200.93708609 322.993377483 1192 180 c 1,70,71
 1192 125 1192 125 1208 125 c 0,72,73
 1239.06896552 125 1239.06896552 125 1327 252.5 c 0,74,75
 1337 267 1337 267 1337 268 c 2,76,-1
 1380 231 l 1,77,78
 1313 105 1313 105 1242.5 44.5 c 128,-1,79
 1172 -16 1172 -16 1124 -16 c 0,80,81
 1032 -16 1032 -16 1032 129 c 0,82,83
 1032 310.475247525 1032 310.475247525 1166.5 694 c 128,-1,84
 1301 1077.52475248 1301 1077.52475248 1301 1212.76237624 c 128,-1,85
 1301 1348 1301 1348 1174 1348 c 0,0,1
369 582 m 1,86,-1
 623 582 l 1,87,88
 684 833 684 833 757 1012 c 128,-1,89
 830 1191 830 1191 930 1292 c 1,90,91
 882 1346 882 1346 816.5 1346 c 128,-1,92
 751 1346 751 1346 694.5 1313 c 128,-1,93
 638 1280 638 1280 596 1221.5 c 128,-1,94
 554 1163 554 1163 520 1092 c 128,-1,95
 486 1021 486 1021 459.5 934 c 0,96,97
 402.131868132 745.659340659 402.131868132 745.659340659 387.065934066 670.32967033 c 0,98,99
 371 590 371 590 369 582 c 1,86,-1
EndSplineSet
EndChar

StartChar: Y
Encoding: 89 89 85
Width: 1549
Flags: HW
LayerCount: 2
Fore
SplineSet
625 211 m 1,0,1
 824.903846154 112 824.903846154 112 960 112 c 0,2,3
 1182 112 1182 112 1238 395 c 0,4,5
 1246 437 1246 437 1259 505 c 128,-1,6
 1272 573 1272 573 1280 617 c 128,-1,7
 1288 661 1288 661 1301.5 724.5 c 128,-1,8
 1315 788 1315 788 1326.5 831.5 c 128,-1,9
 1338 875 1338 875 1355.5 930.5 c 128,-1,10
 1373 986 1373 986 1391.5 1026 c 128,-1,11
 1410 1066 1410 1066 1435 1111 c 128,-1,12
 1460 1156 1460 1156 1488 1189.5 c 0,13,14
 1550.00685401 1263.68677176 1550.00685401 1263.68677176 1629 1308 c 1,15,-1
 1671 1277 l 1,16,17
 1574 1204 1574 1204 1517.5 1058 c 128,-1,18
 1461 912 1461 912 1446 792 c 128,-1,19
 1431 672 1431 672 1420 509 c 128,-1,20
 1409 346 1409 346 1404.5 291 c 128,-1,21
 1400 236 1400 236 1388 136.5 c 128,-1,22
 1376 37 1376 37 1362 -17 c 128,-1,23
 1348 -71 1348 -71 1322.5 -152 c 128,-1,24
 1297 -233 1297 -233 1264.5 -278 c 128,-1,25
 1232 -323 1232 -323 1183.5 -377 c 128,-1,26
 1135 -431 1135 -431 1075 -458.5 c 0,27,28
 929.909090909 -525 929.909090909 -525 757 -525 c 0,29,30
 466 -525 466 -525 466 -367 c 0,31,32
 466 -315 466 -315 504.5 -283.5 c 128,-1,33
 543 -252 543 -252 589.5 -252 c 128,-1,34
 636 -252 636 -252 667 -280 c 128,-1,35
 698 -308 698 -308 698 -358.5 c 128,-1,36
 698 -409 698 -409 676 -460 c 1,37,38
 719 -467 719 -467 774 -467 c 128,-1,39
 829 -467 829 -467 884 -448.5 c 128,-1,40
 939 -430 939 -430 980 -399 c 128,-1,41
 1021 -368 1021 -368 1054.5 -318 c 128,-1,42
 1088 -268 1088 -268 1111 -216 c 128,-1,43
 1134 -164 1134 -164 1153.5 -91.5 c 0,44,45
 1182.92920354 17.9162695711 1182.92920354 17.9162695711 1210 197 c 1,46,47
 1164 86 1164 86 1089.5 40.5 c 128,-1,48
 1015 -5 1015 -5 916 -5 c 0,49,50
 729 -5 729 -5 490 95 c 1,51,52
 447 55 447 55 350 22.5 c 128,-1,53
 253 -10 253 -10 165 -10 c 0,54,55
 -11 -10 -11 -10 -11 122 c 0,56,57
 -11 196 -11 196 71.5 251 c 128,-1,58
 154 306 154 306 288 306 c 128,-1,59
 422 306 422 306 549 244 c 1,60,61
 647 324 647 324 742.5 454.5 c 128,-1,62
 838 585 838 585 904.5 741.5 c 128,-1,63
 971 898 971 898 971 1024 c 0,64,65
 971 1219 971 1219 880 1315.5 c 128,-1,66
 789 1412 789 1412 649 1412 c 0,67,68
 560 1412 560 1412 468 1373.5 c 128,-1,69
 376 1335 376 1335 301 1270 c 128,-1,70
 226 1205 226 1205 178 1108.5 c 128,-1,71
 130 1012 130 1012 130 902.5 c 128,-1,72
 130 793 130 793 183 690 c 1,73,-1
 132 668 l 1,74,75
 73 792 73 792 73 922 c 128,-1,76
 73 1052 73 1052 125.5 1163 c 128,-1,77
 178 1274 178 1274 263 1345.5 c 0,78,79
 444.293706294 1498 444.293706294 1498 663 1498 c 0,80,81
 845.356521739 1498 845.356521739 1498 973 1381.5 c 0,82,83
 1109 1257.37301587 1109 1257.37301587 1109 1008 c 0,84,85
 1109 812 1109 812 964.5 584.5 c 128,-1,86
 820 357 820 357 625 211 c 1,0,1
425 141 m 1,87,88
 272 200 272 200 189.5 200 c 0,89,90
 52 200 52 200 52 128 c 0,91,92
 52 63 52 63 157 63 c 0,93,94
 224 63 224 63 305.5 88 c 128,-1,95
 387 113 387 113 425 141 c 1,87,88
EndSplineSet
EndChar

StartChar: exclam
Encoding: 33 33 86
Width: 780
Flags: HW
LayerCount: 2
Fore
SplineSet
471 1350 m 1,0,-1
 628 1350 l 1,1,2
 413 762 413 762 296 347 c 1,3,-1
 235 347 l 1,4,5
 256 740 256 740 471 1350 c 1,0,-1
302 156.5 m 128,-1,7
 328 133 328 133 328 84.5 c 128,-1,8
 328 36 328 36 295.5 6.5 c 128,-1,9
 263 -23 263 -23 222 -23 c 128,-1,10
 181 -23 181 -23 154 2 c 128,-1,11
 127 27 127 27 127 74 c 128,-1,12
 127 121 127 121 161 150.5 c 128,-1,13
 195 180 195 180 235.5 180 c 128,-1,6
 276 180 276 180 302 156.5 c 128,-1,7
EndSplineSet
EndChar

StartChar: percent
Encoding: 37 37 87
Width: 1610
Flags: HW
LayerCount: 2
Fore
SplineSet
160 -283 m 1,0,-1
 1388 1772 l 1,1,-1
 1434 1737 l 1,2,-1
 207 -315 l 1,3,-1
 160 -283 l 1,0,-1
138.5 736.5 m 128,-1,5
 70 806 70 806 70 909 c 128,-1,6
 70 1012 70 1012 120 1094.5 c 128,-1,7
 170 1177 170 1177 246.5 1222.5 c 128,-1,8
 323 1268 323 1268 403 1268 c 0,9,10
 522 1268 522 1268 587.5 1194.5 c 128,-1,11
 653 1121 653 1121 653 1015 c 0,12,13
 653 884.731707317 653 884.731707317 568 779 c 0,14,15
 527 728 527 728 459 697.5 c 128,-1,16
 391 667 391 667 299 667 c 128,-1,4
 207 667 207 667 138.5 736.5 c 128,-1,5
211 911 m 0,17,18
 211 835 211 835 239.5 780 c 128,-1,19
 268 725 268 725 328.5 725 c 128,-1,20
 389 725 389 725 433 769.5 c 0,21,22
 518 855.465909091 518 855.465909091 518 1010 c 0,23,24
 518 1095 518 1095 486.5 1152.5 c 128,-1,25
 455 1210 455 1210 391 1210 c 128,-1,26
 327 1210 327 1210 269 1127 c 128,-1,27
 211 1044 211 1044 211 911 c 0,17,18
887.5 57.5 m 128,-1,29
 819 127 819 127 819 230 c 128,-1,30
 819 333 819 333 869 415.5 c 128,-1,31
 919 498 919 498 995.5 543.5 c 128,-1,32
 1072 589 1072 589 1152 589 c 0,33,34
 1271 589 1271 589 1336.5 515.5 c 128,-1,35
 1402 442 1402 442 1402 336 c 0,36,37
 1402 205.731707317 1402 205.731707317 1317 100 c 0,38,39
 1276 49 1276 49 1208 18.5 c 128,-1,40
 1140 -12 1140 -12 1048 -12 c 128,-1,28
 956 -12 956 -12 887.5 57.5 c 128,-1,29
960 232 m 0,41,42
 960 156 960 156 988.5 101 c 128,-1,43
 1017 46 1017 46 1077.5 46 c 128,-1,44
 1138 46 1138 46 1182 90.5 c 0,45,46
 1267 176.465909091 1267 176.465909091 1267 331 c 0,47,48
 1267 416 1267 416 1235.5 473.5 c 128,-1,49
 1204 531 1204 531 1140 531 c 128,-1,50
 1076 531 1076 531 1018 448 c 128,-1,51
 960 365 960 365 960 232 c 0,41,42
EndSplineSet
EndChar

StartChar: zero
Encoding: 48 48 88
Width: 946
Flags: HW
LayerCount: 2
Fore
SplineSet
155 80.5 m 128,-1,1
 65 184 65 184 72.5 336.5 c 128,-1,2
 80 489 80 489 157.5 610.5 c 128,-1,3
 235 732 235 732 346.5 799 c 128,-1,4
 458 866 458 866 571.5 866 c 128,-1,5
 685 866 685 866 766 812.5 c 0,6,7
 921.820855773 709.581286619 921.820855773 709.581286619 911 491 c 0,8,9
 902.557190635 334.808026756 902.557190635 334.808026756 817 205.5 c 0,10,11
 665.812030075 -23 665.812030075 -23 384 -23 c 0,12,0
 245 -23 245 -23 155 80.5 c 128,-1,1
350 80 m 0,13,14
 380 55 380 55 422 55 c 0,15,16
 502 55 502 55 566 122 c 0,17,18
 690.842599843 252.694596711 690.842599843 252.694596711 702 487 c 0,19,20
 708 615 708 615 671 701.5 c 128,-1,21
 634 788 634 788 548.5 788 c 128,-1,22
 463 788 463 788 378 663.5 c 128,-1,23
 293 539 293 539 283.847305389 340.877245509 c 128,-1,24
 274.694610778 142.754491018 274.694610778 142.754491018 350 80 c 0,13,14
EndSplineSet
EndChar

StartChar: numbersign
Encoding: 35 35 89
Width: 728
Flags: HW
LayerCount: 2
Fore
SplineSet
277 -53 m 1,0,-1
 434 472 l 1,1,-1
 300 472 l 1,2,-1
 154 -18 l 1,3,-1
 75 -53 l 1,4,-1
 232 472 l 1,5,-1
 66 472 l 1,6,-1
 75 538 l 1,7,-1
 251 538 l 1,8,-1
 281 636 l 1,9,-1
 105 636 l 1,10,-1
 112 702 l 1,11,-1
 300 702 l 1,12,-1
 455 1218 l 1,13,-1
 532 1250 l 1,14,-1
 368 702 l 1,15,-1
 502 702 l 1,16,-1
 657 1218 l 1,17,-1
 734 1250 l 1,18,-1
 570 702 l 1,19,-1
 743 702 l 1,20,-1
 724 636 l 1,21,-1
 550 636 l 1,22,-1
 521 538 l 1,23,-1
 705 538 l 1,24,-1
 686 472 l 1,25,-1
 502 472 l 1,26,-1
 356 -18 l 1,27,-1
 277 -53 l 1,0,-1
348 636 m 1,28,-1
 319 538 l 1,29,-1
 453 538 l 1,30,-1
 483 636 l 1,31,-1
 348 636 l 1,28,-1
EndSplineSet
EndChar

StartChar: Euro
Encoding: 8364 8364 90
Width: 1378
Flags: HW
LayerCount: 2
Fore
SplineSet
72 417 m 1,0,-1
 57 483 l 1,1,-1
 627 483 l 1,2,-1
 612 417 l 1,3,-1
 72 417 l 1,0,-1
42 552 m 1,4,-1
 26 618 l 1,5,-1
 657 618 l 1,6,-1
 641 552 l 1,7,-1
 42 552 l 1,4,-1
1198 301 m 1,8,-1
 1246 256 l 1,9,10
 1019 -39 1019 -39 699 -39 c 0,11,12
 489.846153846 -39 489.846153846 -39 345.5 96 c 0,13,14
 276 161 276 161 235.5 262 c 128,-1,15
 195 363 195 363 195 493 c 128,-1,16
 195 623 195 623 244 763.5 c 128,-1,17
 293 904 293 904 380 1024 c 128,-1,18
 467 1144 467 1144 579 1238.5 c 128,-1,19
 691 1333 691 1333 826 1387.5 c 128,-1,20
 961 1442 961 1442 1110 1442 c 128,-1,21
 1259 1442 1259 1442 1368 1347 c 128,-1,22
 1477 1252 1477 1252 1477 1081 c 0,23,24
 1477 980 1477 980 1430.5 868.5 c 128,-1,25
 1384 757 1384 757 1310.5 666.5 c 128,-1,26
 1237 576 1237 576 1137 517 c 128,-1,27
 1037 458 1037 458 938 458 c 128,-1,28
 839 458 839 458 781 522 c 128,-1,29
 723 586 723 586 723 671 c 0,30,31
 723 817 723 817 844.5 953.5 c 128,-1,32
 966 1090 966 1090 1157 1155 c 1,33,-1
 1180 1102 l 1,34,35
 1084 1070 1084 1070 999 995 c 128,-1,36
 914 920 914 920 866.5 834.5 c 128,-1,37
 819 749 819 749 819 685.5 c 0,38,39
 819 555 819 555 965 555 c 0,40,41
 1067 555 1067 555 1169.5 645 c 128,-1,42
 1272 735 1272 735 1333.5 856.5 c 128,-1,43
 1395 978 1395 978 1395 1090.5 c 128,-1,44
 1395 1203 1395 1203 1319 1274.5 c 128,-1,45
 1243 1346 1243 1346 1117 1346 c 128,-1,46
 991 1346 991 1346 858 1270 c 128,-1,47
 725 1194 725 1194 622.5 1075 c 128,-1,48
 520 956 520 956 454.5 801.5 c 128,-1,49
 389 647 389 647 389 498 c 0,50,51
 389 256.515463918 389 256.515463918 549.5 144 c 0,52,53
 643.647058824 78 643.647058824 78 763.323529412 78 c 128,-1,54
 883 78 883 78 999 136.5 c 128,-1,55
 1115 195 1115 195 1198 301 c 1,8,-1
EndSplineSet
EndChar

StartChar: equal
Encoding: 61 61 91
Width: 934
Flags: HW
LayerCount: 2
Fore
SplineSet
104 417 m 1,0,-1
 109 483 l 1,1,-1
 779 483 l 1,2,-1
 764 417 l 1,3,-1
 104 417 l 1,0,-1
114 552 m 1,4,-1
 118 618 l 1,5,-1
 809 618 l 1,6,-1
 793 552 l 1,7,-1
 114 552 l 1,4,-1
EndSplineSet
EndChar

StartChar: caron
Encoding: 711 711 93
Width: 758
Flags: HW
LayerCount: 2
Fore
SplineSet
420 672 m 1,0,-1
 367 672 l 1,1,-1
 167 973 l 1,2,-1
 337 973 l 1,3,-1
 401 712 l 1,4,-1
 576 973 l 1,5,-1
 746 973 l 1,6,-1
 420 672 l 1,0,-1
EndSplineSet
EndChar

StartChar: Zcaron
Encoding: 381 381 94
Width: 1761
Flags: HW
LayerCount: 2
Fore
SplineSet
375 811 m 0,0,1
 525 811 525 811 621 907 c 1,2,-1
 676 870 l 1,3,4
 618 817 618 817 527.5 786.5 c 128,-1,5
 437 756 437 756 323 756 c 128,-1,6
 209 756 209 756 120 827 c 128,-1,7
 31 898 31 898 31 1040 c 0,8,9
 31 1210 31 1210 186 1326 c 128,-1,10
 341 1442 341 1442 605 1442 c 0,11,12
 738 1442 738 1442 857 1405 c 128,-1,13
 976 1368 976 1368 1046 1323.5 c 128,-1,14
 1116 1279 1116 1279 1201.5 1221.5 c 128,-1,15
 1287 1164 1287 1164 1338 1141 c 1,16,17
 1405 1213 1405 1213 1492.5 1253.5 c 128,-1,18
 1580 1294 1580 1294 1660 1294 c 128,-1,19
 1740 1294 1740 1294 1790.5 1254.5 c 128,-1,20
 1841 1215 1841 1215 1841 1134.5 c 128,-1,21
 1841 1054 1841 1054 1752.5 1004.5 c 128,-1,22
 1664 955 1664 955 1553 955 c 128,-1,23
 1442 955 1442 955 1358 985 c 1,24,-1
 1205 733 l 1,25,-1
 1608 733 l 1,26,-1
 1637 674 l 1,27,-1
 1169 674 l 1,28,-1
 934 295 l 1,29,30
 1009 229 1009 229 1160 166.5 c 128,-1,31
 1311 104 1311 104 1397 104 c 0,32,33
 1582.64705882 104 1582.64705882 104 1616 293 c 1,34,-1
 1710 279 l 1,35,36
 1710 158 1710 158 1599.5 67.5 c 128,-1,37
 1489 -23 1489 -23 1319 -23 c 0,38,39
 1164.32258065 -23 1164.32258065 -23 968.5 83.5 c 0,40,41
 940 99 940 99 886.5 130.5 c 128,-1,42
 833 162 833 162 811 174 c 1,43,44
 625 -23 625 -23 406 -23 c 0,45,46
 242 -23 242 -23 158 53 c 128,-1,47
 74 129 74 129 74 242 c 0,48,49
 74 350.444444444 74 350.444444444 169 437 c 0,50,51
 269.975609756 529 269.975609756 529 435 529 c 0,52,53
 579.902439024 529 579.902439024 529 762.5 420.5 c 0,54,55
 797 400 797 400 860 361 c 1,56,-1
 1056 674 l 1,57,-1
 684 674 l 1,58,-1
 738 733 l 1,59,-1
 1092 733 l 1,60,-1
 1266 1016 l 1,61,62
 1076.91164095 1091.9887798 1076.91164095 1091.9887798 913.5 1213.5 c 0,63,64
 855 1257 855 1257 794.5 1296 c 0,65,66
 667.294871795 1378 667.294871795 1378 505 1378 c 0,67,68
 418 1378 418 1378 345.5 1348 c 128,-1,69
 273 1318 273 1318 227.5 1270 c 0,70,71
 133 1170.30769231 133 1170.30769231 133 1050.65384615 c 128,-1,72
 133 931 133 931 203.5 871 c 128,-1,73
 274 811 274 811 375 811 c 0,0,1
738 225 m 1,74,75
 660 287 660 287 532.5 343 c 128,-1,76
 405 399 405 399 316 399 c 128,-1,77
 227 399 227 399 183.5 353 c 128,-1,78
 140 307 140 307 140 237 c 128,-1,79
 140 167 140 167 205 110 c 128,-1,80
 270 53 270 53 394 53 c 0,81,82
 580 53 580 53 738 225 c 1,74,75
1413 1100 m 1,83,84
 1494 1061 1494 1061 1578.5 1061 c 128,-1,85
 1663 1061 1663 1061 1713.5 1085.5 c 128,-1,86
 1764 1110 1764 1110 1764 1147 c 128,-1,87
 1764 1184 1764 1184 1739 1203.5 c 128,-1,88
 1714 1223 1714 1223 1664.5 1223 c 128,-1,89
 1615 1223 1615 1223 1544 1190 c 128,-1,90
 1473 1157 1473 1157 1413 1100 c 1,83,84
1000 1589 m 1,91,-1
 947 1589 l 1,92,-1
 747 1890 l 1,93,-1
 917 1890 l 1,94,-1
 981 1629 l 1,95,-1
 1156 1890 l 1,96,-1
 1326 1890 l 1,97,-1
 1000 1589 l 1,91,-1
EndSplineSet
EndChar

StartChar: circumflex
Encoding: 710 710 95
Width: 758
Flags: HW
LayerCount: 2
Fore
SplineSet
422 972 m 1,0,-1
 475 972 l 1,1,-1
 675 671 l 1,2,-1
 505 671 l 1,3,-1
 441 932 l 1,4,-1
 266 671 l 1,5,-1
 96 671 l 1,6,-1
 422 972 l 1,0,-1
EndSplineSet
EndChar

StartChar: breve
Encoding: 728 728 96
Width: 537
Flags: HW
LayerCount: 2
Fore
SplineSet
398 865 m 1,0,-1
 468 865 l 1,1,2
 458 782 458 782 392.5 730 c 128,-1,3
 327 678 327 678 266 678 c 0,4,5
 141 678 141 678 141 791 c 0,6,7
 141 828 141 828 153 865 c 1,8,-1
 225 865 l 1,9,10
 221 849 221 849 221 827.5 c 128,-1,11
 221 806 221 806 235 792.5 c 128,-1,12
 249 779 249 779 277 779 c 128,-1,13
 305 779 305 779 343.5 804 c 128,-1,14
 382 829 382 829 398 865 c 1,0,-1
EndSplineSet
EndChar

StartChar: dotaccent
Encoding: 729 729 97
Width: 537
Flags: HW
LayerCount: 2
Fore
SplineSet
370 949 m 128,-1,1
 399 921 399 921 399 865 c 128,-1,2
 399 809 399 809 362 774 c 128,-1,3
 325 739 325 739 280.5 739 c 128,-1,4
 236 739 236 739 206 767.5 c 128,-1,5
 176 796 176 796 176 851.5 c 128,-1,6
 176 907 176 907 213.5 942 c 128,-1,7
 251 977 251 977 296 977 c 128,-1,0
 341 977 341 977 370 949 c 128,-1,1
EndSplineSet
EndChar

StartChar: hungarumlaut
Encoding: 733 733 98
Width: 492
Flags: HW
LayerCount: 2
Fore
SplineSet
148 672 m 1,0,-1
 94 672 l 1,1,2
 134.5 729 134.5 729 252 917 c 2,3,-1
 287 973 l 1,4,-1
 457 973 l 1,5,6
 443 959 443 959 378 892 c 0,7,8
 213.294117647 722.226244344 213.294117647 722.226244344 148 672 c 1,0,-1
409 672 m 1,9,-1
 355 672 l 1,10,11
 395.5 729 395.5 729 513 917 c 2,12,-1
 548 973 l 1,13,-1
 718 973 l 1,14,15
 704 959 704 959 639 892 c 0,16,17
 474.294117647 722.226244344 474.294117647 722.226244344 409 672 c 1,9,-1
EndSplineSet
EndChar

StartChar: fraction
Encoding: 8260 8260 99
Width: 1096
Flags: HW
LayerCount: 2
Fore
SplineSet
-82 -283 m 1,0,-1
 1146 1772 l 1,1,-1
 1192 1737 l 1,2,-1
 -35 -315 l 1,3,-1
 -82 -283 l 1,0,-1
EndSplineSet
EndChar

StartChar: at
Encoding: 64 64 100
Width: 1509
Flags: HW
LayerCount: 2
Fore
SplineSet
1023.5 986.5 m 128,-1,1
 940 1016 940 1016 828.5 1016 c 128,-1,2
 717 1016 717 1016 607 979 c 128,-1,3
 497 942 497 942 420.5 879.5 c 128,-1,4
 344 817 344 817 289.5 734 c 0,5,6
 184 573.330275229 184 573.330275229 184 373 c 0,7,8
 184 244 184 244 227 138 c 128,-1,9
 270 32 270 32 345 -37.5 c 0,10,11
 500.935251799 -182 500.935251799 -182 725.967625899 -182 c 128,-1,12
 951 -182 951 -182 1165 -58 c 1,13,-1
 1233 -119 l 1,14,15
 998 -291 998 -291 731 -291 c 0,16,17
 459.87804878 -291 459.87804878 -291 270 -118 c 0,18,19
 180 -36 180 -36 127 87 c 128,-1,20
 74 210 74 210 74 337.5 c 128,-1,21
 74 465 74 465 103.5 569 c 128,-1,22
 133 673 133 673 195.5 766.5 c 128,-1,23
 258 860 258 860 346.5 930.5 c 128,-1,24
 435 1001 435 1001 562.5 1042.5 c 128,-1,25
 690 1084 690 1084 821 1084 c 128,-1,26
 952 1084 952 1084 1053 1051 c 128,-1,27
 1154 1018 1154 1018 1234.5 955 c 128,-1,28
 1315 892 1315 892 1362 790.5 c 128,-1,29
 1409 689 1409 689 1409 562 c 128,-1,30
 1409 435 1409 435 1366 319.5 c 128,-1,31
 1323 204 1323 204 1242.5 129 c 128,-1,32
 1162 54 1162 54 1063 54 c 0,33,34
 911 54 911 54 911 237 c 0,35,36
 911 252 911 252 912 261 c 1,37,38
 894.952978056 201.335423197 894.952978056 201.335423197 847.476489028 151.667711599 c 0,39,40
 757.941176471 58 757.941176471 58 647.470588235 58 c 128,-1,41
 537 58 537 58 471.5 133.5 c 128,-1,42
 406 209 406 209 406 321 c 0,43,44
 406 475 406 475 513.5 580 c 128,-1,45
 621 685 621 685 761 685 c 0,46,47
 838 685 838 685 889.5 646.5 c 128,-1,48
 941 608 941 608 957 546 c 1,49,-1
 990 673 l 1,50,-1
 1146 673 l 1,51,-1
 1064 364 l 2,52,53
 1043 288 1043 288 1043 237.5 c 0,54,55
 1043 145 1043 145 1105 145 c 0,56,57
 1172.93814433 145 1172.93814433 145 1242 246.5 c 0,58,59
 1318 358.196969697 1318 358.196969697 1318 551 c 0,60,61
 1318 664 1318 664 1279 754.5 c 128,-1,62
 1240 845 1240 845 1173.5 901 c 128,-1,0
 1107 957 1107 957 1023.5 986.5 c 128,-1,1
648 516.5 m 128,-1,64
 587 434 587 434 587 339.5 c 0,65,66
 587 155 587 155 711 155 c 0,67,68
 760 155 760 155 802.5 187 c 128,-1,69
 845 219 845 219 869.5 266 c 0,70,71
 922 366.714285714 922 366.714285714 922 450 c 0,72,73
 922 599 922 599 800 599 c 0,74,63
 709 599 709 599 648 516.5 c 128,-1,64
EndSplineSet
EndChar

StartChar: OE
Encoding: 338 338 101
Width: 2391
Flags: HW
LayerCount: 2
Fore
SplineSet
2017 928 m 1,0,1
 2070 928 2070 928 2070 892 c 128,-1,2
 2070 856 2070 856 2015 856 c 0,3,4
 1841 856 1841 856 1687 794 c 128,-1,5
 1533 732 1533 732 1437.5 620.5 c 128,-1,6
 1342 509 1342 509 1342 378 c 128,-1,7
 1342 247 1342 247 1453.5 162.5 c 128,-1,8
 1565 78 1565 78 1786 78 c 0,9,10
 2032.68292683 78 2032.68292683 78 2156 196.5 c 0,11,12
 2220 258 2220 258 2220 356.5 c 128,-1,13
 2220 455 2220 455 2155 512 c 128,-1,14
 2090 569 2090 569 1988.5 569 c 128,-1,15
 1887 569 1887 569 1787.5 529 c 128,-1,16
 1688 489 1688 489 1630 422 c 1,17,-1
 1575 471 l 1,18,19
 1633 545 1633 545 1747 590 c 128,-1,20
 1861 635 1861 635 1955 635 c 128,-1,21
 2049 635 2049 635 2106.5 618 c 128,-1,22
 2164 601 2164 601 2211 567.5 c 0,23,24
 2311.9369356 495.555588453 2311.9369356 495.555588453 2318 346 c 1,25,26
 2314 256 2314 256 2264 184 c 128,-1,27
 2214 112 2214 112 2132.5 67 c 0,28,29
 1965.87777778 -25 1965.87777778 -25 1761.93888889 -25 c 128,-1,30
 1558 -25 1558 -25 1401.5 42 c 128,-1,31
 1245 109 1245 109 1173 231 c 1,32,33
 1045 112 1045 112 884 44.5 c 128,-1,34
 723 -23 723 -23 546 -23 c 0,35,36
 294 -23 294 -23 157 106.5 c 128,-1,37
 20 236 20 236 20 475 c 0,38,39
 20 738.21656051 20 738.21656051 176.5 962.5 c 0,40,41
 255 1075 255 1075 362 1148 c 1,42,-1
 392 1111 l 1,43,44
 304 1005 304 1005 253 846 c 128,-1,45
 202 687 202 687 202 557.5 c 128,-1,46
 202 428 202 428 224.5 341.5 c 128,-1,47
 247 255 247 255 292.5 185.5 c 0,48,49
 389.71942446 37 389.71942446 37 587 37 c 0,50,51
 868.011235955 37 868.011235955 37 1077 337 c 0,52,53
 1195.16651625 506.626128159 1195.16651625 506.626128159 1244 728.5 c 0,54,55
 1267 833 1267 833 1267 928 c 128,-1,56
 1267 1023 1267 1023 1247.5 1100.5 c 128,-1,57
 1228 1178 1228 1178 1188.5 1239 c 0,58,59
 1104.96721311 1368 1104.96721311 1368 929 1368 c 0,60,61
 797 1368 797 1368 688 1286 c 128,-1,62
 579 1204 579 1204 520.5 1077.5 c 128,-1,63
 462 951 462 951 462 827 c 128,-1,64
 462 703 462 703 504 649.5 c 128,-1,65
 546 596 546 596 613.5 596 c 128,-1,66
 681 596 681 596 750.5 639.5 c 128,-1,67
 820 683 820 683 869 759 c 128,-1,68
 918 835 918 835 921 918 c 1,69,-1
 1017 934 l 1,70,71
 1017 830 1017 830 962.5 736.5 c 128,-1,72
 908 643 908 643 815.5 586.5 c 128,-1,73
 723 530 723 530 610 530 c 128,-1,74
 497 530 497 530 429.5 613.5 c 128,-1,75
 362 697 362 697 362 816 c 128,-1,76
 362 935 362 935 412.5 1048.5 c 128,-1,77
 463 1162 463 1162 545 1248.5 c 128,-1,78
 627 1335 627 1335 739 1388.5 c 128,-1,79
 851 1442 851 1442 968 1442 c 0,80,81
 1194 1442 1194 1442 1321 1301 c 128,-1,82
 1448 1160 1448 1160 1448 926 c 0,83,84
 1448 854 1448 854 1434 770 c 1,85,86
 1482 812 1482 812 1563.5 843 c 128,-1,87
 1645 874 1645 874 1702.5 884 c 2,88,-1
 1760 894 l 1,89,90
 1639 931 1639 931 1578.5 994 c 128,-1,91
 1518 1057 1518 1057 1518 1131 c 0,92,93
 1518 1251 1518 1251 1657.5 1346.5 c 128,-1,94
 1797 1442 1797 1442 2004 1442 c 0,95,96
 2191.25373134 1442 2191.25373134 1442 2316 1342.5 c 0,97,98
 2409.02284569 1268.30320641 2409.02284569 1268.30320641 2413 1147 c 1,99,100
 2413 1091 2413 1091 2380 1062.5 c 128,-1,101
 2347 1034 2347 1034 2301 1034 c 128,-1,102
 2255 1034 2255 1034 2222.5 1059.5 c 128,-1,103
 2190 1085 2190 1085 2190 1119 c 128,-1,104
 2190 1153 2190 1153 2202 1172.5 c 128,-1,105
 2214 1192 2214 1192 2228.5 1201.5 c 128,-1,106
 2243 1211 2243 1211 2262.5 1216 c 0,107,108
 2289.8 1223 2289.8 1223 2307 1223 c 1,109,110
 2275 1289 2275 1289 2193.5 1328.5 c 128,-1,111
 2112 1368 2112 1368 2028.5 1368 c 128,-1,112
 1945 1368 1945 1368 1885.5 1345 c 128,-1,113
 1826 1322 1826 1322 1787.5 1284.5 c 0,114,115
 1707 1206.09090909 1707 1206.09090909 1707 1118.54545455 c 128,-1,116
 1707 1031 1707 1031 1767 977.5 c 128,-1,117
 1827 924 1827 924 1941 924 c 1,118,-1
 2017 928 l 1,0,1
EndSplineSet
EndChar

StartChar: scaron
Encoding: 353 353 103
Width: 657
Flags: HW
LayerCount: 2
Fore
SplineSet
0 61.5 m 128,-1,1
 -28 93 -28 93 -28 131 c 128,-1,2
 -28 169 -28 169 -7 194 c 128,-1,3
 14 219 14 219 48.5 219 c 128,-1,4
 83 219 83 219 109.5 198.5 c 128,-1,5
 136 178 136 178 136 140.5 c 128,-1,6
 136 103 136 103 90 78 c 1,7,8
 128 45 128 45 206 45 c 0,9,10
 375 45 375 45 375 141 c 0,11,12
 375 201.101123596 375 201.101123596 268.5 237 c 0,13,14
 224 252 224 252 179.5 269 c 128,-1,15
 135 286 135 286 102 319 c 128,-1,16
 69 352 69 352 66 399 c 1,17,18
 66 467 66 467 111 514.5 c 0,19,20
 195.789473684 604 195.789473684 604 365 604 c 0,21,22
 448 604 448 604 512 572.5 c 128,-1,23
 576 541 576 541 576 491 c 128,-1,24
 576 441 576 441 550.5 419 c 128,-1,25
 525 397 525 397 491 397 c 128,-1,26
 457 397 457 397 433.5 415.5 c 128,-1,27
 410 434 410 434 410 467 c 128,-1,28
 410 500 410 500 449 524 c 1,29,30
 425 541 425 541 366 541 c 128,-1,31
 307 541 307 541 260 523.5 c 128,-1,32
 213 506 213 506 213 476 c 128,-1,33
 213 446 213 446 247.5 426 c 128,-1,34
 282 406 282 406 331 389 c 128,-1,35
 380 372 380 372 429 350 c 128,-1,36
 478 328 478 328 512.5 287 c 128,-1,37
 547 246 547 246 547 186 c 128,-1,38
 547 126 547 126 498 77 c 0,39,40
 405 -16 405 -16 244 -16 c 0,41,42
 158.580645161 -16 158.580645161 -16 93.2903225806 7 c 128,-1,0
 28 30 28 30 0 61.5 c 128,-1,1
400 672 m 1,43,-1
 347 672 l 1,44,-1
 147 973 l 1,45,-1
 317 973 l 1,46,-1
 381 712 l 1,47,-1
 556 973 l 1,48,-1
 726 973 l 1,49,-1
 400 672 l 1,43,-1
EndSplineSet
EndChar

StartChar: oe
Encoding: 339 339 104
Width: 1479
Flags: HW
LayerCount: 2
Fore
SplineSet
691 197 m 1,0,1
 697.388888889 82 697.388888889 82 846 82 c 0,2,3
 901 82 901 82 960.5 113.5 c 128,-1,4
 1020 145 1020 145 1057 188 c 1,5,-1
 1100 160 l 1,6,7
 1035.21867638 44.6082672949 1035.21867638 44.6082672949 923.5 7 c 0,8,9
 834.382352941 -23 834.382352941 -23 758 -23 c 0,10,11
 636 -23 636 -23 566 84 c 1,12,13
 440 -23 440 -23 273 -23 c 0,14,15
 157 -23 157 -23 77.5 50 c 128,-1,16
 -2 123 -2 123 -2 238 c 0,17,18
 -2 313 -2 313 34.5 382.5 c 128,-1,19
 71 452 71 452 129 499.5 c 0,20,21
 256.6 604 256.6 604 408 604 c 0,22,23
 474 604 474 604 533.5 570.5 c 128,-1,24
 593 537 593 537 631 478 c 1,25,26
 763.406779661 604 763.406779661 604 918 604 c 0,27,28
 1005 604 1005 604 1072.5 562 c 128,-1,29
 1140 520 1140 520 1141.5 449 c 128,-1,30
 1143 378 1143 378 1100 326.5 c 128,-1,31
 1057 275 1057 275 990.5 248 c 0,32,33
 859.962962963 195 859.962962963 195 734 195 c 1,34,-1
 691 197 l 1,0,1
181 233 m 0,35,36
 181 153 181 153 213.5 96 c 128,-1,37
 246 39 246 39 309 39 c 128,-1,38
 372 39 372 39 412 69.5 c 128,-1,39
 452 100 452 100 473 148.5 c 0,40,41
 514 243.19047619 514 243.19047619 514 342.595238095 c 128,-1,42
 514 442 514 442 478 492.5 c 128,-1,43
 442 543 442 543 376 543 c 128,-1,44
 310 543 310 543 245.5 457 c 128,-1,45
 181 371 181 371 181 233 c 0,35,36
685 252 m 1,46,47
 795.982796648 255.894133216 795.982796648 255.894133216 863.491398324 287.447066608 c 128,-1,48
 931 319 931 319 957.5 359.5 c 128,-1,49
 984 400 984 400 984 444.5 c 128,-1,50
 984 489 984 489 961 510.5 c 128,-1,51
 938 532 938 532 912 532 c 0,52,53
 816 532 816 532 750.5 442.5 c 128,-1,54
 685 353 685 353 685 252 c 1,46,47
EndSplineSet
EndChar

StartChar: cent
Encoding: 162 162 106
Width: 672
Flags: HW
LayerCount: 2
Fore
SplineSet
240 -264 m 1,0,-1
 189 -251 l 1,1,-1
 266 62 l 1,2,3
 165 64 165 64 98 126 c 128,-1,4
 31 188 31 188 31 297 c 128,-1,5
 31 406 31 406 89.5 490.5 c 128,-1,6
 148 575 148 575 236 624.5 c 128,-1,7
 324 674 324 674 421 686 c 1,8,-1
 500 1006 l 1,9,-1
 552 998 l 1,10,-1
 475 689 l 1,11,12
 576.824386184 686.685809405 576.824386184 686.685809405 616.412193092 650.342904702 c 128,-1,13
 656 614 656 614 656 573 c 128,-1,14
 656 532 656 532 631 507 c 128,-1,15
 606 482 606 482 571 482 c 128,-1,16
 536 482 536 482 512 504.5 c 128,-1,17
 488 527 488 527 488 562 c 128,-1,18
 488 597 488 597 531 626 c 1,19,20
 494 638 494 638 463 638 c 1,21,-1
 344 159 l 1,22,-1
 351 159 l 2,23,24
 409 159 409 159 467 196 c 128,-1,25
 525 233 525 233 554 292 c 1,26,-1
 595 263 l 1,27,28
 558 182 558 182 483 130.5 c 128,-1,29
 408 79 408 79 321 66 c 1,30,-1
 240 -264 l 1,0,-1
270 508.5 m 128,-1,32
 216 415 216 415 216 308.5 c 128,-1,33
 216 202 216 202 293 169 c 1,34,-1
 407 629 l 1,35,31
 324 602 324 602 270 508.5 c 128,-1,32
EndSplineSet
EndChar

StartChar: yen
Encoding: 165 165 107
Width: 1549
Flags: HW
LayerCount: 2
Fore
SplineSet
625 271 m 1,0,1
 824.903846154 172 824.903846154 172 960 172 c 0,2,3
 1182 172 1182 172 1238 515 c 1,4,5
 1247 553 1247 553 1261.5 621 c 128,-1,6
 1276 689 1276 689 1285 730 c 128,-1,7
 1294 771 1294 771 1309.5 832.5 c 128,-1,8
 1325 894 1325 894 1339.5 935 c 128,-1,9
 1354 976 1354 976 1374.5 1028 c 128,-1,10
 1395 1080 1395 1080 1419.5 1116.5 c 128,-1,11
 1444 1153 1444 1153 1475 1191 c 0,12,13
 1535.70009116 1265.40656335 1535.70009116 1265.40656335 1629 1308 c 1,14,-1
 1671 1277 l 1,15,16
 1535.83468038 1166.93681117 1535.83468038 1166.93681117 1486.5 926 c 0,17,18
 1444.75764497 722.141987057 1444.75764497 722.141987057 1435.37882248 520.070993529 c 0,19,20
 1417.08015564 125.817898833 1417.08015564 125.817898833 1378 -64 c 1,21,-1
 1555 -64 l 1,22,-1
 1539 -130 l 1,23,-1
 1362 -130 l 1,24,25
 1356 -153 1356 -153 1342 -199 c 1,26,-1
 1525 -199 l 1,27,-1
 1510 -265 l 1,28,-1
 1317 -265 l 1,29,30
 1251 -418 1251 -418 1129 -501.5 c 128,-1,31
 1007 -585 1007 -585 807 -585 c 0,32,33
 516 -585 516 -585 516 -427 c 0,34,35
 516 -375 516 -375 554.5 -343.5 c 128,-1,36
 593 -312 593 -312 639.5 -312 c 128,-1,37
 686 -312 686 -312 717 -340 c 128,-1,38
 748 -368 748 -368 748 -418.5 c 128,-1,39
 748 -469 748 -469 726 -520 c 1,40,41
 769 -527 769 -527 813 -527 c 0,42,43
 1013 -527 1013 -527 1109 -265 c 1,44,-1
 850 -265 l 1,45,-1
 855 -199 l 1,46,-1
 1130 -199 l 1,47,48
 1139 -169 1139 -169 1148 -130 c 1,49,-1
 860 -130 l 1,50,-1
 864 -64 l 1,51,-1
 1163 -64 l 1,52,53
 1188 67 1188 67 1210 257 c 1,54,55
 1164 146 1164 146 1089.5 100.5 c 128,-1,56
 1015 55 1015 55 916 55 c 0,57,58
 729 55 729 55 490 155 c 1,59,60
 447 120 447 120 381 120 c 128,-1,61
 315 120 315 120 273.5 147.5 c 128,-1,62
 232 175 232 175 232 228 c 128,-1,63
 232 281 232 281 272 313.5 c 128,-1,64
 312 346 312 346 390 346 c 128,-1,65
 468 346 468 346 549 304 c 1,66,67
 699.124230554 418.678231673 699.124230554 418.678231673 831 625 c 0,68,69
 893 722 893 722 932 829 c 128,-1,70
 971 936 971 936 971 1024 c 0,71,72
 971 1219 971 1219 880 1315.5 c 128,-1,73
 789 1412 789 1412 649 1412 c 0,74,75
 560 1412 560 1412 468 1373.5 c 128,-1,76
 376 1335 376 1335 301 1270 c 128,-1,77
 226 1205 226 1205 178 1108.5 c 128,-1,78
 130 1012 130 1012 130 902.5 c 128,-1,79
 130 793 130 793 183 690 c 1,80,-1
 132 668 l 1,81,82
 73 792 73 792 73 922 c 128,-1,83
 73 1052 73 1052 125.5 1163 c 128,-1,84
 178 1274 178 1274 263 1345.5 c 0,85,86
 444.293706294 1498 444.293706294 1498 663 1498 c 0,87,88
 845.356521739 1498 845.356521739 1498 973 1381.5 c 0,89,90
 1109 1257.37301587 1109 1257.37301587 1109 1008 c 0,91,92
 1109 822 1109 822 966 615.5 c 128,-1,93
 823 409 823 409 625 271 c 1,0,1
EndSplineSet
EndChar

StartChar: Aacute
Encoding: 193 193 109
Width: 1786
Flags: HW
LayerCount: 2
Fore
SplineSet
1110 20 m 1,0,-1
 1139 70 l 1,1,2
 1179 47 1179 47 1220 47 c 0,3,4
 1299 47 1299 47 1364 132 c 128,-1,5
 1429 217 1429 217 1473 358 c 1,6,-1
 817 358 l 1,7,-1
 735 236 l 2,8,9
 644 101 644 101 527 39 c 128,-1,10
 410 -23 410 -23 266 -23 c 128,-1,11
 122 -23 122 -23 55.5 32 c 128,-1,12
 -11 87 -11 87 -11 148.5 c 128,-1,13
 -11 210 -11 210 25.5 247.5 c 128,-1,14
 62 285 62 285 116.5 285 c 128,-1,15
 171 285 171 285 197 250.5 c 128,-1,16
 223 216 223 216 223 158.5 c 128,-1,17
 223 101 223 101 169 72 c 1,18,19
 172.43373494 61.6987951807 172.43373494 61.6987951807 191.71686747 52.3493975904 c 128,-1,20
 211 43 211 43 245.5 43 c 128,-1,21
 280 43 280 43 312 51.5 c 128,-1,22
 344 60 344 60 386 89 c 128,-1,23
 428 118 428 118 473.5 175.5 c 0,24,25
 572.57029703 300.698727016 572.57029703 300.698727016 720.785148515 557.349363508 c 128,-1,26
 869 814 869 814 1009.5 984.5 c 128,-1,27
 1150 1155 1150 1155 1345 1290 c 1,28,29
 1287 1328 1287 1328 1203 1351 c 128,-1,30
 1119 1374 1119 1374 1014.5 1374 c 128,-1,31
 910 1374 910 1374 796.5 1336.5 c 128,-1,32
 683 1299 683 1299 604.5 1235 c 128,-1,33
 526 1171 526 1171 471.5 1084 c 0,34,35
 367 917.183486239 367 917.183486239 367 694 c 0,36,37
 367 541 367 541 419 393 c 1,38,-1
 354 362 l 1,39,40
 242 543 242 543 242 746 c 0,41,42
 242 883 242 883 296 1008 c 128,-1,43
 350 1133 350 1133 447.5 1230 c 128,-1,44
 545 1327 545 1327 695 1384.5 c 128,-1,45
 845 1442 845 1442 1024 1442 c 0,46,47
 1154 1442 1154 1442 1210 1424.5 c 2,48,-1
 1282 1402 l 2,49,50
 1318.17391304 1390.69565217 1318.17391304 1390.69565217 1367.08695652 1361.34782609 c 128,-1,51
 1416 1332 1416 1332 1417 1331 c 1,52,53
 1513 1376 1513 1376 1582 1389.5 c 128,-1,54
 1651 1403 1651 1403 1742 1403 c 1,55,-1
 1767 1356 l 1,56,57
 1608.35555556 1356 1608.35555556 1356 1480 1280 c 1,58,59
 1599 1176 1599 1176 1657 1014 c 128,-1,60
 1715 852 1715 852 1715 658.5 c 128,-1,61
 1715 465 1715 465 1660 290.5 c 128,-1,62
 1605 116 1605 116 1513.5 14 c 128,-1,63
 1422 -88 1422 -88 1315 -88 c 128,-1,64
 1208 -88 1208 -88 1110 20 c 1,0,-1
1417 1234 m 1,65,66
 1249.3928382 1108.7994695 1249.3928382 1108.7994695 1142 943 c 0,67,68
 1049.24563902 799.800284799 1049.24563902 799.800284799 969.622819509 643.900142399 c 128,-1,69
 890 488 890 488 853 422 c 1,70,-1
 1491 422 l 1,71,72
 1538 610 1538 610 1538 796 c 0,73,74
 1538 1104 1538 1104 1417 1234 c 1,65,66
1397 1532 m 1,75,-1
 1343 1532 l 1,76,77
 1383.5 1589 1383.5 1589 1501 1777 c 2,78,-1
 1536 1833 l 1,79,-1
 1706 1833 l 1,80,81
 1692 1819 1692 1819 1627 1752 c 0,82,83
 1462.29411765 1582.22624434 1462.29411765 1582.22624434 1397 1532 c 1,75,-1
EndSplineSet
EndChar

StartChar: Adieresis
Encoding: 196 196 111
Width: 1786
Flags: HW
LayerCount: 2
Fore
SplineSet
1110 20 m 1,0,-1
 1139 70 l 1,1,2
 1179 47 1179 47 1220 47 c 0,3,4
 1299 47 1299 47 1364 132 c 128,-1,5
 1429 217 1429 217 1473 358 c 1,6,-1
 817 358 l 1,7,-1
 735 236 l 2,8,9
 644 101 644 101 527 39 c 128,-1,10
 410 -23 410 -23 266 -23 c 128,-1,11
 122 -23 122 -23 55.5 32 c 128,-1,12
 -11 87 -11 87 -11 148.5 c 128,-1,13
 -11 210 -11 210 25.5 247.5 c 128,-1,14
 62 285 62 285 116.5 285 c 128,-1,15
 171 285 171 285 197 250.5 c 128,-1,16
 223 216 223 216 223 158.5 c 128,-1,17
 223 101 223 101 169 72 c 1,18,19
 172.43373494 61.6987951807 172.43373494 61.6987951807 191.71686747 52.3493975904 c 128,-1,20
 211 43 211 43 245.5 43 c 128,-1,21
 280 43 280 43 312 51.5 c 128,-1,22
 344 60 344 60 386 89 c 128,-1,23
 428 118 428 118 473.5 175.5 c 0,24,25
 572.57029703 300.698727016 572.57029703 300.698727016 720.785148515 557.349363508 c 128,-1,26
 869 814 869 814 1009.5 984.5 c 128,-1,27
 1150 1155 1150 1155 1345 1290 c 1,28,29
 1287 1328 1287 1328 1203 1351 c 128,-1,30
 1119 1374 1119 1374 1014.5 1374 c 128,-1,31
 910 1374 910 1374 796.5 1336.5 c 128,-1,32
 683 1299 683 1299 604.5 1235 c 128,-1,33
 526 1171 526 1171 471.5 1084 c 0,34,35
 367 917.183486239 367 917.183486239 367 694 c 0,36,37
 367 541 367 541 419 393 c 1,38,-1
 354 362 l 1,39,40
 242 543 242 543 242 746 c 0,41,42
 242 883 242 883 296 1008 c 128,-1,43
 350 1133 350 1133 447.5 1230 c 128,-1,44
 545 1327 545 1327 695 1384.5 c 128,-1,45
 845 1442 845 1442 1024 1442 c 0,46,47
 1154 1442 1154 1442 1210 1424.5 c 2,48,-1
 1282 1402 l 2,49,50
 1318.17391304 1390.69565217 1318.17391304 1390.69565217 1367.08695652 1361.34782609 c 128,-1,51
 1416 1332 1416 1332 1417 1331 c 1,52,53
 1513 1376 1513 1376 1582 1389.5 c 128,-1,54
 1651 1403 1651 1403 1742 1403 c 1,55,-1
 1767 1356 l 1,56,57
 1608.35555556 1356 1608.35555556 1356 1480 1280 c 1,58,59
 1599 1176 1599 1176 1657 1014 c 128,-1,60
 1715 852 1715 852 1715 658.5 c 128,-1,61
 1715 465 1715 465 1660 290.5 c 128,-1,62
 1605 116 1605 116 1513.5 14 c 128,-1,63
 1422 -88 1422 -88 1315 -88 c 128,-1,64
 1208 -88 1208 -88 1110 20 c 1,0,-1
1417 1234 m 1,65,66
 1249.3928382 1108.7994695 1249.3928382 1108.7994695 1142 943 c 0,67,68
 1049.24563902 799.800284799 1049.24563902 799.800284799 969.622819509 643.900142399 c 128,-1,69
 890 488 890 488 853 422 c 1,70,-1
 1491 422 l 1,71,72
 1538 610 1538 610 1538 796 c 0,73,74
 1538 1104 1538 1104 1417 1234 c 1,65,66
1333 1710.5 m 128,-1,76
 1359 1687 1359 1687 1359 1639 c 128,-1,77
 1359 1591 1359 1591 1326 1561.5 c 128,-1,78
 1293 1532 1293 1532 1252.5 1532 c 128,-1,79
 1212 1532 1212 1532 1185 1556.5 c 128,-1,80
 1158 1581 1158 1581 1158 1628.5 c 128,-1,81
 1158 1676 1158 1676 1191.5 1705 c 128,-1,82
 1225 1734 1225 1734 1266 1734 c 128,-1,75
 1307 1734 1307 1734 1333 1710.5 c 128,-1,76
1695 1710.5 m 128,-1,84
 1721 1687 1721 1687 1721 1639 c 128,-1,85
 1721 1591 1721 1591 1688 1561.5 c 128,-1,86
 1655 1532 1655 1532 1614.5 1532 c 128,-1,87
 1574 1532 1574 1532 1547 1556.5 c 128,-1,88
 1520 1581 1520 1581 1520 1628 c 128,-1,89
 1520 1675 1520 1675 1554 1704.5 c 128,-1,90
 1588 1734 1588 1734 1628.5 1734 c 128,-1,83
 1669 1734 1669 1734 1695 1710.5 c 128,-1,84
EndSplineSet
EndChar

StartChar: Eacute
Encoding: 201 201 114
Width: 1369
Flags: HW
LayerCount: 2
Fore
SplineSet
1005 928 m 1,0,1
 1058 928 1058 928 1058 892 c 128,-1,2
 1058 856 1058 856 1003 856 c 0,3,4
 859 856 859 856 731.5 811 c 128,-1,5
 604 766 604 766 520 696 c 128,-1,6
 436 626 436 626 388 542 c 128,-1,7
 340 458 340 458 340 377 c 0,8,9
 340 247 340 247 449 162.5 c 128,-1,10
 558 78 558 78 774 78 c 0,11,12
 1020.68292683 78 1020.68292683 78 1144 196.5 c 0,13,14
 1208 258 1208 258 1208 356.5 c 128,-1,15
 1208 455 1208 455 1143 512 c 128,-1,16
 1078 569 1078 569 976.5 569 c 128,-1,17
 875 569 875 569 775.5 529 c 128,-1,18
 676 489 676 489 618 422 c 1,19,-1
 563 471 l 1,20,21
 621 545 621 545 735 590 c 128,-1,22
 849 635 849 635 943 635 c 128,-1,23
 1037 635 1037 635 1094.5 618 c 128,-1,24
 1152 601 1152 601 1199 567.5 c 0,25,26
 1299.9369356 495.555588453 1299.9369356 495.555588453 1306 346 c 1,27,28
 1302 256 1302 256 1252 184 c 128,-1,29
 1202 112 1202 112 1120.5 67 c 0,30,31
 953.877777778 -25 953.877777778 -25 729 -25 c 0,32,33
 488.055555556 -25 488.055555556 -25 304.5 87 c 0,34,35
 216 141 216 141 163 227.5 c 128,-1,36
 110 314 110 314 110 420 c 0,37,38
 110 796 110 796 768 903 c 1,39,40
 657 941 657 941 608 1004 c 128,-1,41
 559 1067 559 1067 559 1135 c 0,42,43
 559 1257 559 1257 693.5 1349.5 c 128,-1,44
 828 1442 828 1442 1032 1442 c 0,45,46
 1219.25373134 1442 1219.25373134 1442 1344 1342.5 c 0,47,48
 1437.02284569 1268.30320641 1437.02284569 1268.30320641 1441 1147 c 1,49,50
 1441 1091 1441 1091 1408 1062.5 c 128,-1,51
 1375 1034 1375 1034 1329 1034 c 128,-1,52
 1283 1034 1283 1034 1250.5 1059.5 c 128,-1,53
 1218 1085 1218 1085 1218 1119 c 128,-1,54
 1218 1153 1218 1153 1230 1172.5 c 128,-1,55
 1242 1192 1242 1192 1256.5 1201.5 c 128,-1,56
 1271 1211 1271 1211 1290.5 1216 c 0,57,58
 1317.8 1223 1317.8 1223 1335 1223 c 1,59,60
 1303 1289 1303 1289 1221.5 1328.5 c 128,-1,61
 1140 1368 1140 1368 1032 1368 c 128,-1,62
 924 1368 924 1368 835.5 1306.5 c 128,-1,63
 747 1245 747 1245 747 1139 c 0,64,65
 747 1024.96551724 747 1024.96551724 825.5 960 c 0,66,67
 869 924 869 924 929 924 c 1,68,-1
 1005 928 l 1,0,1
1101 1532 m 1,69,-1
 1047 1532 l 1,70,71
 1087.5 1589 1087.5 1589 1205 1777 c 2,72,-1
 1240 1833 l 1,73,-1
 1410 1833 l 1,74,75
 1396 1819 1396 1819 1331 1752 c 0,76,77
 1166.29411765 1582.22624434 1166.29411765 1582.22624434 1101 1532 c 1,69,-1
EndSplineSet
EndChar

StartChar: Edieresis
Encoding: 203 203 116
Width: 1369
Flags: HW
LayerCount: 2
Fore
SplineSet
1005 928 m 1,0,1
 1058 928 1058 928 1058 892 c 128,-1,2
 1058 856 1058 856 1003 856 c 0,3,4
 859 856 859 856 731.5 811 c 128,-1,5
 604 766 604 766 520 696 c 128,-1,6
 436 626 436 626 388 542 c 128,-1,7
 340 458 340 458 340 377 c 0,8,9
 340 247 340 247 449 162.5 c 128,-1,10
 558 78 558 78 774 78 c 0,11,12
 1020.68292683 78 1020.68292683 78 1144 196.5 c 0,13,14
 1208 258 1208 258 1208 356.5 c 128,-1,15
 1208 455 1208 455 1143 512 c 128,-1,16
 1078 569 1078 569 976.5 569 c 128,-1,17
 875 569 875 569 775.5 529 c 128,-1,18
 676 489 676 489 618 422 c 1,19,-1
 563 471 l 1,20,21
 621 545 621 545 735 590 c 128,-1,22
 849 635 849 635 943 635 c 128,-1,23
 1037 635 1037 635 1094.5 618 c 128,-1,24
 1152 601 1152 601 1199 567.5 c 0,25,26
 1299.9369356 495.555588453 1299.9369356 495.555588453 1306 346 c 1,27,28
 1302 256 1302 256 1252 184 c 128,-1,29
 1202 112 1202 112 1120.5 67 c 0,30,31
 953.877777778 -25 953.877777778 -25 729 -25 c 0,32,33
 488.055555556 -25 488.055555556 -25 304.5 87 c 0,34,35
 216 141 216 141 163 227.5 c 128,-1,36
 110 314 110 314 110 420 c 0,37,38
 110 796 110 796 768 903 c 1,39,40
 657 941 657 941 608 1004 c 128,-1,41
 559 1067 559 1067 559 1135 c 0,42,43
 559 1257 559 1257 693.5 1349.5 c 128,-1,44
 828 1442 828 1442 1032 1442 c 0,45,46
 1219.25373134 1442 1219.25373134 1442 1344 1342.5 c 0,47,48
 1437.02284569 1268.30320641 1437.02284569 1268.30320641 1441 1147 c 1,49,50
 1441 1091 1441 1091 1408 1062.5 c 128,-1,51
 1375 1034 1375 1034 1329 1034 c 128,-1,52
 1283 1034 1283 1034 1250.5 1059.5 c 128,-1,53
 1218 1085 1218 1085 1218 1119 c 128,-1,54
 1218 1153 1218 1153 1230 1172.5 c 128,-1,55
 1242 1192 1242 1192 1256.5 1201.5 c 128,-1,56
 1271 1211 1271 1211 1290.5 1216 c 0,57,58
 1317.8 1223 1317.8 1223 1335 1223 c 1,59,60
 1303 1289 1303 1289 1221.5 1328.5 c 128,-1,61
 1140 1368 1140 1368 1032 1368 c 128,-1,62
 924 1368 924 1368 835.5 1306.5 c 128,-1,63
 747 1245 747 1245 747 1139 c 0,64,65
 747 1024.96551724 747 1024.96551724 825.5 960 c 0,66,67
 869 924 869 924 929 924 c 1,68,-1
 1005 928 l 1,0,1
1037 1710.5 m 128,-1,70
 1063 1687 1063 1687 1063 1639 c 128,-1,71
 1063 1591 1063 1591 1030 1561.5 c 128,-1,72
 997 1532 997 1532 956.5 1532 c 128,-1,73
 916 1532 916 1532 889 1556.5 c 128,-1,74
 862 1581 862 1581 862 1628.5 c 128,-1,75
 862 1676 862 1676 895.5 1705 c 128,-1,76
 929 1734 929 1734 970 1734 c 128,-1,69
 1011 1734 1011 1734 1037 1710.5 c 128,-1,70
1399 1710.5 m 128,-1,78
 1425 1687 1425 1687 1425 1639 c 128,-1,79
 1425 1591 1425 1591 1392 1561.5 c 128,-1,80
 1359 1532 1359 1532 1318.5 1532 c 128,-1,81
 1278 1532 1278 1532 1251 1556.5 c 128,-1,82
 1224 1581 1224 1581 1224 1628 c 128,-1,83
 1224 1675 1224 1675 1258 1704.5 c 128,-1,84
 1292 1734 1292 1734 1332.5 1734 c 128,-1,77
 1373 1734 1373 1734 1399 1710.5 c 128,-1,78
EndSplineSet
EndChar

StartChar: Iacute
Encoding: 205 205 118
Width: 1323
Flags: HW
LayerCount: 2
Fore
SplineSet
1518 1376 m 1,0,1
 1227 1075 1227 1075 1221 719 c 1,2,-1
 1411 719 l 1,3,-1
 1411 643 l 1,4,-1
 1217 643 l 1,5,6
 1188.27216312 246.555851064 1188.27216312 246.555851064 851 68 c 0,7,8
 656.444444444 -35 656.444444444 -35 424.222222222 -35 c 128,-1,9
 192 -35 192 -35 78.5 48 c 128,-1,10
 -35 131 -35 131 -35 251.5 c 128,-1,11
 -35 372 -35 372 67 457.5 c 128,-1,12
 169 543 169 543 352 543 c 0,13,14
 395 543 395 543 420 541 c 1,15,16
 352 689 352 689 352 849 c 128,-1,17
 352 1009 352 1009 440.5 1147.5 c 128,-1,18
 529 1286 529 1286 685.5 1364 c 128,-1,19
 842 1442 842 1442 1036 1442 c 0,20,21
 1118 1442 1118 1442 1277.5 1409 c 128,-1,22
 1437 1376 1437 1376 1518 1376 c 1,0,1
1045 719 m 1,23,24
 1075.17075038 999.156967841 1075.17075038 999.156967841 1288 1249 c 1,25,26
 1135 1313 1135 1313 965 1313 c 0,27,28
 719 1313 719 1313 571.5 1181 c 128,-1,29
 424 1049 424 1049 424 838 c 0,30,31
 424 691 424 691 504 532 c 1,32,-1
 741 465 l 1,33,-1
 721 403 l 1,34,35
 616 438 616 438 541 453 c 1,36,37
 563 410 563 410 627 315 c 1,38,-1
 559 293 l 1,39,-1
 455 465 l 1,40,41
 411 471 411 471 373 471 c 0,42,43
 228 471 228 471 153 411.5 c 128,-1,44
 78 352 78 352 78 262 c 128,-1,45
 78 172 78 172 164 102.5 c 128,-1,46
 250 33 250 33 387.5 33 c 128,-1,47
 525 33 525 33 630.5 64.5 c 128,-1,48
 736 96 736 96 821 166 c 0,49,50
 994.214424951 308.647173489 994.214424951 308.647173489 1038 645 c 1,51,-1
 823 645 l 1,52,-1
 823 719 l 1,53,-1
 1045 719 l 1,23,24
1197 1506 m 1,54,-1
 1143 1506 l 1,55,56
 1183.5 1563 1183.5 1563 1301 1751 c 2,57,-1
 1336 1807 l 1,58,-1
 1506 1807 l 1,59,60
 1492 1793 1492 1793 1427 1726 c 0,61,62
 1262.29411765 1556.22624434 1262.29411765 1556.22624434 1197 1506 c 1,54,-1
EndSplineSet
EndChar

StartChar: Idieresis
Encoding: 207 207 120
Width: 1323
Flags: HW
LayerCount: 2
Fore
SplineSet
1518 1376 m 1,0,1
 1227 1075 1227 1075 1221 719 c 1,2,-1
 1411 719 l 1,3,-1
 1411 643 l 1,4,-1
 1217 643 l 1,5,6
 1188.27216312 246.555851064 1188.27216312 246.555851064 851 68 c 0,7,8
 656.444444444 -35 656.444444444 -35 424.222222222 -35 c 128,-1,9
 192 -35 192 -35 78.5 48 c 128,-1,10
 -35 131 -35 131 -35 251.5 c 128,-1,11
 -35 372 -35 372 67 457.5 c 128,-1,12
 169 543 169 543 352 543 c 0,13,14
 395 543 395 543 420 541 c 1,15,16
 352 689 352 689 352 849 c 128,-1,17
 352 1009 352 1009 440.5 1147.5 c 128,-1,18
 529 1286 529 1286 685.5 1364 c 128,-1,19
 842 1442 842 1442 1036 1442 c 0,20,21
 1118 1442 1118 1442 1277.5 1409 c 128,-1,22
 1437 1376 1437 1376 1518 1376 c 1,0,1
1045 719 m 1,23,24
 1075.17075038 999.156967841 1075.17075038 999.156967841 1288 1249 c 1,25,26
 1135 1313 1135 1313 965 1313 c 0,27,28
 719 1313 719 1313 571.5 1181 c 128,-1,29
 424 1049 424 1049 424 838 c 0,30,31
 424 691 424 691 504 532 c 1,32,-1
 741 465 l 1,33,-1
 721 403 l 1,34,35
 616 438 616 438 541 453 c 1,36,37
 563 410 563 410 627 315 c 1,38,-1
 559 293 l 1,39,-1
 455 465 l 1,40,41
 411 471 411 471 373 471 c 0,42,43
 228 471 228 471 153 411.5 c 128,-1,44
 78 352 78 352 78 262 c 128,-1,45
 78 172 78 172 164 102.5 c 128,-1,46
 250 33 250 33 387.5 33 c 128,-1,47
 525 33 525 33 630.5 64.5 c 128,-1,48
 736 96 736 96 821 166 c 0,49,50
 994.214424951 308.647173489 994.214424951 308.647173489 1038 645 c 1,51,-1
 823 645 l 1,52,-1
 823 719 l 1,53,-1
 1045 719 l 1,23,24
1133 1684.5 m 128,-1,55
 1159 1661 1159 1661 1159 1613 c 128,-1,56
 1159 1565 1159 1565 1126 1535.5 c 128,-1,57
 1093 1506 1093 1506 1052.5 1506 c 128,-1,58
 1012 1506 1012 1506 985 1530.5 c 128,-1,59
 958 1555 958 1555 958 1602.5 c 128,-1,60
 958 1650 958 1650 991.5 1679 c 128,-1,61
 1025 1708 1025 1708 1066 1708 c 128,-1,54
 1107 1708 1107 1708 1133 1684.5 c 128,-1,55
1495 1684.5 m 128,-1,63
 1521 1661 1521 1661 1521 1613 c 128,-1,64
 1521 1565 1521 1565 1488 1535.5 c 128,-1,65
 1455 1506 1455 1506 1414.5 1506 c 128,-1,66
 1374 1506 1374 1506 1347 1530.5 c 128,-1,67
 1320 1555 1320 1555 1320 1602 c 128,-1,68
 1320 1649 1320 1649 1354 1678.5 c 128,-1,69
 1388 1708 1388 1708 1428.5 1708 c 128,-1,62
 1469 1708 1469 1708 1495 1684.5 c 128,-1,63
EndSplineSet
EndChar

StartChar: Oacute
Encoding: 211 211 122
Width: 1442
Flags: HW
LayerCount: 2
Fore
SplineSet
429.5 613.5 m 128,-1,1
 362 697 362 697 362 816 c 128,-1,2
 362 935 362 935 412.5 1048.5 c 128,-1,3
 463 1162 463 1162 545 1248.5 c 128,-1,4
 627 1335 627 1335 739 1388.5 c 128,-1,5
 851 1442 851 1442 962 1442 c 128,-1,6
 1073 1442 1073 1442 1167 1408.5 c 128,-1,7
 1261 1375 1261 1375 1333.5 1313 c 128,-1,8
 1406 1251 1406 1251 1449 1155.5 c 128,-1,9
 1492 1060 1492 1060 1492 930 c 128,-1,10
 1492 800 1492 800 1445.5 657.5 c 128,-1,11
 1399 515 1399 515 1312.5 393.5 c 128,-1,12
 1226 272 1226 272 1111 178 c 128,-1,13
 996 84 996 84 849 30.5 c 128,-1,14
 702 -23 702 -23 546 -23 c 0,15,16
 294 -23 294 -23 157 106.5 c 128,-1,17
 20 236 20 236 20 475 c 0,18,19
 20 738.21656051 20 738.21656051 176.5 962.5 c 0,20,21
 255 1075 255 1075 362 1148 c 1,22,-1
 392 1111 l 1,23,24
 304 1005 304 1005 253 846 c 128,-1,25
 202 687 202 687 202 557.5 c 128,-1,26
 202 428 202 428 224.5 341.5 c 128,-1,27
 247 255 247 255 292.5 185.5 c 0,28,29
 389.71942446 37 389.71942446 37 587 37 c 0,30,31
 868.011235955 37 868.011235955 37 1077 337 c 0,32,33
 1195.16651625 506.626128159 1195.16651625 506.626128159 1244 728.5 c 0,34,35
 1267 833 1267 833 1267 928 c 128,-1,36
 1267 1023 1267 1023 1247.5 1100.5 c 128,-1,37
 1228 1178 1228 1178 1188.5 1239 c 0,38,39
 1104.96721311 1368 1104.96721311 1368 929 1368 c 0,40,41
 797 1368 797 1368 688 1286 c 128,-1,42
 579 1204 579 1204 520.5 1077.5 c 128,-1,43
 462 951 462 951 462 827 c 128,-1,44
 462 703 462 703 504 649.5 c 128,-1,45
 546 596 546 596 613.5 596 c 128,-1,46
 681 596 681 596 750.5 639.5 c 128,-1,47
 820 683 820 683 869 759 c 128,-1,48
 918 835 918 835 921 918 c 1,49,-1
 1017 934 l 1,50,51
 1017 830 1017 830 962.5 736.5 c 128,-1,52
 908 643 908 643 815.5 586.5 c 128,-1,53
 723 530 723 530 610 530 c 128,-1,0
 497 530 497 530 429.5 613.5 c 128,-1,1
1001 1532 m 1,54,-1
 947 1532 l 1,55,56
 987.5 1589 987.5 1589 1105 1777 c 2,57,-1
 1140 1833 l 1,58,-1
 1310 1833 l 1,59,60
 1296 1819 1296 1819 1231 1752 c 0,61,62
 1066.29411765 1582.22624434 1066.29411765 1582.22624434 1001 1532 c 1,54,-1
EndSplineSet
EndChar

